<?xml version="1.0" encoding="utf-8"?>
<!-- Generator: Adobe Illustrator 16.0.0, SVG Export Plug-In . SVG Version: 6.00 Build 0)  -->
<!DOCTYPE svg PUBLIC "-//W3C//DTD SVG 1.1//EN" "http://www.w3.org/Graphics/SVG/1.1/DTD/svg11.dtd">
<svg version="1.1" id="Layer_1" xmlns="http://www.w3.org/2000/svg" xmlns:xlink="http://www.w3.org/1999/xlink" x="0px" y="0px"
	 width="377.148px" height="103.438px" viewBox="0 0 377.148 103.438" enable-background="new 0 0 377.148 103.438"
	 xml:space="preserve">
<g>
	<g>
		<g>
			<path fill="#FFFFFF" d="M65.727,103.438c-0.289,0-0.579-0.036-0.864-0.107c-0.914-0.233-1.695-0.825-2.167-1.643
				c-1.724-2.985,1.191-4.829,2.757-5.818c1.084-0.687,2.688-1.666,4.736-2.9c0.301-0.181,0.613-0.368,0.937-0.563
				c-2.76,0.706-3.914,0.439-4.792,0.235c-1.38-0.318-2.502-1.121-3.159-2.26c-0.499-0.865-0.587-1.854-0.324-2.742
				c-21.082,13.521-21.36,13.456-23.302,12.982c-0.93-0.227-1.762-0.846-2.239-1.675c-1.02-1.763-0.738-3.298,0.904-5.138
				c-0.032-0.051-0.064-0.103-0.097-0.156c-0.082-0.143-0.163-0.3-0.24-0.473c-2.287,0.745-3.965,0.932-5.206,0.64
				c-1.288-0.304-2.343-1.068-2.971-2.155c-0.474-0.82-0.594-1.798-0.335-2.709c0.112-0.395,0.292-0.762,0.526-1.086
				c-0.322-0.348-0.568-0.7-0.755-1.022c-0.425-0.735-0.631-1.441-0.588-2.171c-2.236,1.384-4.412,2.732-6.523,4.044
				c-0.805,0.499-1.777,0.651-2.698,0.421c-0.919-0.229-1.705-0.824-2.18-1.645c-1.761-3.053,1.096-4.835,3.391-6.27
				c1.43-0.894,3.544-2.167,6.463-3.894c0.933-0.553,1.928-1.139,2.981-1.757c0.225-0.14,0.45-0.278,0.681-0.421
				c-0.082-0.115-0.156-0.23-0.222-0.344c-8.004,3.602-9.926,3.152-11.183,2.859c-1.291-0.3-2.345-1.06-2.967-2.136
				c-0.029-0.055-0.06-0.106-0.088-0.159c-0.815,0.186-1.399,0.139-1.981,0.001c-1.031-0.241-1.887-0.871-2.407-1.773
				c-0.593-1.025-0.758-2.243-0.474-3.449c-0.804-0.429-1.464-1.062-1.922-1.854c-0.999-1.729-0.75-3.47,0.699-5.547
				c-3.47,1.501-5.565,1.899-6.945,1.566c-1.125-0.273-2.052-0.957-2.608-1.923c-1.781-3.084,0.843-4.833,5.188-7.729
				c2.685-1.789,6.47-4.226,10.852-7.045c1.879-1.209,4.125-2.654,6.598-4.255c-0.387,0.025-0.777-0.009-1.158-0.11
				c-0.896-0.24-1.661-0.827-2.125-1.631c-0.087-0.149-0.162-0.297-0.229-0.44c-2.321,0.727-3.285,0.516-4.052,0.348
				c-1.252-0.273-2.278-1.009-2.89-2.065c-0.825-1.429-0.54-3.24,0.685-4.347c4.825-4.362,9.86-8.998,14.189-13.069
				c-0.357-0.294-0.665-0.651-0.899-1.06c-1.854-3.21,1.316-5.418,4.986-7.977c0.062-0.041,0.121-0.084,0.183-0.126
				c-0.679-0.071-1.354,0.053-1.905,0.353c0.26-0.142,1.527-0.909,2.645-1.589c8.736-5.301,9.076-5.511,10.813-5.061
				c0.911,0.233,1.705,0.834,2.176,1.648c0.749,1.304,0.66,2.348,0.136,3.229c0.445,2.176-1.503,4.134-4.877,7.525
				c-0.686,0.688-1.458,1.453-2.316,2.289c1.135-0.694,2.319-1.418,3.554-2.173c10.8-6.59,21.775-13.21,21.884-13.275
				c1.053-0.635,2.309-0.652,3.34-0.15c0.66-0.286,1.398-0.366,2.113-0.217c0.977,0.203,1.817,0.813,2.316,1.676
				c1.4,2.43,0.313,4.603-2.953,7.371c0.551,1.525,0.231,3.192-1.709,5.567c12.523-7.967,12.836-7.891,14.554-7.47
				c0.929,0.227,1.757,0.845,2.235,1.673c0.782,1.355,0.557,3.025-0.462,4.126c8.894-5.603,14.106-7.814,17.38-7.099
				c1.412,0.308,2.571,1.137,3.263,2.333c0,0.001,0.001,0.001,0.001,0.001c2.778-0.99,4.832-1.299,6.295-0.955
				c1.337,0.313,2.432,1.104,3.08,2.229c0.282,0.489,0.45,0.955,0.52,1.402l16.354-10.664c1.612-1.053,3.771-0.604,4.832,1.003
				c0.948,1.436,0.701,3.314-0.505,4.463c7.641-5.24,7.798-5.202,9.269-4.873c0.952,0.216,1.775,0.821,2.265,1.667
				c1.385,2.398,0.152,4.536-2.909,7.129c0.439,0.894,0.455,1.674,0.231,2.347c2.706-1.931,4.263-3.057,4.324-3.102
				c0.804-0.581,1.813-0.795,2.783-0.588c0.69,0.146,1.313,0.498,1.794,0.998c3.591-1.62,5.855-2.104,7.379-1.742
				c1.188,0.28,2.162,0.992,2.747,2.005c0.446,0.774,0.601,1.669,0.441,2.553l18.04-10.415c1.675-0.967,3.813-0.393,4.779,1.281
				c1.654,2.864-0.577,4.557-3.453,6.374c0.073,0.105,0.144,0.214,0.208,0.326c0.351,0.606,0.521,1.202,0.546,1.782
				c7.833-4.424,12.802-7.164,12.921-7.23c1.64-0.903,3.701-0.356,4.677,1.241s0.521,3.682-1.032,4.728
				c-0.11,0.074-4.334,2.915-11.188,7.453c7.72-4.301,12.838-6.98,16.292-8.633c8.517-5.435,9.186-5.275,10.683-4.927
				c0.943,0.22,1.827,0.868,2.313,1.707c0.064,0.113,0.124,0.229,0.177,0.351c2.021-0.849,3.165-0.963,4.113-0.738
				c1.043,0.245,1.905,0.883,2.432,1.791c0.146,0.253,0.262,0.519,0.35,0.792c0.126,0.018,0.246,0.039,0.361,0.067
				c1.068,0.265,1.95,0.92,2.484,1.845c0.225,0.39,0.388,0.807,0.488,1.239C243.111,7.696,250.065,4.7,253.22,5.466
				c0.551,0.133,1.057,0.357,1.498,0.664c13.773-6.499,16.978-5.772,18.847-5.349c0.334,0.076,0.641,0.172,0.923,0.28
				c3.201-0.813,5.217-0.824,6.625-0.502c2.157,0.493,3.27,1.741,3.824,2.7c0.632,1.095,0.876,2.199,0.397,3.569
				c3.188-1.164,5.602-1.533,7.376-1.133c0.497,0.111,0.966,0.28,1.396,0.502c0.707-0.054,1.33-0.02,1.878,0.104
				c1.372,0.311,2.494,1.117,3.161,2.272c0.13,0.225,0.234,0.445,0.317,0.666c1.571-0.744,2.447-1.155,2.501-1.182
				c0.609-0.285,1.262-0.381,1.889-0.309c6.285-2.869,10.435-3.941,12.86-3.361c1.389,0.332,2.52,1.15,3.186,2.305
				c0.59,1.022,0.781,2.228,0.555,3.441c1.74-0.269,2.622-0.066,3.299,0.09c1.433,0.33,2.596,1.159,3.273,2.334
				c0.924,1.603,0.443,3.646-1.099,4.668l-26.17,17.336c8.528-5.08,16.379-9.743,22.818-13.563
				c17.535-11.077,17.921-10.983,19.697-10.544c0.741,0.182,1.419,0.612,1.905,1.202c3.854-1.709,6.241-2.224,7.751-1.862
				c1.151,0.28,2.102,0.977,2.671,1.963c0.499,0.864,0.626,1.881,0.358,2.863c-0.252,0.923-0.896,1.895-2.963,3.533
				c-0.195,0.281-0.413,0.569-0.65,0.861c0.465,1.548-0.329,2.707-1.549,3.717l0.011,0.017c-0.011,0.007-0.06,0.038-0.146,0.094
				c-0.634,0.508-1.369,0.979-2.097,1.446c-0.408,0.261-0.867,0.553-1.377,0.875c0.394,0.875,0.406,1.673,0.134,2.432
				c8.753-5.014,14.364-8.193,14.494-8.267l0.016,0.026c1.182-0.69,1.533-0.61,2.485-0.396c1.409,0.321,2.477,1.475,2.687,2.904
				c0.206,1.405-0.457,2.794-1.675,3.518c-0.305,0.201-1.266,0.862-2.774,1.899c-2.153,1.479-4.271,2.93-6.344,4.344
				c0.719,1.593,0.147,3.504-1.381,4.429c-31.342,18.965-64.349,40.288-81.074,52.79c11.906-6.946,29.071-18.18,41.971-26.621
				c37.375-24.458,44.62-28.601,48.438-27.688c1.091,0.26,1.992,0.923,2.538,1.866c2.179,3.775-1.974,6.834-9.502,11.916
				c-1.468,0.991-3.088,2.058-4.829,3.185c16.843-10.453,19.27-11.302,21.445-10.761c0.999,0.244,1.829,0.863,2.335,1.741
				c1.734,3.004-0.958,5.226-4.687,8.3c-2.451,2.021-5.946,4.741-10.685,8.316c-1.514,1.144-3.101,2.331-4.736,3.55
				c0.644,0.346,1.174,0.858,1.548,1.505c0.374,0.648,0.575,1.28,0.593,1.93c3.886-2.042,5.85-2.459,7.428-2.09
				c1.123,0.262,2.05,0.939,2.61,1.91c1.083,1.875,0.748,3.466-1.485,5.818c0.293,0.253,0.545,0.556,0.743,0.898
				c0.511,0.886,0.641,1.93,0.364,2.938c-0.33,1.208-1.187,2.388-3.98,4.426c-0.294,0.62-0.772,1.161-1.413,1.531l-33.313,19.233
				c-0.805,0.463-1.76,0.589-2.656,0.35c-0.896-0.24-1.661-0.827-2.125-1.631c-0.467-0.81-0.593-1.8-0.347-2.701
				c0.063-0.231,0.118-0.436,0.192-0.627c-5.447,3.333-7.167,3.807-8.798,3.424c-1.032-0.239-1.889-0.871-2.411-1.774
				c-1.102-1.906-0.439-3.31,1.005-4.67c-1.251-0.286-2.28-1.036-2.907-2.119c-1.563-2.713,0.809-4.549,2.082-5.535
				c0.811-0.626,1.997-1.517,3.483-2.616c1.593-1.178,3.534-2.601,5.723-4.199c-25.954,16.238-32.659,19.604-35.829,18.818
				c-1.06-0.261-1.936-0.91-2.467-1.83c-0.836-1.449-0.912-2.979-0.025-4.794c-14.819,9.07-21.491,12.04-24.813,11.249
				c-1.207-0.287-2.198-1.012-2.792-2.039c-1.449-2.511-0.465-5.167,4.205-9.532c-0.215,0.094-0.426,0.185-0.633,0.271
				l-19.061,11.005c-0.805,0.463-1.761,0.59-2.655,0.35c-0.896-0.239-1.661-0.827-2.125-1.631c-0.515-0.891-0.645-1.943-0.364-2.967
				c0.313-1.152,0.684-2.514,8.443-7.999c-0.067-0.734,0.1-1.473,0.474-2.105c-5.394,3.268-9.129,5.538-10.037,6.112
				c-0.072,0.049-0.144,0.097-0.216,0.146c-0.806,0.539-1.797,0.722-2.743,0.5c-0.772-0.181-1.456-0.616-1.944-1.229
				c-0.44-0.024-0.77-0.104-1.066-0.175c-0.164-0.039-0.323-0.086-0.479-0.141c-2.029,1.01-3.818,1.856-5.401,2.568
				c-10.419,5.892-15.519,7.8-18.114,7.164c-1.163-0.281-2.119-0.982-2.692-1.977c-0.625-1.083-0.76-2.371-0.377-3.628
				c0.554-1.817,2.564-3.929,6.394-6.621c-0.189-0.977,0.048-1.991,0.646-2.782c-5.838,2.835-9.604,4.23-12.13,4.875l-9.365,5.64
				c-1.626,0.979-3.733,0.485-4.756-1.113c-0.806-1.263-0.702-2.85,0.149-3.984c-2.889,1.447-5.402,2.628-7.594,3.588
				c-8.519,4.986-11.552,5.979-13.444,5.531c-1.056-0.253-1.929-0.897-2.458-1.815c-0.018-0.027-0.032-0.056-0.047-0.084
				c-0.037-0.012-0.073-0.021-0.11-0.034c-3.604,1.582-4.342,1.392-5.096,1.196c-0.964-0.248-1.768-0.854-2.258-1.704
				c-0.025-0.044-0.051-0.088-0.073-0.132c-1.984,0.52-3.588,0.637-4.844,0.354c-1.541-0.347-2.799-1.243-3.54-2.528
				c-0.96-1.664-0.4-3.791,1.256-4.766c2.583-1.521,5.172-3.052,7.77-4.592c4.47-4.83,15.872-11.413,35.795-21.517
				c9.771-5.959,19.279-11.832,28.245-17.454c-5.013,2.926-10.427,6.06-16.288,9.425c-37.211,21.365-74.553,41.745-74.926,41.948
				l-0.034-0.063c-1.233,0.678-1.615,0.591-2.423,0.403c-1.076-0.247-1.951-0.979-2.396-1.948l-0.248,0.15
				c-1.621,0.979-3.729,0.494-4.754-1.1c-0.241-0.375-0.402-0.779-0.486-1.191c-8.257,4.455-12.686,5.965-15.007,5.404
				c-1.181-0.284-2.148-0.995-2.729-2c-0.287-0.498-0.568-1.19-0.635-2.056c-7.777,4.194-11.155,5.229-13.045,4.763
				c-1.073-0.267-1.96-0.923-2.496-1.853c-0.21-0.364-0.351-0.759-0.419-1.165c-1.055-0.548-1.687-1.321-2.052-1.957
				c-0.087-0.148-0.161-0.305-0.225-0.464c-3.265,1.983-6.436,3.914-9.49,5.779C66.997,103.264,66.365,103.438,65.727,103.438z
				 M338.288,86.306c-0.157,0.105-0.313,0.209-0.467,0.313c-0.896,0.598-1.755,1.17-2.577,1.717
				c0.192-0.108,0.388-0.219,0.586-0.331c0.753-0.425,1.566-0.884,2.425-1.369C338.26,86.524,338.271,86.414,338.288,86.306z
				 M133.629,24.389c-58.946,34.68-82.828,50.096-92.359,56.94c4.764-2.589,9.533-5.2,14.261-7.813
				c9.82-6.424,23.855-14.562,42.599-24.99c0.204-0.136,0.405-0.269,0.608-0.402c3.325-2.199,6.469-4.273,9.446-6.233
				C117.821,35.405,126.716,29.24,133.629,24.389z M121.476,50.318C107.98,58.69,94.02,67.612,81.457,75.681
				c25.842-15.176,56.146-33.404,75.492-45.917c-4.138,2.4-8.612,4.99-13.347,7.729C136.896,41.375,129.348,45.743,121.476,50.318z
				 M331.232,64.176c-4.149,2.591-8.785,5.496-13.419,8.462C322.455,69.731,327.067,66.813,331.232,64.176z M74.904,24.037
				C57.049,35.619,39.303,47.753,27.939,56.315c1.574-0.938,3.271-1.929,5.097-2.976c7.311-4.896,15.406-10.665,21.979-15.351
				C62.818,32.43,69.375,27.799,74.904,24.037z M131.69,13.167c-4.111,2.729-12.945,8.572-23.882,15.648
				c2.154-1.24,4.157-2.385,6.027-3.442c6.956-4.711,13.086-8.929,17.686-12.092C131.578,13.244,131.635,13.205,131.69,13.167z
				 M304.042,15.421c-0.943,1.009-2.359,2.057-4.134,3.279c1.42-0.741,2.748-1.421,3.996-2.044c2.097-1.391,3.742-2.558,5.036-3.532
				C307.6,13.704,305.986,14.453,304.042,15.421z"/>
		</g>
		<g>
			<path fill="#111111" d="M376.529,52.318l0.619-0.486c0,0-0.455-0.308-0.91-0.614c-0.456-0.297-0.912-0.595-0.912-0.595
				L376.529,52.318z"/>
			<path fill="#111111" d="M371.977,44.708c-0.282,0.269-0.824,0.238-1.11,0.507c0,0,1.425,0.898,2.816,1.925
				c1.32,1.02,2.642,2.16,2.642,2.16c1.359-1.167-0.104-2.054-1.755-2.697C372.898,45.941,371.131,45.496,371.977,44.708z"/>
			<path fill="#111111" d="M372.279,43.312c0.919-1.986-1.68-2.197-2.527-2.381c0.955,0.078,1.053,0.888,1.116,1.564
				C370.924,43.174,371.048,43.718,372.279,43.312z"/>
			<path fill="#111111" d="M251.276,2.041c0.139-0.014,0.322-0.079,0.461-0.154C251.503,1.813,251.354,1.887,251.276,2.041z"/>
			<path fill="#111111" d="M217.09,10.08l-0.356,1.889c6.377-3.362,13.573,0.058,20.319-1.411l-0.456,0.664
				c17.117,0.734,32.904-2.42,49.889-3.855c-0.265,0.198-0.354,0.756-0.628,0.976c0.819-0.655,1.728-1.863,2.646-1.701
				c0.239,0.423-0.258,0.876-0.553,1.066c3.586,3.121,10.535-1.979,12.776,0.428c1.009-0.332,1.454-1.636,0.893-2.623
				c6.665-0.39,13.483-0.768,20.477-1.282c7.64-0.458,15.537,0.7,23.096,3.256c0.488,0.705,0.179,1.529-0.506,2.371
				c6.892,0.845,13.126,4.986,17.478,10.523c4.415,5.555,7.003,12.395,8.321,19.13c1.427,0.195,1-1.766,2.689-0.757
				c0.289-2.515-1.322-4.319-2.688-5.969c-0.659-0.847-1.44-1.596-1.951-2.464c-0.521-0.864-0.822-1.825-0.755-3.047l1.367-0.121
				c-0.8-3.115-3.107,1.043-3.286-2.479c0.259-1.638,1.548-0.604,1.324-1.152c-0.927-1.373-2.006-2.647-3.005-3.983
				c-0.972-1.36-2.134-2.566-3.306-3.738c-1.14-1.203-2.485-2.18-3.899-2.999c-0.711-0.403-1.418-0.793-2.191-1.069
				c-0.787-0.261-1.595-0.465-2.423-0.597c0.239-1.547-1.122-2.679-2.73-3.6c-0.789-0.487-1.604-0.979-2.274-1.574
				c-0.666-0.602-1.253-1.193-1.5-2.073c-2.035,0.26-3.423-0.787-4.734,0.75c-4.979-2.486-10.572-3.771-16.172-4.108l-2.106-0.081
				l-1.055-0.029c-0.337-0.005-0.603,0.01-0.906,0.014l-3.549,0.104c-2.367,0.102-4.738,0.202-7.114,0.305
				c-9.502,0.465-19.062,1.089-28.633,0.987c-8.959,5.392-19.688-1.042-30.319,0.768c-0.073-0.19-0.062-0.395,0.011-0.552
				C247.81,3.373,242.758,4,238.622,3.336l-3.505,2.277c-24.895-4.686-50.335-1.395-75.621-3.341
				c-28.731-1.345-53.905-5.229-81.887,1.876c0.036-0.522-0.189-0.813,0.533-1.034C70.066,4.203,62.708,2.261,55.104,3.39
				l0.022-0.531c-2.235,0.513-5.046,1.063-7.631,1.544c-1.3,0.343-2.594,0.662-3.887,0.964c-1.291,0.313-2.544,0.79-3.819,1.154
				c-5.039,1.664-9.918,3.897-14.317,6.888c-4.415,2.953-8.243,6.777-11.063,11.134c-2.813,4.351-4.605,9.259-4.906,14.138
				C7.65,44.138,6.889,50.186,7.416,56.247c0.51,6.063,2.345,12.14,5.398,17.564c3.06,5.425,7.345,10.158,12.345,13.757
				c4.998,3.608,10.719,6.063,16.526,7.197l-0.32,1.02c1.209,0.161,2.389,0.394,3.597,0.444c1.2,0.081,2.379,0.265,3.565,0.328
				c1.189,0.029,2.374,0.081,3.557,0.15c1.184,0.067,2.325,0.059,3.487,0.117c4.629,0.188,9.238,0.632,13.846,1.092
				c9.216,0.922,18.426,1.912,27.782,1.059c19.246,2.438,39.578-6.126,58.988-2.876c12.009,5.25,27.782-6.006,39.063-0.563
				c23.175,8.2,45.656,2.922,68.826-1.992c10.688,1.461,21.365,0.314,31.96-0.45c5.298-0.382,10.573-0.67,15.819-0.489
				c2.623,0.091,5.238,0.298,7.844,0.67c1.275,0.196,2.548,0.394,3.818,0.589c1.254,0.203,2.537,0.517,3.833,0.639
				c0.563-0.327,1.124-0.606,1.69-0.842c0.568-0.232,1.144-0.413,1.706-0.654c1.133-0.442,2.316-0.693,3.531-0.925
				c1.191-0.308,2.438-0.518,3.748-0.681c1.269-0.258,2.58-0.511,3.952-0.741c1.345-0.281,2.676-0.685,4.064-1.064
				c1.373-0.406,2.658-1.022,3.989-1.621c0.676-0.289,1.274-0.685,1.878-1.083s1.195-0.82,1.771-1.264
				c0.594-0.426,1.105-0.938,1.59-1.479c0.489-0.536,0.955-1.095,1.39-1.677l-1.272-0.566c0.712-0.048,1.308-0.238,1.744-0.575
				c0.427-0.348,0.738-0.804,0.97-1.315c0.439-1.043,0.642-2.242,0.663-3.442c0.092-2.401,0.19-4.222,3.347-4.053l0.058,0.512
				c1.826-0.305,0.818-2.273-0.324-3.926c-1.198-1.711-2.44-3.104-0.53-3.079l-1.304-0.78c0.213-1.155,0.589-1.11,1.128-0.952
				c0.529,0.155,1.162,0.428,1.688-0.414c0-0.749-2.564-0.975-1.377-2.144c1.51,0.279,2.279,0.025,2.692-0.496
				c0.389-0.524,0.341-1.319,0.345-2.084c-0.003-0.77,0.016-1.516,0.465-2.045c0.459-0.525,1.252-0.861,2.983-0.763
				c-0.038,0.731,0.655,0.228,1.52-0.063c0.852-0.282,1.925-0.362,2.487,1.493c0.825-0.943,0.686-5.947-2.253-5.459
				c-3.112-0.38-5.774-1.956-8.229,0.509l2.231,0.524c-2.299,0.754-1.16,0.587-2.866,0.801c-0.222,1.508-1.136,2.278-2.306,2.844
				c-1.13,0.571-2.368,0.971-3.171,1.777c0.067-0.006,0.132-0.014,0.241,0.037c0.635,0.451,0.954,0.895,1.063,1.31
				c0.121,0.417,0.061,0.813-0.09,1.172c-0.313,0.721-0.931,1.303-1.29,1.734l-1.342-0.002c-1.356-0.131-0.387,0.945,0.392,1.882
				c0.779,0.933,1.392,1.642-0.558,0.396c-0.06,0.705-0.331,1.343-0.52,2.034c-0.226,0.674-0.408,1.391-0.714,2.057
				c-0.666,1.3-1.249,2.724-2.186,3.943c-1.636,2.617-3.958,4.826-6.313,6.86c0.184,0.929-0.829,1.633-1.484,2.33
				c-0.653,0.689-1.087,1.287,0.455,2.314c-0.883-0.568-1.817-0.899-2.729-1.067c-0.91-0.166-1.787-0.146-2.659-0.155
				c-0.854,0.022-1.635,0.152-2.292,0.336c-0.662,0.171-1.244,0.291-1.613,0.479c-0.065-0.352-0.145-0.751,0.146-0.705
				c-1.181-0.875-1.823-0.983-2.281-0.701c-0.447,0.303-0.743,0.854-1.043,1.463c-0.303,0.59-0.635,1.153-1.154,1.256
				c-0.26,0.049-0.563-0.011-0.925-0.256c-0.368-0.275-0.792-0.728-1.27-1.412c0.071,1.056-0.245,1.55-0.773,1.782
				c-0.529,0.223-1.25,0.248-2.015,0.117c-0.763-0.091-1.543-0.148-2.244,0.136c-0.178,0.07-0.343,0.165-0.518,0.281
				c-0.211,0.108-0.413,0.242-0.604,0.408c-0.381,0.331-0.716,0.786-0.985,1.407c-0.471-0.938-0.627-1.785-0.456-2.536
				c-6.865-0.096-14.45-1.618-20.262-1.811c-4.963,3.702-12.02-1.677-16.288,3.438c-3.537-1.083-9.26-3.217-14.198-1.162l0.48-0.627
				c-5.571,0.299-12.53,0.564-16.354,3.781c-1.646-4.897-4.055-3.918-6.463-5.487c-3.72,2.271-11.229,1.604-16.902,3.665
				c-0.87-2.258-4.684,0.959-4.976-2.324c-15.9,6.334-35.563,4.117-52.543-0.668l0.246-0.231c-2.203,1.802-4.742,5.78-6.983,8.104
				c-0.222-0.286-0.195-0.83,0.274-0.813c-3.102,0.609-6.002-2.614-9.1-2.014c0.024-0.544,0.024-0.544,0.526-1.063
				c-2.905,1.461-6.007-2.623-9.438-0.083l-0.191-0.867l-2.182,1.216c0.053-1.083,0.137-2.714,1.303-2.36
				c-26.625-1.06-54.107,4.568-81.444,3.756l1.005-1.029l-5.303,1.843c0.029-0.548,0.281-0.813,0.535-1.059
				c-1.688-0.461-3.392-0.614-5.102-0.593c-0.854,0.011-1.71,0.063-2.566,0.146l-2.35,0.235c-0.747,0.089-1.493,0.178-2.237,0.267
				c-0.749,0.074-1.489,0.028-2.237,0.027c-0.741-0.031-1.498-0.018-2.22-0.155c-0.718-0.152-1.427-0.339-2.112-0.573
				c0.178-0.499,1.254-1.308,0.66-2.075c-0.585,0.226-1.129,0.338-1.604,0.299c-0.471-0.061-0.89-0.215-1.266-0.42
				c-0.751-0.42-1.337-1.004-1.854-1.528c-1.018-1.14-1.852-1.682-4.272,0.52c-0.036-0.356,0.533-1.629,1.122-1.844
				c-5.433-1.85-10.403-5.623-13.904-10.487c-3.478-4.897-5.36-10.85-5.612-16.688c-1.675-2.241-2.51-4.923-2.676-7.657
				c-0.194-2.742,0.292-5.523,1.056-8.212c0.144-0.687,0.414-1.335,0.655-1.993l0.712-1.979c0.502-1.309,1.136-2.561,1.613-3.892
				c0.603-1.268,1.178-2.558,1.675-3.922c0.616-1.281,1.093-2.692,1.586-4.146l0.812,0.754c0.856-1.632,1.773-3.327,3.045-4.726
				l0.93-1.083l0.478-0.535l0.527-0.479c0.71-0.635,1.439-1.257,2.186-1.868c0.738-0.62,1.593-1.077,2.401-1.604
				c0.819-0.514,1.643-1.026,2.545-1.396l2.661-1.179c0.921-0.313,1.855-0.585,2.784-0.869c0.466-0.135,0.925-0.29,1.396-0.405
				l1.434-0.268c0.956-0.164,1.898-0.38,2.856-0.497c1.938-0.123,3.836-0.409,5.762-0.305c0.969,0.017,1.893-0.018,2.884,0.016
				l2.986,0.083c1.99,0.031,3.979,0.011,5.958-0.087c6.582,0.448,11.027-0.863,17.642-0.934l0.166,1.382
				c11.131-5.264,23.396,4.728,35.01-1.063l-0.801,1.88c1.801-2.913,7.024,1.025,6.338-3.959l2.05,1.512
				c7.89-6.592,14.36,3.038,24.029-1.237l-0.637,1.183c2.57-0.917,5.568-1.646,7.474-0.56c-0.298,0.17-0.159,0.519-0.771,0.83
				c8.053,4.686,17.014-0.49,25.509-0.313l-0.964,2.204c4.106-2.586,11.64-0.179,17.037-1.36l-0.329,1.032l2.731-1.461l0.071,2.088
				C203.624,12.126,210.235,10.325,217.09,10.08z"/>
			<path fill="#111111" d="M287.952,7.706c-0.021-0.021-0.051-0.021-0.075-0.066C287.667,7.822,287.769,7.802,287.952,7.706z"/>
			<path fill="#111111" d="M354.816,59.354c0.201-0.214,0.328-0.402,0.533-0.58C354.917,58.743,354.981,59.169,354.816,59.354z"/>
		</g>
	</g>
	<g>
		<path d="M129.369,40.994c0.384-0.479,0.768-0.721,1.152-0.721c0.288,0,0.551,0.098,0.792,0.287
			c0.24,0.192,0.432,0.529,0.576,1.009c0.144,0.48,0.335,1.178,0.575,2.089c0.239,1.296,0.384,2.088,0.433,2.376
			c0.19,0.336,0.384,1.008,0.576,2.016c0.623,2.736,1.055,4.368,1.296,4.896c0.24,0.386,0.396,1.009,0.468,1.872
			s0.18,1.296,0.324,1.296c0.24,0,0.479-0.336,0.72-1.009c0.24-0.671,0.383-1.296,0.432-1.871c0.096-0.624,0.275-1.092,0.54-1.403
			c0.265-0.313,0.396-0.587,0.396-0.828c0-0.288,0.216-1.031,0.647-2.232c0.433-1.199,0.744-1.991,0.937-2.376
			c0.335-0.432,0.814-0.839,1.439-1.224c1.823-1.248,3.456-0.384,4.896,2.592c0.479,1.008,0.839,1.704,1.08,2.088
			c0.384,0.625,0.6,0.984,0.647,1.08c0.384,0.576,0.744,1.225,1.08,1.944c0.624,1.057,1.08,1.823,1.368,2.304
			c0.479,0.673,0.72,1.177,0.72,1.512c0.048,0.288,0.228,0.589,0.54,0.9c0.313,0.313,0.54,0.468,0.685,0.468
			c0.24,0,0.479-0.695,0.72-2.088c0.047-0.911,0.191-1.728,0.433-2.448c0.144-0.671,0.216-1.199,0.216-1.584
			c0-0.479,0.119-0.981,0.359-1.512c0.24-0.527,0.407-1.104,0.504-1.729c0.048-0.527,0.145-0.937,0.288-1.225
			c0.24-0.335,0.407-1.008,0.504-2.016c0.145-1.057,0.384-1.813,0.721-2.27c0.335-0.455,0.792-0.61,1.368-0.468
			c0.383,0.097,0.622,0.216,0.72,0.36c0.096,0.144,0.263,0.553,0.504,1.224c0.479,1.345,0.551,2.425,0.216,3.24
			c-0.192,0.527-0.385,1.224-0.576,2.088c-0.144,0.912-0.313,1.561-0.504,1.944c-0.191,0.385-0.324,1.367-0.396,2.951
			c-0.072,1.584-0.229,2.641-0.469,3.168c-0.24,0.624-0.385,1.151-0.432,1.584c-0.097,0.576-0.252,1.068-0.468,1.477
			s-0.372,0.853-0.468,1.332c-0.098,0.529-0.386,1.044-0.864,1.548c-0.48,0.504-0.96,0.756-1.44,0.756
			c-0.863,0-1.752-0.575-2.664-1.728c-1.584-2.399-2.376-3.672-2.376-3.816c0-0.144-0.12-0.312-0.359-0.504
			c-0.241-0.191-0.408-0.455-0.504-0.792c-0.145-0.384-0.48-0.959-1.009-1.728c-0.625-0.961-1.249-2.112-1.872-3.456
			c-0.769-1.345-1.224-2.018-1.367-2.018c-0.386,0-0.696,0.673-0.937,2.018c-0.144,0.575-0.324,1.104-0.54,1.584
			c-0.216,0.479-0.372,0.911-0.468,1.296c-0.097,0.479-0.169,0.792-0.216,0.936c-0.098,0.097-0.288,0.457-0.576,1.08
			c-0.336,0.529-0.576,0.913-0.72,1.152c-0.048,0.144-0.265,0.673-0.648,1.584c-0.385,0.912-0.745,1.537-1.08,1.872
			c-0.288,0.288-0.432,0.504-0.432,0.646c0,0.146-0.192,0.396-0.576,0.757c-0.385,0.359-0.745,0.611-1.08,0.756
			c-0.385,0.145-0.792,0.098-1.224-0.145c-0.48-0.144-0.816-0.323-1.008-0.54c-0.192-0.216-0.35-0.54-0.469-0.972
			c-0.12-0.433-0.18-1.031-0.18-1.8c-0.048-1.297-0.192-2.137-0.432-2.521c-0.145-0.335-0.288-1.031-0.433-2.088
			c-0.097-1.008-0.264-1.8-0.504-2.376c-0.241-0.576-0.432-1.271-0.576-2.088c-0.048-0.623-0.168-1.319-0.359-2.088
			c-0.386-1.872-0.576-3.097-0.576-3.672c0-0.479-0.072-0.983-0.216-1.513C128.696,42.986,128.744,41.906,129.369,40.994z"/>
		<path d="M166.52,42.146c1.104-0.479,1.943-0.407,2.52,0.217c0.383,0.386,0.504,0.841,0.36,1.367
			c-0.145,0.529-0.552,0.961-1.224,1.297c-0.386,0.24-0.696,0.504-0.937,0.792c-0.144,0.287-0.336,0.553-0.576,0.792
			c-0.097,0.098-0.157,0.217-0.18,0.359c-0.025,0.145-0.036,0.277-0.036,0.396s0.072,0.18,0.216,0.18
			c0.047,0,0.167-0.155,0.36-0.468c0.19-0.313,0.348-0.469,0.468-0.469s0.372-0.12,0.756-0.359c0.335-0.288,0.959-0.576,1.872-0.864
			c0.816-0.384,2.185-0.659,4.104-0.828c1.919-0.167,3.07-0.203,3.456-0.106c0.479,0.144,0.863,0.216,1.151,0.216
			c0.383,0,1.008,0.191,1.872,0.576c0.911,0.479,1.607,1.008,2.088,1.584c0.671,0.862,0.937,2.399,0.792,4.606
			c-0.097,1.395-0.336,2.521-0.72,3.385c-0.385,0.769-0.72,1.416-1.008,1.943c-0.288,0.385-0.9,1.033-1.836,1.944
			c-0.937,0.912-1.477,1.367-1.62,1.367c-0.097,0-0.432,0.288-1.008,0.863c-1.008,0.913-2.592,1.753-4.752,2.521
			c-1.249,0.385-2.641,0.576-4.177,0.576s-2.783-0.265-3.743-0.792c-1.488-0.722-2.568-1.729-3.24-3.024
			c-0.241-0.527-0.433-0.959-0.576-1.296c-0.241-0.384-0.36-1.631-0.36-3.744c0-2.111,0.119-3.552,0.36-4.319
			c1.008-3.84,2.04-6.096,3.096-6.769c0.145-0.145,0.479-0.455,1.008-0.937C165.631,42.722,166.135,42.387,166.52,42.146z
			 M178.184,48.338c-0.386-0.145-0.9-0.239-1.548-0.288c-0.648-0.047-1.142,0.023-1.477,0.216c-0.144,0.049-0.936,0.121-2.376,0.216
			c-1.537,0.049-2.808,0.313-3.815,0.793c-1.009,0.528-1.584,0.792-1.729,0.792c-0.529,0-0.889-0.384-1.08-1.151
			c-0.191-0.672-0.479-0.434-0.864,0.72c-0.72,1.537-1.08,3.265-1.08,5.185c0,1.297,0.083,2.208,0.253,2.735
			c0.167,0.529,0.515,1.033,1.044,1.513c0.527,0.528,1.224,0.863,2.088,1.009c2.207,0.385,4.343-0.023,6.407-1.226
			c0.24-0.144,0.552-0.312,0.937-0.504c0.24-0.144,0.623-0.468,1.152-0.972c0.527-0.504,1.067-1.021,1.619-1.548
			c0.552-0.528,0.925-0.938,1.116-1.226c1.104-1.487,1.656-2.495,1.656-3.022c0-0.623-0.229-1.235-0.684-1.836
			C179.347,49.143,178.807,48.674,178.184,48.338z"/>
		<path d="M198.991,42.002c0.479-0.097,1.536-0.119,3.168-0.072c1.631,0.049,2.567,0.097,2.808,0.146
			c1.009,0.623,1.56,1.487,1.656,2.592c0,0.527-0.169,0.983-0.504,1.368c-0.625,0.769-1.344,0.792-2.16,0.07
			c-0.479-0.287-1.056-0.432-1.728-0.432c-2.257,0-4.104,0.647-5.544,1.944c-1.152,1.104-1.729,1.991-1.729,2.663
			c0,0.288-0.647,1.682-1.943,4.177l-0.721,1.368l-0.216,3.312l-0.144,3.456l-0.433,0.576c-0.528,0.624-1.104,0.899-1.728,0.828
			c-0.624-0.072-1.152-0.42-1.584-1.044c-0.336-0.527-0.576-1.681-0.72-3.456c-0.145-2.929-0.288-4.608-0.433-5.04
			c-0.191-0.239-0.359-0.864-0.504-1.872c-0.241-1.057-0.432-1.752-0.576-2.088c-0.144-0.288-0.216-1.177-0.216-2.664
			c0-1.152,0.072-1.919,0.216-2.305c0.145-0.384,0.407-0.575,0.792-0.575s0.769,0.358,1.152,1.08
			c0.335,0.527,0.695,1.104,1.08,1.728c0.144,0.241,0.36,0.648,0.647,1.225c0.24,0.479,0.492,0.66,0.757,0.54
			c0.263-0.12,0.587-0.563,0.972-1.332c0.479-0.815,0.96-1.535,1.439-2.159c0.191-0.385,0.54-0.805,1.045-1.261
			c0.504-0.456,1.03-0.876,1.584-1.261c0.551-0.384,0.899-0.576,1.044-0.576c0.287-0.095,0.743-0.263,1.367-0.504
			C198.318,42.194,198.703,42.051,198.991,42.002z"/>
		<path d="M210.15,38.906c0.19-0.145,0.479-0.217,0.864-0.217c0.384,0,0.72,0.313,1.008,0.938c0.479,0.912,0.671,2.376,0.576,4.392
			c0,1.584,0,2.952,0,4.104c0,1.775,0.096,2.725,0.288,2.844c0.19,0.12,0.527-0.011,1.008-0.396c0.383-0.288,1.03-0.743,1.943-1.367
			c0.24-0.146,0.601-0.396,1.08-0.757c0.479-0.359,0.768-0.54,0.864-0.54c0.672-0.433,2.279-1.702,4.824-3.815
			c1.487-1.152,2.328-1.8,2.52-1.944c0.097,0,0.204-0.011,0.324-0.035c0.12-0.023,0.252-0.084,0.396-0.181
			c0.144-0.096,0.287-0.167,0.432-0.216c1.104-0.479,1.872-0.551,2.304-0.216c0.768,0.575,1.152,1.296,1.152,2.16
			c0,1.008-0.673,1.654-2.016,1.942c-0.624,0.146-1.249,0.504-1.872,1.08c-0.624,0.576-1.08,0.961-1.368,1.152
			c-0.48,0.191-1.321,0.792-2.521,1.8c-1.249,1.104-2.027,1.704-2.34,1.8c-0.313,0.097-0.54,0.313-0.684,0.648
			c-0.241,0.432,0.19,1.031,1.296,1.8c0.526,0.337,1.392,1.224,2.592,2.664c1.248,1.537,2.376,2.735,3.384,3.6
			c0.911,0.817,1.487,1.417,1.729,1.801c0.238,0.386,0.312,0.816,0.216,1.297c-0.241,0.673-0.66,1.128-1.26,1.367
			c-0.602,0.24-1.188,0.168-1.765-0.217c-1.439-0.911-3.456-2.831-6.048-5.76c-0.864-0.911-1.537-1.535-2.016-1.872
			c-0.433-0.288-0.721-0.623-0.864-1.008c-0.385-0.769-0.864-1.199-1.44-1.296c-0.144,0-0.349,0.061-0.611,0.18
			c-0.266,0.121-0.493,0.277-0.685,0.468c-0.191,0.192-0.336,0.36-0.432,0.505c-0.144,0.192-0.216,1.151-0.216,2.88v2.664
			l-0.648,0.575c-0.72,0.625-1.487,0.603-2.304-0.07c-0.48-0.479-0.84-1.415-1.08-2.81c-0.144-1.199-0.097-4.583,0.144-10.151
			c0.048-3.601,0.155-5.986,0.324-7.163C209.417,40.358,209.719,39.481,210.15,38.906z"/>
		<path d="M237.726,39.914c3.6-0.191,6.144-0.097,7.632,0.288c0.384,0.048,0.839,0.349,1.368,0.898
			c0.526,0.553,0.756,1.093,0.684,1.62c-0.072,0.529-0.468,1.105-1.188,1.729c-0.77,0.769-1.296,1.104-1.584,1.008
			c-0.241-0.047-0.396-0.097-0.469-0.146c-0.071-0.047-0.18-0.144-0.323-0.287c-0.145-0.145-0.266-0.336-0.36-0.575
			c-0.097-0.24-0.241-0.601-0.432-1.08l-0.576-1.368h-0.864c-0.528,0.097-1.296,0.288-2.304,0.576
			c-0.961,0.385-1.609,0.815-1.944,1.296c-0.432,0.815-0.432,1.704,0,2.664c0.384,0.815,1.271,1.344,2.664,1.584
			c0.528,0.097,0.972,0.18,1.332,0.252c0.36,0.071,0.684,0.169,0.972,0.288s0.576,0.252,0.864,0.396
			c0.288,0.146,0.54,0.337,0.756,0.576c0.216,0.241,0.492,0.504,0.828,0.792c1.152,1.057,1.8,1.681,1.944,1.872
			c0.288,0.288,0.623,0.815,1.008,1.584c0.479,0.769,0.647,1.537,0.504,2.304c-0.241,2.209-1.368,4.248-3.384,6.12
			c-0.433,0.385-0.77,0.721-1.008,1.008c-0.241,0.241-0.493,0.36-0.757,0.36s-0.588,0.145-0.972,0.432
			c-0.479,0.241-1.128,0.36-1.944,0.36c-0.768,0-1.465-0.119-2.088-0.36c-0.528-0.189-1.032-0.335-1.512-0.432
			c-0.528-0.096-1.355-0.659-2.484-1.692c-1.128-1.03-1.836-1.883-2.124-2.556c-0.24-0.72,0.072-1.271,0.937-1.656
			c0.528-0.288,1.044-0.335,1.548-0.144s0.887,0.288,1.152,0.288c0.263,0,0.623,0.191,1.08,0.575
			c0.456,0.386,0.756,0.816,0.899,1.297c0.191,0.191,0.419,0.385,0.685,0.575c0.263,0.192,0.587,0.35,0.972,0.469
			c0.384,0.12,0.768,0.155,1.152,0.106c1.296-0.189,2.016-0.671,2.159-1.438c0.145-0.433,0.336-0.815,0.576-1.152
			c0.335-0.288,0.504-0.888,0.504-1.8c0-0.911-0.18-1.656-0.54-2.232c-0.359-0.575-0.539-1.055-0.539-1.438
			c0-0.576-0.505-0.864-1.513-0.864c-1.92,0-3.553-0.407-4.896-1.224c-0.192-0.146-0.48-0.313-0.864-0.504
			c-0.385-0.191-0.876-0.637-1.476-1.332c-0.602-0.695-0.973-1.235-1.116-1.62c-0.192-0.479-0.313-0.744-0.36-0.792
			c-0.241-0.24-0.241-0.805,0-1.692c0.239-0.888,0.551-1.571,0.937-2.052c0.671-0.815,1.392-1.584,2.159-2.305
			C235.805,40.202,236.573,40.011,237.726,39.914z"/>
	</g>
</g>
</svg>
