<?xml version="1.0" encoding="utf-8"?>
<!-- Generator: Adobe Illustrator 16.0.0, SVG Export Plug-In . SVG Version: 6.00 Build 0)  -->
<!DOCTYPE svg PUBLIC "-//W3C//DTD SVG 1.1//EN" "http://www.w3.org/Graphics/SVG/1.1/DTD/svg11.dtd">
<svg version="1.1" id="Layer_1" xmlns="http://www.w3.org/2000/svg" xmlns:xlink="http://www.w3.org/1999/xlink" x="0px" y="0px"
	 width="377.148px" height="103.438px" viewBox="0 0 377.148 103.438" enable-background="new 0 0 377.148 103.438"
	 xml:space="preserve">
<g>
	<g>
		<g>
			<path fill="#FFFFFF" d="M65.727,103.438c-0.29,0-0.58-0.036-0.865-0.107c-0.914-0.233-1.695-0.825-2.167-1.643
				c-1.724-2.985,1.191-4.829,2.757-5.818c1.084-0.687,2.688-1.666,4.736-2.9c0.301-0.181,0.612-0.368,0.936-0.563
				c-2.76,0.706-3.914,0.439-4.792,0.235c-1.379-0.318-2.501-1.121-3.159-2.26c-0.499-0.865-0.587-1.854-0.324-2.742
				c-21.082,13.521-21.361,13.456-23.302,12.982c-0.93-0.227-1.762-0.846-2.24-1.675c-1.019-1.763-0.738-3.298,0.904-5.138
				c-0.032-0.051-0.064-0.103-0.096-0.156c-0.082-0.143-0.164-0.3-0.24-0.473c-2.287,0.745-3.965,0.932-5.207,0.64
				c-1.288-0.304-2.342-1.068-2.97-2.155c-0.474-0.82-0.594-1.798-0.335-2.709c0.112-0.395,0.292-0.762,0.526-1.086
				c-0.322-0.348-0.568-0.7-0.755-1.022c-0.424-0.735-0.63-1.441-0.587-2.171c-2.237,1.384-4.414,2.732-6.523,4.044
				c-0.805,0.499-1.778,0.651-2.698,0.421c-0.919-0.229-1.706-0.824-2.18-1.645c-1.762-3.053,1.095-4.835,3.39-6.27
				c1.43-0.894,3.544-2.167,6.463-3.894c0.933-0.553,1.927-1.139,2.981-1.757c0.225-0.14,0.451-0.278,0.681-0.421
				c-0.082-0.115-0.156-0.23-0.222-0.344c-8.003,3.602-9.925,3.152-11.183,2.859c-1.291-0.3-2.344-1.06-2.966-2.136
				c-0.031-0.055-0.06-0.106-0.088-0.159c-0.816,0.186-1.401,0.139-1.982,0.001c-1.031-0.241-1.887-0.871-2.407-1.773
				c-0.593-1.025-0.758-2.243-0.474-3.449c-0.803-0.429-1.464-1.062-1.922-1.854c-0.999-1.729-0.75-3.47,0.699-5.547
				c-3.469,1.501-5.566,1.899-6.945,1.566c-1.125-0.273-2.052-0.957-2.608-1.923c-1.781-3.084,0.843-4.833,5.188-7.729
				c2.685-1.789,6.469-4.226,10.852-7.045c1.879-1.209,4.125-2.654,6.597-4.255c-0.387,0.025-0.777-0.009-1.158-0.11
				c-0.896-0.24-1.661-0.827-2.125-1.631c-0.086-0.149-0.162-0.297-0.228-0.44c-2.322,0.727-3.286,0.516-4.052,0.348
				c-1.253-0.273-2.278-1.009-2.89-2.065c-0.825-1.429-0.54-3.24,0.685-4.347c4.825-4.362,9.86-8.998,14.189-13.069
				c-0.357-0.294-0.665-0.651-0.899-1.06c-1.854-3.21,1.316-5.418,4.986-7.977c0.061-0.041,0.121-0.084,0.183-0.126
				c-0.679-0.071-1.354,0.053-1.906,0.353c0.26-0.142,1.527-0.909,2.645-1.589c8.736-5.301,9.076-5.511,10.813-5.061
				c0.912,0.233,1.705,0.834,2.176,1.648c0.749,1.304,0.66,2.348,0.135,3.229c0.445,2.176-1.503,4.134-4.877,7.525
				c-0.685,0.688-1.458,1.453-2.316,2.289c1.135-0.694,2.319-1.418,3.554-2.173c10.803-6.59,21.778-13.21,21.887-13.275
				c1.052-0.635,2.308-0.652,3.34-0.15c0.66-0.286,1.398-0.366,2.113-0.217c0.976,0.203,1.817,0.813,2.316,1.676
				c1.401,2.43,0.314,4.603-2.953,7.371c0.55,1.525,0.231,3.192-1.709,5.567c12.523-7.967,12.836-7.891,14.553-7.47
				c0.929,0.227,1.757,0.845,2.235,1.673c0.782,1.355,0.557,3.025-0.462,4.126c8.894-5.603,14.106-7.814,17.38-7.099
				c1.413,0.308,2.572,1.137,3.263,2.333c0,0.001,0,0.001,0,0.001c2.779-0.99,4.833-1.299,6.295-0.955
				c1.337,0.313,2.432,1.104,3.08,2.229c0.282,0.489,0.45,0.955,0.52,1.402l16.354-10.664c1.612-1.053,3.771-0.604,4.832,1.003
				c0.948,1.436,0.701,3.314-0.505,4.463c7.64-5.24,7.797-5.202,9.268-4.873c0.952,0.216,1.775,0.821,2.265,1.667
				c1.385,2.398,0.153,4.536-2.909,7.129c0.439,0.894,0.456,1.674,0.231,2.347c2.707-1.931,4.264-3.057,4.325-3.102
				c0.804-0.581,1.814-0.795,2.783-0.588c0.69,0.146,1.313,0.498,1.794,0.998c3.591-1.62,5.855-2.104,7.379-1.742
				c1.187,0.28,2.162,0.992,2.747,2.005c0.447,0.774,0.601,1.669,0.441,2.553l18.04-10.415c1.675-0.967,3.813-0.393,4.78,1.281
				c1.654,2.864-0.578,4.557-3.453,6.374c0.073,0.105,0.143,0.214,0.208,0.326c0.351,0.606,0.521,1.202,0.546,1.782
				c7.833-4.424,12.801-7.164,12.92-7.23c1.64-0.903,3.701-0.356,4.677,1.241c0.976,1.599,0.521,3.682-1.033,4.728
				c-0.11,0.074-4.334,2.915-11.188,7.453c7.72-4.301,12.837-6.98,16.292-8.633c8.517-5.435,9.186-5.275,10.683-4.927
				c0.943,0.22,1.827,0.868,2.312,1.707c0.064,0.113,0.125,0.229,0.177,0.351c2.021-0.849,3.166-0.963,4.114-0.738
				c1.042,0.245,1.905,0.883,2.431,1.791c0.146,0.253,0.262,0.519,0.35,0.792c0.126,0.018,0.247,0.039,0.361,0.067
				c1.068,0.265,1.951,0.92,2.485,1.845c0.225,0.39,0.388,0.807,0.488,1.239C243.111,7.696,250.065,4.7,253.22,5.466
				c0.551,0.133,1.057,0.357,1.499,0.664c13.773-6.499,16.977-5.772,18.847-5.349c0.333,0.076,0.64,0.172,0.923,0.28
				c3.201-0.813,5.217-0.824,6.625-0.502c2.157,0.493,3.27,1.741,3.824,2.7c0.632,1.095,0.876,2.199,0.397,3.569
				c3.188-1.164,5.602-1.533,7.376-1.133c0.497,0.111,0.965,0.28,1.395,0.502c0.707-0.054,1.33-0.02,1.878,0.104
				c1.372,0.311,2.494,1.117,3.161,2.272c0.129,0.225,0.234,0.445,0.317,0.666c1.572-0.744,2.448-1.155,2.501-1.182
				c0.609-0.285,1.262-0.381,1.888-0.309c6.285-2.869,10.435-3.941,12.86-3.361c1.389,0.332,2.52,1.15,3.186,2.305
				c0.59,1.022,0.781,2.228,0.555,3.441c1.74-0.269,2.622-0.066,3.298,0.09c1.433,0.33,2.596,1.159,3.273,2.334
				c0.924,1.603,0.442,3.646-1.098,4.668l-26.17,17.336c8.528-5.08,16.379-9.743,22.819-13.563
				c17.535-11.077,17.92-10.983,19.697-10.544c0.741,0.182,1.419,0.612,1.905,1.202c3.854-1.709,6.241-2.224,7.751-1.862
				c1.152,0.28,2.102,0.977,2.671,1.963c0.499,0.864,0.626,1.881,0.358,2.863c-0.251,0.923-0.896,1.895-2.963,3.533
				c-0.195,0.281-0.413,0.569-0.65,0.861c0.465,1.548-0.329,2.707-1.548,3.717l0.011,0.017c-0.011,0.007-0.06,0.038-0.146,0.094
				c-0.634,0.508-1.369,0.979-2.097,1.446c-0.408,0.261-0.867,0.553-1.376,0.875c0.394,0.875,0.406,1.673,0.133,2.432
				c8.753-5.014,14.364-8.193,14.494-8.267l0.016,0.026c1.182-0.69,1.534-0.61,2.486-0.396c1.409,0.321,2.477,1.475,2.687,2.904
				c0.206,1.405-0.458,2.794-1.675,3.518c-0.305,0.201-1.266,0.862-2.774,1.899c-2.153,1.479-4.271,2.93-6.344,4.344
				c0.719,1.593,0.148,3.504-1.381,4.429c-31.341,18.965-64.349,40.288-81.074,52.79c11.906-6.946,29.071-18.18,41.971-26.621
				c37.375-24.458,44.62-28.601,48.437-27.688c1.091,0.26,1.993,0.923,2.538,1.866c2.179,3.775-1.974,6.834-9.501,11.916
				c-1.468,0.991-3.088,2.058-4.829,3.185c16.842-10.453,19.27-11.302,21.445-10.761c1,0.244,1.829,0.863,2.335,1.741
				c1.735,3.004-0.958,5.226-4.687,8.3c-2.451,2.021-5.946,4.741-10.685,8.316c-1.514,1.144-3.1,2.331-4.736,3.55
				c0.643,0.346,1.175,0.858,1.548,1.505c0.373,0.648,0.575,1.28,0.592,1.93c3.885-2.042,5.85-2.459,7.427-2.09
				c1.123,0.262,2.05,0.939,2.61,1.91c1.083,1.875,0.748,3.466-1.485,5.818c0.293,0.253,0.545,0.556,0.743,0.898
				c0.511,0.886,0.641,1.93,0.365,2.938c-0.33,1.208-1.187,2.388-3.98,4.426c-0.294,0.62-0.773,1.161-1.413,1.531l-33.313,19.233
				c-0.805,0.463-1.76,0.589-2.656,0.35c-0.896-0.24-1.661-0.827-2.125-1.631c-0.467-0.81-0.593-1.8-0.347-2.701
				c0.063-0.231,0.118-0.436,0.192-0.627c-5.447,3.333-7.167,3.807-8.798,3.424c-1.032-0.239-1.889-0.871-2.411-1.774
				c-1.102-1.906-0.439-3.31,1.004-4.67c-1.251-0.286-2.28-1.036-2.907-2.119c-1.563-2.713,0.809-4.549,2.082-5.535
				c0.811-0.626,1.997-1.517,3.483-2.616c1.593-1.178,3.534-2.601,5.723-4.199c-25.955,16.238-32.66,19.604-35.83,18.818
				c-1.059-0.261-1.935-0.91-2.466-1.83c-0.836-1.449-0.912-2.979-0.026-4.794c-14.819,9.07-21.491,12.04-24.813,11.249
				c-1.207-0.287-2.198-1.012-2.792-2.039c-1.45-2.511-0.465-5.167,4.205-9.532c-0.214,0.094-0.425,0.185-0.632,0.271
				l-19.061,11.005c-0.804,0.463-1.761,0.59-2.655,0.35c-0.897-0.239-1.661-0.827-2.125-1.631c-0.515-0.891-0.644-1.943-0.364-2.967
				c0.313-1.152,0.684-2.514,8.443-7.999c-0.067-0.734,0.1-1.473,0.474-2.105c-5.393,3.268-9.128,5.538-10.037,6.112
				c-0.072,0.049-0.144,0.097-0.216,0.146c-0.805,0.539-1.796,0.722-2.743,0.5c-0.772-0.181-1.457-0.616-1.945-1.229
				c-0.44-0.024-0.77-0.104-1.066-0.175c-0.164-0.039-0.323-0.086-0.478-0.141c-2.029,1.01-3.818,1.856-5.401,2.568
				c-10.419,5.892-15.519,7.8-18.115,7.164c-1.163-0.281-2.119-0.982-2.692-1.977c-0.625-1.083-0.759-2.371-0.377-3.628
				c0.554-1.817,2.564-3.929,6.394-6.621c-0.189-0.977,0.047-1.991,0.646-2.782c-5.838,2.835-9.604,4.23-12.13,4.875l-9.365,5.64
				c-1.625,0.979-3.733,0.485-4.755-1.113c-0.806-1.263-0.703-2.85,0.149-3.984c-2.889,1.447-5.402,2.628-7.594,3.588
				c-8.518,4.986-11.551,5.979-13.444,5.531c-1.055-0.253-1.928-0.897-2.458-1.815c-0.017-0.027-0.032-0.056-0.047-0.084
				c-0.037-0.012-0.073-0.021-0.11-0.034c-3.604,1.582-4.342,1.392-5.096,1.196c-0.964-0.248-1.768-0.854-2.258-1.704
				c-0.025-0.044-0.051-0.088-0.074-0.132c-1.984,0.52-3.588,0.637-4.844,0.354c-1.541-0.347-2.799-1.243-3.54-2.528
				c-0.96-1.664-0.4-3.791,1.255-4.766c2.583-1.521,5.172-3.052,7.77-4.592c4.468-4.83,15.872-11.413,35.795-21.517
				c9.771-5.959,19.279-11.832,28.245-17.454c-5.013,2.926-10.427,6.06-16.288,9.425c-37.211,21.365-74.553,41.745-74.926,41.948
				l-0.035-0.063c-1.233,0.678-1.616,0.591-2.423,0.403c-1.076-0.247-1.951-0.979-2.396-1.948l-0.248,0.15
				c-1.621,0.979-3.729,0.494-4.753-1.1c-0.241-0.375-0.402-0.779-0.487-1.191c-8.257,4.455-12.686,5.965-15.007,5.404
				c-1.18-0.284-2.148-0.995-2.729-2c-0.287-0.498-0.57-1.19-0.635-2.056c-7.777,4.194-11.155,5.229-13.045,4.763
				c-1.074-0.267-1.96-0.923-2.496-1.853c-0.21-0.364-0.351-0.759-0.419-1.165c-1.054-0.548-1.686-1.321-2.052-1.957
				c-0.086-0.148-0.161-0.305-0.225-0.464c-3.264,1.983-6.435,3.914-9.491,5.779C66.996,103.264,66.365,103.438,65.727,103.438z
				 M338.288,86.306c-0.157,0.105-0.313,0.209-0.467,0.313c-0.896,0.598-1.754,1.17-2.577,1.717
				c0.192-0.108,0.388-0.219,0.586-0.331c0.753-0.425,1.567-0.884,2.425-1.369C338.26,86.524,338.271,86.414,338.288,86.306z
				 M133.629,24.389c-58.946,34.68-82.828,50.096-92.359,56.94c4.764-2.589,9.533-5.2,14.26-7.813
				c9.821-6.424,23.854-14.562,42.599-24.99c0.204-0.136,0.406-0.269,0.609-0.402c3.325-2.199,6.469-4.273,9.446-6.233
				C117.82,35.405,126.716,29.24,133.629,24.389z M121.476,50.318c-13.497,8.372-27.456,17.294-40.02,25.363
				c25.842-15.176,56.146-33.404,75.492-45.917c-4.138,2.4-8.612,4.99-13.347,7.729C136.896,41.375,129.348,45.743,121.476,50.318z
				 M331.232,64.176c-4.149,2.591-8.786,5.496-13.419,8.462C322.454,69.731,327.067,66.813,331.232,64.176z M74.903,24.037
				c-17.854,11.582-35.6,23.716-46.964,32.277c1.574-0.938,3.271-1.929,5.097-2.976c7.311-4.896,15.406-10.665,21.979-15.351
				C62.818,32.43,69.375,27.799,74.903,24.037z M131.689,13.167c-4.111,2.729-12.945,8.572-23.882,15.648
				c2.154-1.24,4.158-2.385,6.028-3.442c6.956-4.711,13.086-8.929,17.686-12.092C131.577,13.244,131.635,13.205,131.689,13.167z
				 M304.042,15.421c-0.943,1.009-2.36,2.057-4.134,3.279c1.419-0.741,2.748-1.421,3.996-2.044c2.097-1.391,3.742-2.558,5.036-3.532
				C307.6,13.704,305.986,14.453,304.042,15.421z"/>
		</g>
		<g>
			<path fill="#111111" d="M376.529,52.318l0.619-0.486c0,0-0.455-0.308-0.911-0.614c-0.456-0.297-0.912-0.595-0.912-0.595
				L376.529,52.318z"/>
			<path fill="#111111" d="M371.977,44.708c-0.282,0.269-0.824,0.238-1.111,0.507c0,0,1.425,0.898,2.816,1.925
				c1.32,1.02,2.642,2.16,2.642,2.16c1.359-1.167-0.104-2.054-1.754-2.697C372.897,45.941,371.131,45.496,371.977,44.708z"/>
			<path fill="#111111" d="M372.278,43.312c0.919-1.986-1.68-2.197-2.527-2.381c0.955,0.078,1.052,0.888,1.116,1.564
				C370.924,43.174,371.048,43.718,372.278,43.312z"/>
			<path fill="#111111" d="M251.275,2.041c0.139-0.014,0.323-0.079,0.461-0.154C251.503,1.813,251.354,1.887,251.275,2.041z"/>
			<path fill="#111111" d="M217.09,10.08l-0.356,1.889c6.377-3.362,13.574,0.058,20.32-1.411l-0.456,0.664
				c17.117,0.734,32.904-2.42,49.889-3.855c-0.265,0.198-0.354,0.756-0.628,0.976c0.819-0.655,1.728-1.863,2.646-1.701
				c0.239,0.423-0.257,0.876-0.553,1.066c3.586,3.121,10.535-1.979,12.777,0.428c1.009-0.332,1.454-1.636,0.892-2.623
				c6.665-0.39,13.484-0.768,20.477-1.282c7.64-0.458,15.537,0.7,23.096,3.256c0.489,0.705,0.179,1.529-0.505,2.371
				c6.891,0.845,13.125,4.986,17.477,10.523c4.416,5.555,7.003,12.395,8.321,19.13c1.427,0.195,1-1.766,2.689-0.757
				c0.29-2.515-1.322-4.319-2.688-5.969c-0.66-0.847-1.441-1.596-1.952-2.464c-0.521-0.864-0.822-1.825-0.754-3.047l1.367-0.121
				c-0.8-3.115-3.108,1.043-3.286-2.479c0.258-1.638,1.547-0.604,1.324-1.152c-0.927-1.373-2.005-2.647-3.004-3.983
				c-0.972-1.36-2.133-2.566-3.306-3.738c-1.14-1.203-2.485-2.18-3.899-2.999c-0.711-0.403-1.418-0.793-2.192-1.069
				c-0.787-0.261-1.595-0.465-2.423-0.597c0.24-1.547-1.122-2.679-2.729-3.6c-0.79-0.487-1.604-0.979-2.275-1.574
				c-0.667-0.602-1.253-1.193-1.5-2.073c-2.035,0.26-3.423-0.787-4.734,0.75c-4.978-2.486-10.572-3.771-16.171-4.108l-2.107-0.081
				l-1.055-0.029c-0.337-0.005-0.602,0.01-0.906,0.014l-3.549,0.104c-2.367,0.102-4.738,0.202-7.114,0.305
				c-9.502,0.465-19.062,1.089-28.632,0.987c-8.96,5.392-19.688-1.042-30.32,0.768c-0.073-0.19-0.061-0.395,0.011-0.552
				C247.81,3.373,242.758,4,238.621,3.336l-3.504,2.277c-24.895-4.686-50.335-1.395-75.621-3.341
				c-28.732-1.345-53.905-5.229-81.887,1.876c0.036-0.522-0.19-0.813,0.533-1.034C70.065,4.203,62.708,2.261,55.104,3.39
				l0.022-0.531c-2.235,0.513-5.045,1.063-7.631,1.544c-1.299,0.343-2.594,0.662-3.887,0.964c-1.291,0.313-2.544,0.79-3.819,1.154
				c-5.04,1.664-9.918,3.897-14.318,6.888c-4.415,2.953-8.243,6.777-11.063,11.134c-2.815,4.351-4.605,9.259-4.906,14.138
				c-1.853,5.459-2.613,11.507-2.087,17.568c0.51,6.063,2.344,12.14,5.399,17.564c3.06,5.425,7.344,10.158,12.345,13.757
				c4.998,3.608,10.718,6.063,16.526,7.197l-0.321,1.02c1.209,0.161,2.389,0.394,3.597,0.444c1.2,0.081,2.379,0.265,3.565,0.328
				c1.189,0.029,2.374,0.081,3.557,0.15c1.183,0.067,2.325,0.059,3.487,0.117c4.629,0.188,9.238,0.632,13.846,1.092
				c9.215,0.922,18.425,1.912,27.782,1.059c19.246,2.438,39.578-6.126,58.988-2.876c12.009,5.25,27.783-6.006,39.063-0.563
				c23.175,8.2,45.656,2.922,68.826-1.992c10.688,1.461,21.366,0.314,31.96-0.45c5.297-0.382,10.573-0.67,15.819-0.489
				c2.623,0.091,5.238,0.298,7.844,0.67c1.275,0.196,2.548,0.394,3.818,0.589c1.253,0.203,2.537,0.517,3.833,0.639
				c0.562-0.327,1.124-0.606,1.69-0.842c0.568-0.232,1.144-0.413,1.706-0.654c1.133-0.442,2.316-0.693,3.532-0.925
				c1.191-0.308,2.438-0.518,3.748-0.681c1.269-0.258,2.581-0.511,3.952-0.741c1.345-0.281,2.676-0.685,4.064-1.064
				c1.374-0.406,2.659-1.022,3.99-1.621c0.675-0.289,1.274-0.685,1.878-1.083s1.195-0.82,1.771-1.264
				c0.594-0.426,1.105-0.938,1.59-1.479c0.489-0.536,0.955-1.095,1.39-1.677l-1.273-0.566c0.712-0.048,1.308-0.238,1.746-0.575
				c0.426-0.348,0.737-0.804,0.969-1.315c0.439-1.043,0.642-2.242,0.663-3.442c0.091-2.401,0.19-4.222,3.347-4.053l0.058,0.512
				c1.826-0.305,0.818-2.273-0.324-3.926c-1.198-1.711-2.44-3.104-0.53-3.079l-1.304-0.78c0.213-1.155,0.589-1.11,1.128-0.952
				c0.53,0.156,1.164,0.428,1.688-0.414c0-0.749-2.565-0.975-1.377-2.144c1.509,0.279,2.279,0.025,2.692-0.496
				c0.389-0.524,0.34-1.319,0.345-2.084c-0.003-0.77,0.015-1.516,0.464-2.045c0.459-0.525,1.252-0.861,2.984-0.763
				c-0.039,0.731,0.655,0.228,1.52-0.063c0.851-0.282,1.925-0.362,2.487,1.493c0.825-0.943,0.686-5.947-2.253-5.459
				c-3.113-0.38-5.774-1.956-8.229,0.509l2.232,0.524c-2.299,0.754-1.16,0.587-2.867,0.801c-0.222,1.508-1.135,2.278-2.305,2.844
				c-1.13,0.571-2.368,0.971-3.171,1.777c0.067-0.006,0.132-0.014,0.241,0.037c0.635,0.451,0.955,0.895,1.063,1.31
				c0.121,0.417,0.06,0.813-0.09,1.172c-0.313,0.721-0.931,1.303-1.29,1.734l-1.342-0.002c-1.356-0.131-0.387,0.945,0.392,1.883
				c0.779,0.932,1.391,1.641-0.558,0.396c-0.06,0.705-0.331,1.343-0.52,2.034c-0.226,0.674-0.408,1.391-0.714,2.057
				c-0.666,1.3-1.249,2.724-2.185,3.943c-1.637,2.617-3.958,4.826-6.313,6.861c0.184,0.928-0.829,1.632-1.484,2.329
				c-0.653,0.689-1.086,1.287,0.455,2.314c-0.883-0.568-1.817-0.899-2.729-1.067c-0.91-0.166-1.787-0.146-2.659-0.155
				c-0.854,0.022-1.635,0.152-2.292,0.336c-0.662,0.171-1.244,0.291-1.613,0.479c-0.065-0.352-0.145-0.751,0.146-0.705
				c-1.181-0.875-1.823-0.983-2.281-0.701c-0.447,0.303-0.744,0.854-1.043,1.463c-0.303,0.59-0.635,1.153-1.155,1.256
				c-0.259,0.049-0.563-0.011-0.925-0.256c-0.368-0.275-0.792-0.728-1.269-1.412c0.071,1.056-0.246,1.55-0.774,1.782
				c-0.529,0.223-1.25,0.248-2.014,0.117c-0.763-0.091-1.543-0.148-2.244,0.137c-0.178,0.069-0.343,0.164-0.518,0.28
				c-0.211,0.108-0.412,0.242-0.604,0.408c-0.381,0.331-0.716,0.786-0.985,1.407c-0.471-0.938-0.627-1.785-0.456-2.536
				c-6.865-0.096-14.451-1.618-20.262-1.81c-4.963,3.701-12.02-1.678-16.288,3.437c-3.537-1.083-9.26-3.217-14.198-1.162l0.48-0.627
				c-5.571,0.299-12.53,0.564-16.352,3.781c-1.647-4.897-4.056-3.918-6.464-5.487c-3.72,2.271-11.228,1.604-16.902,3.665
				c-0.87-2.258-4.684,0.959-4.976-2.324c-15.9,6.334-35.563,4.117-52.542-0.668l0.246-0.231c-2.204,1.802-4.743,5.78-6.984,8.104
				c-0.222-0.286-0.195-0.83,0.274-0.813c-3.101,0.609-6.001-2.614-9.099-2.014c0.024-0.544,0.024-0.544,0.526-1.063
				c-2.905,1.461-6.007-2.623-9.438-0.083l-0.191-0.867l-2.182,1.216c0.053-1.083,0.137-2.714,1.303-2.36
				c-26.625-1.06-54.107,4.568-81.443,3.756l1.003-1.029l-5.302,1.843c0.029-0.548,0.281-0.813,0.535-1.059
				c-1.688-0.461-3.392-0.614-5.101-0.593c-0.854,0.011-1.71,0.063-2.566,0.146l-2.35,0.235c-0.748,0.089-1.494,0.178-2.237,0.267
				c-0.75,0.074-1.49,0.028-2.236,0.027c-0.743-0.031-1.499-0.018-2.221-0.155c-0.718-0.152-1.427-0.339-2.112-0.573
				c0.177-0.499,1.254-1.308,0.659-2.075c-0.584,0.226-1.128,0.338-1.604,0.299c-0.47-0.061-0.89-0.215-1.266-0.42
				c-0.751-0.42-1.337-1.004-1.854-1.528c-1.016-1.14-1.851-1.682-4.272,0.52c-0.035-0.356,0.533-1.629,1.123-1.844
				c-5.433-1.85-10.403-5.623-13.905-10.486c-3.477-4.898-5.36-10.851-5.612-16.688c-1.675-2.241-2.51-4.923-2.676-7.657
				c-0.195-2.742,0.292-5.523,1.055-8.212c0.145-0.687,0.415-1.335,0.656-1.993l0.712-1.979c0.502-1.309,1.135-2.561,1.614-3.892
				c0.602-1.268,1.176-2.558,1.673-3.922c0.617-1.281,1.093-2.692,1.586-4.146l0.811,0.754c0.857-1.632,1.773-3.327,3.045-4.726
				l0.93-1.083l0.477-0.535l0.527-0.479c0.71-0.635,1.44-1.257,2.186-1.868c0.738-0.62,1.593-1.077,2.402-1.604
				c0.82-0.514,1.643-1.026,2.544-1.396l2.662-1.179c0.921-0.312,1.855-0.585,2.784-0.869c0.466-0.135,0.925-0.29,1.396-0.405
				l1.434-0.268c0.957-0.164,1.898-0.38,2.856-0.497c1.937-0.123,3.836-0.409,5.762-0.305c0.968,0.017,1.893-0.018,2.884,0.016
				l2.986,0.083c1.99,0.031,3.978,0.011,5.958-0.087c6.582,0.448,11.027-0.863,17.641-0.934l0.166,1.382
				c11.131-5.264,23.396,4.728,35.01-1.063l-0.801,1.88c1.801-2.913,7.024,1.025,6.337-3.959l2.05,1.512
				c7.89-6.592,14.36,3.038,24.029-1.237l-0.636,1.183c2.57-0.917,5.568-1.646,7.473-0.56c-0.297,0.17-0.159,0.519-0.771,0.83
				c8.052,4.686,17.014-0.49,25.508-0.313l-0.963,2.204c4.106-2.586,11.64-0.179,17.037-1.36l-0.329,1.032l2.731-1.461l0.071,2.088
				C203.624,12.126,210.234,10.325,217.09,10.08z"/>
			<path fill="#111111" d="M287.951,7.706c-0.02-0.021-0.051-0.021-0.075-0.066C287.667,7.822,287.769,7.802,287.951,7.706z"/>
			<path fill="#111111" d="M354.816,59.354c0.201-0.214,0.328-0.402,0.533-0.58C354.917,58.743,354.981,59.169,354.816,59.354z"/>
		</g>
	</g>
	<g>
		<path d="M100,42.195c0.385-0.479,0.768-0.72,1.152-0.72c0.288,0,0.551,0.097,0.792,0.287c0.24,0.192,0.432,0.529,0.576,1.009
			c0.144,0.48,0.335,1.177,0.576,2.088c0.238,1.296,0.383,2.088,0.432,2.376c0.191,0.336,0.384,1.009,0.576,2.017
			c0.623,2.735,1.055,4.368,1.296,4.896c0.24,0.385,0.396,1.008,0.468,1.872c0.072,0.863,0.18,1.296,0.324,1.296
			c0.24,0,0.479-0.336,0.72-1.009c0.24-0.671,0.383-1.296,0.433-1.871c0.095-0.624,0.274-1.092,0.539-1.404
			c0.265-0.312,0.396-0.587,0.396-0.827c0-0.288,0.216-1.031,0.648-2.232c0.432-1.199,0.743-1.991,0.936-2.376
			c0.335-0.432,0.815-0.839,1.44-1.224c1.822-1.248,3.456-0.385,4.896,2.592c0.479,1.008,0.839,1.704,1.08,2.088
			c0.384,0.625,0.6,0.984,0.648,1.08c0.383,0.576,0.743,1.225,1.079,1.944c0.624,1.057,1.08,1.823,1.368,2.304
			c0.479,0.673,0.721,1.177,0.721,1.512c0.047,0.288,0.227,0.589,0.54,0.9c0.312,0.313,0.54,0.468,0.684,0.468
			c0.24,0,0.479-0.695,0.72-2.088c0.047-0.911,0.191-1.729,0.433-2.448c0.144-0.671,0.216-1.199,0.216-1.584
			c0-0.479,0.119-0.982,0.359-1.512c0.24-0.527,0.407-1.104,0.505-1.729c0.047-0.527,0.144-0.937,0.287-1.225
			c0.24-0.335,0.407-1.008,0.505-2.016c0.144-1.057,0.383-1.813,0.72-2.27c0.335-0.455,0.792-0.611,1.368-0.468
			c0.383,0.097,0.623,0.216,0.72,0.359c0.096,0.145,0.263,0.554,0.504,1.225c0.479,1.345,0.551,2.425,0.216,3.24
			c-0.191,0.527-0.385,1.224-0.576,2.088c-0.144,0.912-0.313,1.561-0.504,1.943c-0.191,0.386-0.323,1.368-0.396,2.952
			s-0.229,2.641-0.468,3.168c-0.241,0.624-0.386,1.151-0.433,1.584c-0.097,0.576-0.252,1.068-0.468,1.477
			c-0.216,0.407-0.372,0.853-0.468,1.332c-0.098,0.528-0.386,1.044-0.864,1.548c-0.48,0.504-0.96,0.756-1.44,0.756
			c-0.863,0-1.752-0.575-2.664-1.729c-1.584-2.398-2.376-3.672-2.376-3.815c0-0.145-0.119-0.313-0.359-0.504
			c-0.241-0.191-0.408-0.455-0.504-0.792c-0.145-0.384-0.48-0.959-1.008-1.729c-0.625-0.96-1.249-2.111-1.872-3.456
			c-0.77-1.344-1.225-2.017-1.368-2.017c-0.385,0-0.696,0.673-0.937,2.017c-0.144,0.576-0.323,1.104-0.54,1.584
			c-0.216,0.48-0.372,0.912-0.468,1.297c-0.097,0.479-0.169,0.792-0.216,0.936c-0.097,0.097-0.288,0.457-0.576,1.08
			c-0.336,0.529-0.576,0.913-0.72,1.152c-0.048,0.144-0.265,0.673-0.648,1.584c-0.385,0.911-0.745,1.536-1.08,1.871
			c-0.288,0.288-0.432,0.505-0.432,0.647c0,0.145-0.192,0.396-0.576,0.757c-0.385,0.359-0.745,0.611-1.08,0.756
			c-0.385,0.145-0.792,0.098-1.224-0.145c-0.48-0.145-0.816-0.323-1.008-0.54c-0.192-0.216-0.35-0.54-0.469-0.972
			c-0.119-0.433-0.18-1.031-0.18-1.801c-0.048-1.296-0.191-2.136-0.432-2.521c-0.145-0.335-0.288-1.031-0.433-2.088
			c-0.097-1.008-0.264-1.8-0.504-2.376s-0.432-1.271-0.576-2.088c-0.048-0.623-0.168-1.319-0.359-2.089
			c-0.385-1.871-0.576-3.096-0.576-3.672c0-0.479-0.072-0.982-0.216-1.512C99.327,44.188,99.375,43.107,100,42.195z"/>
		<path d="M131.391,37.083c0.335-0.335,0.744-0.407,1.224-0.216s0.72,0.479,0.72,0.863c0,0.24,0.119,0.553,0.36,0.937
			c0.24,0.385,0.396,0.983,0.468,1.8c0.072,0.817,0.229,1.417,0.468,1.801s0.384,1.056,0.433,2.017
			c0.096,1.104,0.216,1.871,0.359,2.304c0.479,1.151,0.721,2.664,0.721,4.536c0,1.921,0.456,2.257,1.368,1.008
			c0.287-0.384,0.527-0.695,0.72-0.937c1.728-2.447,3.263-3.889,4.607-4.319c0.384-0.097,1.152-0.145,2.305-0.145
			c1.151,0,1.991,0.145,2.52,0.433c0.528,0.385,0.937,0.745,1.225,1.08c1.728,2.208,2.592,3.553,2.592,4.031
			c0,0.145,0.107,0.408,0.324,0.792c0.216,0.386,0.359,0.77,0.432,1.151c0.072,0.385,0.227,0.817,0.468,1.296
			c0.145,0.385,0.299,1.357,0.468,2.916c0.167,1.562,0.204,2.726,0.108,3.492c-0.144,1.393-0.673,2.545-1.584,3.456
			c-0.336,0.337-0.792,0.504-1.368,0.504s-1.056-0.191-1.439-0.576c-0.77-0.72-0.792-1.728-0.072-3.022
			c0.383-0.623,0.576-1.584,0.576-2.881c0-1.248-0.168-2.063-0.504-2.447c-0.192-0.385-0.386-0.839-0.576-1.368
			c-0.048-0.433-0.36-1.188-0.937-2.269s-1.032-1.812-1.368-2.195c-0.287-0.335-0.695-0.504-1.224-0.504
			c-0.529,0-1.321,0.527-2.376,1.584c-1.056,1.057-1.692,1.813-1.908,2.268c-0.216,0.457-0.359,0.685-0.432,0.685
			s-0.205,0.192-0.396,0.576c-0.144,0.433-0.287,0.696-0.432,0.792c-0.144,0.145-0.385,0.721-0.72,1.729
			c-0.288,1.008-0.385,1.775-0.288,2.304c0.047,0.529,0.119,1.417,0.216,2.664v1.944l-0.504,0.72
			c-0.385,0.529-0.817,0.792-1.296,0.792c-0.48,0-1.008-0.288-1.584-0.863c-0.576-0.576-0.912-1.319-1.008-2.231
			c-0.098-0.96-0.145-1.703-0.145-2.232c0-0.432-0.097-0.959-0.288-1.584c-0.336-0.72-0.72-3.646-1.151-8.783
			c-0.241-2.16-0.602-4.031-1.08-5.615c-0.145-0.527-0.216-1.991-0.216-4.394C131.175,38.571,131.247,37.275,131.391,37.083z"/>
		<path d="M161.415,43.347c1.104-0.479,1.944-0.407,2.521,0.217c0.383,0.385,0.504,0.84,0.359,1.367
			c-0.144,0.529-0.552,0.961-1.224,1.297c-0.385,0.24-0.696,0.504-0.936,0.792c-0.145,0.287-0.337,0.552-0.576,0.792
			c-0.098,0.098-0.157,0.216-0.181,0.359c-0.024,0.145-0.035,0.276-0.035,0.396c0,0.12,0.071,0.181,0.216,0.181
			c0.047,0,0.167-0.155,0.359-0.469c0.191-0.312,0.349-0.468,0.469-0.468c0.119,0,0.372-0.12,0.756-0.359
			c0.335-0.288,0.959-0.576,1.872-0.864c0.815-0.384,2.184-0.659,4.104-0.828c1.919-0.167,3.071-0.203,3.456-0.107
			c0.479,0.145,0.864,0.217,1.152,0.217c0.383,0,1.008,0.191,1.872,0.575c0.911,0.48,1.606,1.009,2.088,1.584
			c0.671,0.863,0.936,2.4,0.792,4.607c-0.098,1.394-0.336,2.521-0.721,3.385c-0.385,0.769-0.72,1.416-1.008,1.943
			c-0.288,0.385-0.899,1.033-1.836,1.943c-0.936,0.912-1.476,1.368-1.62,1.368c-0.097,0-0.432,0.288-1.008,0.863
			c-1.008,0.913-2.592,1.753-4.752,2.521c-1.249,0.385-2.64,0.575-4.176,0.575c-1.537,0-2.784-0.264-3.744-0.792
			c-1.488-0.721-2.568-1.729-3.24-3.023c-0.24-0.527-0.432-0.959-0.576-1.296c-0.24-0.385-0.359-1.631-0.359-3.744
			c0-2.111,0.119-3.552,0.359-4.319c1.009-3.84,2.04-6.096,3.097-6.769c0.144-0.145,0.479-0.455,1.008-0.937
			C160.526,43.923,161.03,43.588,161.415,43.347z M173.079,49.539c-0.385-0.145-0.899-0.239-1.548-0.288
			c-0.648-0.047-1.141,0.023-1.476,0.216c-0.145,0.049-0.937,0.121-2.376,0.216c-1.537,0.049-2.809,0.313-3.816,0.793
			c-1.008,0.528-1.584,0.792-1.728,0.792c-0.529,0-0.89-0.384-1.08-1.151c-0.192-0.673-0.48-0.434-0.864,0.72
			c-0.72,1.537-1.08,3.265-1.08,5.185c0,1.296,0.083,2.208,0.252,2.735c0.167,0.529,0.515,1.033,1.044,1.513
			c0.528,0.528,1.224,0.863,2.088,1.008c2.207,0.386,4.343-0.022,6.408-1.225c0.24-0.144,0.551-0.313,0.936-0.504
			c0.24-0.145,0.623-0.468,1.152-0.972c0.528-0.505,1.068-1.021,1.62-1.549c0.551-0.527,0.924-0.937,1.116-1.225
			c1.104-1.487,1.655-2.495,1.655-3.023c0-0.623-0.229-1.234-0.684-1.836C174.242,50.344,173.702,49.875,173.079,49.539z"/>
		<path d="M202.381,42.123c0.433-0.288,1.645-0.42,3.637-0.396c1.99,0.024,3.132,0.18,3.42,0.468s0.636,0.444,1.044,0.469
			c0.407,0.023,0.684,0.205,0.828,0.54c0.767,1.296,1.392,2.016,1.872,2.159c0.623,0.386,0.936,1.225,0.936,2.521
			c0,0.769,0.108,1.345,0.324,1.729c0.216,0.386,0.324,1.151,0.324,2.305c0,1.152-0.098,2.185-0.288,3.096
			c-0.241,0.961-0.36,1.921-0.36,2.88c0,1.009-0.191,1.705-0.576,2.089c-0.385,0.48-0.576,0.84-0.576,1.08
			c0,0.048-0.119,0.229-0.359,0.539c-0.241,0.313-0.518,0.589-0.828,0.828c-0.313,0.241-0.54,0.36-0.684,0.36
			c-0.145,0-0.36,0.144-0.648,0.432l-1.512,1.296l-1.152,0.864l-2.664,0.145h-2.664l-0.647-0.433
			c-0.241-0.239-0.745-0.623-1.513-1.151c-0.528-0.384-0.792-0.624-0.792-0.721c0-0.144-0.313-0.575-0.936-1.296l-1.08-1.151v-2.376
			c0-1.392,0.083-2.341,0.252-2.845c0.168-0.504,0.516-0.875,1.044-1.115c0.384-0.19,0.576-0.456,0.576-0.792
			c0-0.288,0.072-0.552,0.216-0.792c0.145-0.24,0.313-0.359,0.504-0.359c0.527,0,1.248-0.385,2.16-1.152
			c0.288-0.239,0.912-0.432,1.872-0.576c1.055-0.144,2.231-0.167,3.528-0.071c1.104,0.145,1.751,0.336,1.943,0.576
			c0.335,0.287,0.527,0.384,0.576,0.287c0.096,0,0.108-0.587,0.036-1.764c-0.072-1.176-0.288-1.979-0.648-2.412
			c-0.359-0.433-0.925-0.839-1.691-1.225c-0.77-0.384-1.609-0.575-2.521-0.575c-1.008,0.097-1.8,0.301-2.376,0.611
			c-0.576,0.313-1.008,0.469-1.296,0.469c-0.241,0-0.72,0.323-1.439,0.972c-0.721,0.647-1.152,1.116-1.297,1.404
			c-0.191,0.336-0.119,0.601,0.217,0.792c0.383,0.479,0.312,1.031-0.217,1.655c-0.479,0.528-0.863,0.721-1.151,0.576
			c-0.385-0.096-0.625-0.168-0.72-0.217c-0.385-0.335-0.576-1.055-0.576-2.16c0-1.104,0.19-1.896,0.576-2.376
			c0.287-0.287,0.432-0.611,0.432-0.972c0-0.359,0.288-0.779,0.864-1.26c0.576-0.479,0.959-0.911,1.151-1.297
			c0.145-0.768,0.671-1.151,1.584-1.151C201.564,42.627,201.996,42.46,202.381,42.123z M208.465,55.047
			c-0.216-0.313-0.96-0.491-2.231-0.54c-1.272-0.047-2.172,0.121-2.7,0.504c-0.385,0.241-0.949,0.769-1.692,1.584
			c-0.744,0.817-1.115,1.296-1.115,1.44c0,0.144,0.096,0.349,0.288,0.611c0.19,0.265,0.406,0.517,0.647,0.756
			c0.239,0.24,0.433,0.359,0.576,0.359s0.348,0.097,0.612,0.288c0.263,0.192,0.396,0.409,0.396,0.647
			c0,0.528,0.623,0.792,1.872,0.792c0.767,0,1.5-0.168,2.196-0.504c0.694-0.336,1.055-0.6,1.08-0.792
			c0.022-0.19,0.274-0.384,0.756-0.575c0.384-0.145,0.647-0.371,0.792-0.685c0.144-0.313,0.19-0.876,0.144-1.691V55.73l-0.72-0.145
			C208.98,55.54,208.681,55.359,208.465,55.047z"/>
		<path d="M217.284,42.987c0.24-0.239,0.587-0.396,1.044-0.468c0.456-0.072,0.803,0.012,1.044,0.252
			c0.145,0.145,0.349,0.564,0.612,1.26c0.263,0.696,0.396,1.214,0.396,1.549c0,0.336,0.097,0.695,0.288,1.08
			c0.145,0.385,0.371,0.575,0.685,0.575c0.312,0,0.563-0.19,0.756-0.575c0.576-0.911,1.392-1.753,2.448-2.521
			c0.527-0.383,1.104-0.575,1.728-0.575c0.672,0,1.26,0.192,1.764,0.575c0.505,0.385,1.451,1.272,2.845,2.664
			c1.392,1.394,2.16,2.088,2.304,2.088s0.767-0.575,1.872-1.728c0.671-0.623,1.199-1.116,1.584-1.477
			c0.383-0.359,0.803-0.647,1.26-0.864c0.456-0.216,0.9-0.348,1.332-0.396c0.433-0.047,0.983-0.071,1.656-0.071
			c1.296,0,2.231,0.192,2.808,0.575c1.057,0.769,1.896,1.705,2.521,2.809c0.432,0.912,0.744,2.978,0.936,6.191
			c0.288,4.081,0.551,6.434,0.792,7.057c0.24,0.386,0.36,0.674,0.36,0.864c0,0.336-0.157,0.696-0.468,1.079
			c-0.313,0.385-0.66,0.648-1.044,0.792c-0.864,0.288-1.633,0.146-2.305-0.432l-0.72-0.721l-0.216-3.023
			c-0.241-3.071-0.433-5.279-0.576-6.624c-0.144-2.495-0.265-3.84-0.36-4.032c-0.144-0.239-0.408-0.455-0.792-0.646
			c-0.385-0.191-0.72-0.288-1.008-0.288c-0.864,0-1.681,0.336-2.448,1.008c-0.479,0.479-0.72,0.781-0.72,0.899
			c0,0.12-0.144,0.372-0.432,0.757s-0.433,0.647-0.433,0.792c0,0.144-0.156,0.527-0.468,1.151c-0.313,0.624-0.588,1.032-0.828,1.225
			c-0.241,0.24-0.479,1.128-0.72,2.664c-0.432,3.168-0.84,5.017-1.224,5.544c-0.241,0.24-0.36,0.479-0.36,0.72
			c0,0.576-0.529,0.864-1.584,0.864c-0.77,0-1.344-0.265-1.729-0.792c-0.336-0.385-0.504-0.996-0.504-1.836s0.119-1.523,0.36-2.053
			c0.24-0.527,0.384-1.104,0.432-1.729c0.097-0.623,0.264-1.247,0.504-1.872c0.145-0.623,0.097-1.176-0.144-1.655
			c-0.241-0.479-0.36-0.815-0.36-1.009c0-0.145-0.191-0.563-0.575-1.26c-0.386-0.695-0.674-1.188-0.864-1.477
			c-0.48-0.672-1.058-1.198-1.729-1.584c-0.385-0.336-1.008,0.12-1.872,1.367c-1.249,1.969-1.943,3.433-2.088,4.394
			c-0.144,1.296-0.097,2.832,0.145,4.606c0.047,1.201,0.036,2.27-0.036,3.204c-0.072,0.937-0.265,1.705-0.576,2.305
			c-0.313,0.602-0.684,0.973-1.116,1.115c-0.863,0.192-1.608-0.144-2.231-1.008c-0.385-0.384-0.588-0.768-0.612-1.151
			c-0.025-0.384-0.036-1.486-0.036-3.313c0-1.631-0.133-2.809-0.396-3.528c-0.265-0.72-0.444-2.207-0.54-4.464
			c-0.098-2.16-0.216-3.431-0.36-3.815c-0.241-0.288-0.36-1.128-0.36-2.521C216.876,44.115,216.996,43.275,217.284,42.987z"/>
		<path d="M267.323,38.667c0.383-0.239,0.612-0.36,0.684-0.36c0.072,0,0.371,0.072,0.9,0.217c1.392,0.528,2.688,0.96,3.888,1.296
			c0.479,0.145,1.032,0.336,1.656,0.576c0.623,0.24,1.08,0.385,1.368,0.433c0.288,0.097,0.612,0.313,0.972,0.647
			c0.36,0.335,0.612,0.696,0.756,1.079c0.145,0.337,0.145,0.709,0,1.116c-0.144,0.408-0.385,0.66-0.72,0.756
			c-0.432,0.145-1.775-0.023-4.032-0.504c-1.151-0.145-2.112-0.527-2.88-1.151c-0.673-0.527-1.26-0.792-1.764-0.792
			s-0.948-0.19-1.332-0.576c-0.432-0.433-0.612-0.924-0.54-1.477C266.351,39.376,266.699,38.955,267.323,38.667z M269.771,47.415
			c0.576-0.313,1.176-0.203,1.8,0.323l0.576,0.576l0.072,3.097c0.096,3.841,0.455,6.96,1.079,9.359
			c0.145,0.624,0.217,1.513,0.217,2.664c0.096,1.2-0.049,1.969-0.433,2.304c-0.336,0.386-0.72,0.576-1.151,0.576
			c-1.009,0-1.729-0.576-2.16-1.729c-0.433-1.151-0.792-3.695-1.08-7.632c-0.145-2.16-0.145-4.151,0-5.977
			C268.835,48.916,269.195,47.728,269.771,47.415z"/>
	</g>
</g>
</svg>
