<?xml version="1.0" encoding="utf-8"?>
<!-- Generator: Adobe Illustrator 16.0.0, SVG Export Plug-In . SVG Version: 6.00 Build 0)  -->
<!DOCTYPE svg PUBLIC "-//W3C//DTD SVG 1.1//EN" "http://www.w3.org/Graphics/SVG/1.1/DTD/svg11.dtd">
<svg version="1.1" id="Layer_1" xmlns="http://www.w3.org/2000/svg" xmlns:xlink="http://www.w3.org/1999/xlink" x="0px" y="0px"
	 width="40px" height="40px" viewBox="0 0 40 40" enable-background="new 0 0 40 40" xml:space="preserve">
<circle fill="#EFEFEF" cx="19.999" cy="20" r="20"/>
<g>
	<g>
		<path fill="#231F20" d="M24.133,8.6c1.574,0,2.85,1.458,2.85,3.257v16.288c0,1.797-1.274,3.256-2.85,3.256h-8.266
			c-1.574,0-2.85-1.459-2.85-3.256V11.857c0-1.799,1.276-3.257,2.85-3.257H24.133 M24.133,8h-8.266c-1.902,0-3.45,1.73-3.45,3.857
			v16.288c0,2.127,1.548,3.855,3.45,3.855h8.265c1.901,0,3.45-1.729,3.45-3.855V11.857C27.582,9.73,26.035,8,24.133,8L24.133,8z"/>
	</g>
	<path fill="#231F20" d="M21.995,29.42h-3.99c-0.166,0-0.3-0.135-0.3-0.3c0-0.166,0.134-0.302,0.3-0.302h3.99
		c0.165,0,0.3,0.136,0.3,0.302C22.295,29.285,22.16,29.42,21.995,29.42z"/>
</g>
</svg>
