<?xml version="1.0" encoding="utf-8"?>
<!-- Generator: Adobe Illustrator 27.1.1, SVG Export Plug-In . SVG Version: 6.00 Build 0)  -->
<svg version="1.1" id="Layer_1" xmlns="http://www.w3.org/2000/svg" xmlns:xlink="http://www.w3.org/1999/xlink" x="0px" y="0px"
	 viewBox="0 0 30 30" style="enable-background:new 0 0 30 30;" xml:space="preserve">
<style type="text/css">
	.st0{fill:#C98336;}
	.st1{fill:#FFFFFF;}
	.st2{fill:#60380D;}
	.st3{fill:#111111;}
</style>
<g>
	<path class="st0" d="M28.66,15c1.44-2.08,1.02-4.07-1.07-5.32c0.56-2.37-0.54-3.99-2.93-4.34c-0.35-2.38-1.98-3.49-4.34-2.93
		C19.07,0.32,17.08-0.1,15,1.34c-2.08-1.44-4.07-1.02-5.32,1.07C7.32,1.85,5.69,2.96,5.34,5.34C2.96,5.69,1.85,7.32,2.41,9.68
		C0.32,10.93-0.1,12.92,1.34,15c-1.44,2.08-1.02,4.07,1.07,5.32c-0.56,2.37,0.54,3.99,2.93,4.34c0.35,2.38,1.98,3.49,4.34,2.93
		c1.25,2.09,3.23,2.51,5.32,1.07c2.08,1.44,4.07,1.02,5.32-1.07c2.37,0.56,3.99-0.54,4.34-2.93c2.38-0.35,3.49-1.98,2.93-4.34
		C29.68,19.07,30.1,17.08,28.66,15z"/>
	<path class="st1" d="M17.38,0.49c1.15,0,2.18,0.65,2.94,1.92c0.41-0.1,0.79-0.14,1.15-0.14c1.74,0,2.9,1.1,3.19,3.07
		c2.38,0.35,3.49,1.98,2.93,4.34c2.09,1.25,2.51,3.23,1.07,5.32c1.44,2.08,1.02,4.07-1.07,5.32c0.56,2.37-0.54,3.99-2.93,4.34
		c-0.29,1.97-1.45,3.07-3.19,3.07c-0.36,0-0.74-0.05-1.15-0.14c-0.75,1.26-1.78,1.92-2.94,1.92c-0.75,0-1.56-0.28-2.38-0.85
		c-0.82,0.57-1.63,0.85-2.38,0.85c-1.15,0-2.18-0.65-2.94-1.92c-0.41,0.1-0.79,0.14-1.15,0.14c-1.74,0-2.9-1.1-3.19-3.07
		c-2.38-0.35-3.49-1.98-2.93-4.34C0.32,19.07-0.1,17.08,1.34,15c-1.44-2.08-1.02-4.07,1.07-5.32C1.85,7.32,2.96,5.69,5.34,5.34
		c0.29-1.97,1.45-3.07,3.19-3.07c0.36,0,0.74,0.05,1.15,0.14c0.75-1.26,1.78-1.92,2.94-1.92c0.75,0,1.56,0.28,2.38,0.85
		C15.82,0.77,16.63,0.49,17.38,0.49 M17.38,0C16.6,0,15.8,0.25,15,0.75C14.2,0.25,13.4,0,12.62,0c-1.24,0-2.35,0.66-3.17,1.86
		C9.13,1.8,8.83,1.78,8.53,1.78c-1.87,0-3.21,1.17-3.62,3.14C3.78,5.15,2.9,5.68,2.37,6.47C1.83,7.27,1.65,8.29,1.86,9.45
		c-0.96,0.65-1.58,1.49-1.78,2.44C-0.14,12.87,0.1,13.94,0.75,15c-0.65,1.06-0.89,2.13-0.67,3.11c0.21,0.95,0.82,1.78,1.78,2.44
		c-0.21,1.16-0.03,2.18,0.51,2.98c0.54,0.79,1.41,1.32,2.55,1.56c0.41,1.97,1.74,3.14,3.62,3.14c0.29,0,0.6-0.03,0.92-0.08
		c0.82,1.2,1.93,1.86,3.17,1.86c0.78,0,1.58-0.25,2.38-0.75c0.8,0.5,1.6,0.75,2.38,0.75c1.24,0,2.35-0.66,3.17-1.86
		c0.32,0.06,0.62,0.08,0.92,0.08c1.87,0,3.21-1.17,3.62-3.14c1.14-0.24,2.01-0.77,2.55-1.56c0.54-0.79,0.71-1.82,0.51-2.98
		c0.96-0.65,1.58-1.49,1.78-2.44c0.21-0.98-0.02-2.05-0.67-3.11c0.65-1.06,0.89-2.13,0.67-3.11c-0.21-0.95-0.82-1.78-1.78-2.44
		c0.21-1.16,0.03-2.18-0.51-2.98c-0.54-0.79-1.41-1.32-2.55-1.56c-0.41-1.97-1.74-3.14-3.62-3.14c-0.29,0-0.6,0.03-0.92,0.08
		C19.73,0.66,18.62,0,17.38,0L17.38,0z"/>
</g>
<polygon class="st2" points="20.23,8.13 21.59,8.45 21.26,9.76 19.69,8.45 "/>
<polygon class="st2" points="7.2,21.63 8.57,21.2 8.76,22.62 7.72,22.62 "/>
<polygon class="st2" points="22.41,21.71 22.73,20.24 23.62,20.98 23.3,22.16 "/>
<polygon class="st2" points="10.33,5.9 11.66,7.3 10.33,7.93 9.35,6.92 "/>
<g>
	<g>
		<path class="st1" d="M4.88,12.21c0.06-0.06,0.14-0.08,0.23-0.04c0.09,0.04,0.14,0.09,0.14,0.16c0,0.05,0.02,0.11,0.07,0.18
			c0.05,0.07,0.08,0.19,0.09,0.34c0.01,0.16,0.04,0.27,0.09,0.34c0.05,0.07,0.07,0.2,0.08,0.38c0.02,0.21,0.04,0.36,0.07,0.44
			c0.09,0.22,0.14,0.51,0.14,0.86c0,0.37,0.09,0.43,0.26,0.19C6.1,15,6.15,14.95,6.18,14.9c0.33-0.47,0.62-0.74,0.88-0.82
			c0.07-0.02,0.22-0.03,0.44-0.03c0.22,0,0.38,0.03,0.48,0.08c0.1,0.07,0.18,0.14,0.23,0.21c0.33,0.42,0.49,0.68,0.49,0.77
			c0,0.03,0.02,0.08,0.06,0.15c0.04,0.07,0.07,0.15,0.08,0.22c0.01,0.07,0.04,0.16,0.09,0.25C8.97,15.8,9,15.98,9.03,16.28
			s0.04,0.52,0.02,0.67c-0.03,0.26-0.13,0.48-0.3,0.66c-0.06,0.06-0.15,0.1-0.26,0.1c-0.11,0-0.2-0.04-0.27-0.11
			c-0.15-0.14-0.15-0.33-0.01-0.58c0.07-0.12,0.11-0.3,0.11-0.55c0-0.24-0.03-0.39-0.1-0.47c-0.04-0.07-0.07-0.16-0.11-0.26
			c-0.01-0.08-0.07-0.23-0.18-0.43c-0.11-0.21-0.2-0.34-0.26-0.42c-0.05-0.06-0.13-0.1-0.23-0.1s-0.25,0.1-0.45,0.3
			c-0.2,0.2-0.32,0.35-0.36,0.43c-0.04,0.09-0.07,0.13-0.08,0.13c-0.01,0-0.04,0.04-0.08,0.11c-0.03,0.08-0.05,0.13-0.08,0.15
			c-0.03,0.03-0.07,0.14-0.14,0.33c-0.05,0.19-0.07,0.34-0.05,0.44c0.01,0.1,0.02,0.27,0.04,0.51v0.37l-0.1,0.14
			c-0.07,0.1-0.16,0.15-0.25,0.15c-0.09,0-0.19-0.06-0.3-0.16c-0.11-0.11-0.17-0.25-0.19-0.43c-0.02-0.18-0.03-0.32-0.03-0.43
			c0-0.08-0.02-0.18-0.05-0.3c-0.06-0.14-0.14-0.69-0.22-1.67c-0.05-0.41-0.11-0.77-0.21-1.07c-0.03-0.1-0.04-0.38-0.04-0.84
			C4.84,12.5,4.85,12.25,4.88,12.21z"/>
		<path class="st3" d="M5.02,12.15c0.03,0,0.06,0.01,0.09,0.02c0.09,0.04,0.14,0.09,0.14,0.16c0,0.05,0.02,0.11,0.07,0.18
			c0.05,0.07,0.08,0.19,0.09,0.34c0.01,0.16,0.04,0.27,0.09,0.34c0.05,0.07,0.07,0.2,0.08,0.38c0.02,0.21,0.04,0.36,0.07,0.44
			c0.09,0.22,0.14,0.51,0.14,0.86c0,0.22,0.03,0.33,0.1,0.33c0.04,0,0.1-0.05,0.16-0.14C6.1,15,6.15,14.95,6.18,14.9
			c0.33-0.47,0.62-0.74,0.88-0.82c0.07-0.02,0.22-0.03,0.44-0.03c0.22,0,0.38,0.03,0.48,0.08c0.1,0.07,0.18,0.14,0.23,0.21
			c0.33,0.42,0.49,0.68,0.49,0.77c0,0.03,0.02,0.08,0.06,0.15c0.04,0.07,0.07,0.15,0.08,0.22c0.01,0.07,0.04,0.16,0.09,0.25
			C8.97,15.8,9,15.98,9.03,16.28c0.03,0.3,0.04,0.52,0.02,0.67c-0.03,0.26-0.13,0.48-0.3,0.66c-0.06,0.06-0.15,0.1-0.26,0.1
			c-0.11,0-0.2-0.04-0.27-0.11c-0.15-0.14-0.15-0.33-0.01-0.58c0.07-0.12,0.11-0.3,0.11-0.55c0-0.24-0.03-0.39-0.1-0.47
			c-0.04-0.07-0.07-0.16-0.11-0.26c-0.01-0.08-0.07-0.23-0.18-0.43c-0.11-0.21-0.2-0.34-0.26-0.42c-0.05-0.06-0.13-0.1-0.23-0.1
			s-0.25,0.1-0.45,0.3c-0.2,0.2-0.32,0.35-0.36,0.43c-0.04,0.09-0.07,0.13-0.08,0.13s-0.04,0.04-0.08,0.11
			c-0.03,0.08-0.05,0.13-0.08,0.15c-0.03,0.03-0.07,0.14-0.14,0.33c-0.05,0.19-0.07,0.34-0.05,0.44c0.01,0.1,0.02,0.27,0.04,0.51
			v0.37l-0.1,0.14c-0.07,0.1-0.16,0.15-0.25,0.15c-0.09,0-0.19-0.06-0.3-0.16c-0.11-0.11-0.17-0.25-0.19-0.43
			c-0.02-0.18-0.03-0.32-0.03-0.43c0-0.08-0.02-0.18-0.05-0.3c-0.06-0.14-0.14-0.69-0.22-1.67c-0.05-0.41-0.11-0.77-0.21-1.07
			c-0.03-0.1-0.04-0.38-0.04-0.84c0-0.46,0.01-0.7,0.04-0.74C4.92,12.17,4.97,12.15,5.02,12.15 M5.02,11.91
			c-0.12,0-0.23,0.05-0.31,0.13c-0.08,0.11-0.11,0.18-0.11,0.91c0,0.64,0.03,0.82,0.05,0.9c0.09,0.29,0.15,0.64,0.2,1.03
			c0.11,1.33,0.18,1.63,0.24,1.75c0.02,0.09,0.03,0.16,0.03,0.2c0,0.11,0.01,0.26,0.03,0.45c0.02,0.23,0.11,0.42,0.26,0.57
			c0.16,0.16,0.32,0.24,0.48,0.24c0.12,0,0.29-0.04,0.44-0.25l0.1-0.14l0.04-0.06v-0.08v-0.37c-0.02-0.26-0.03-0.43-0.04-0.53
			c-0.01-0.05-0.01-0.14,0.05-0.35c0.05-0.14,0.08-0.21,0.09-0.23c0.05-0.05,0.09-0.12,0.13-0.23c0.07-0.06,0.11-0.15,0.15-0.22
			c0.01-0.02,0.06-0.11,0.31-0.36c0.21-0.21,0.29-0.23,0.29-0.23c0.06,0.05,0.13,0.14,0.26,0.39c0.14,0.26,0.15,0.34,0.15,0.34
			l0,0.03l0.01,0.03c0.04,0.11,0.08,0.21,0.12,0.29l0.01,0.03l0.02,0.02c0,0,0,0,0,0c0,0,0.04,0.06,0.04,0.3
			c0,0.26-0.05,0.38-0.07,0.42c-0.27,0.48-0.08,0.76,0.05,0.88c0.11,0.11,0.27,0.18,0.44,0.18c0.22,0,0.36-0.09,0.43-0.17
			c0.21-0.22,0.34-0.49,0.37-0.81c0.02-0.16,0.01-0.4-0.02-0.72c-0.05-0.42-0.08-0.55-0.1-0.61c-0.05-0.09-0.07-0.16-0.08-0.21
			c-0.02-0.1-0.06-0.2-0.11-0.3c-0.02-0.03-0.03-0.05-0.04-0.07c0-0.08-0.04-0.24-0.54-0.88c-0.07-0.09-0.16-0.17-0.28-0.25
			c-0.17-0.09-0.36-0.13-0.62-0.13c-0.32,0-0.43,0.02-0.5,0.03c-0.31,0.1-0.63,0.38-0.98,0.86c-0.01-0.31-0.06-0.56-0.15-0.77
			c-0.01-0.02-0.03-0.12-0.05-0.37c-0.01-0.22-0.05-0.38-0.12-0.49C5.7,13.06,5.67,13,5.65,12.84c-0.02-0.2-0.06-0.34-0.12-0.45
			C5.5,12.34,5.5,12.32,5.5,12.32c0-0.07-0.03-0.27-0.29-0.38C5.14,11.92,5.08,11.91,5.02,11.91L5.02,11.91z"/>
	</g>
	<g>
		<path class="st1" d="M10.6,13.41c0.21-0.09,0.37-0.08,0.48,0.04c0.07,0.07,0.1,0.16,0.07,0.26c-0.03,0.1-0.11,0.18-0.23,0.25
			c-0.07,0.05-0.13,0.1-0.18,0.15c-0.03,0.05-0.06,0.11-0.11,0.15c-0.02,0.02-0.03,0.04-0.03,0.07c0,0.03-0.01,0.05-0.01,0.08
			c0,0.02,0.01,0.03,0.04,0.03c0.01,0,0.03-0.03,0.07-0.09c0.04-0.06,0.07-0.09,0.09-0.09c0.02,0,0.07-0.02,0.14-0.07
			c0.06-0.05,0.18-0.11,0.36-0.16c0.15-0.07,0.42-0.13,0.78-0.16c0.37-0.03,0.58-0.04,0.66-0.02c0.09,0.03,0.16,0.04,0.22,0.04
			c0.07,0,0.19,0.04,0.36,0.11c0.17,0.09,0.31,0.19,0.4,0.3c0.13,0.16,0.18,0.46,0.15,0.88c-0.02,0.26-0.07,0.48-0.14,0.64
			c-0.07,0.15-0.14,0.27-0.19,0.37c-0.05,0.07-0.17,0.2-0.35,0.37c-0.18,0.17-0.28,0.26-0.31,0.26c-0.02,0-0.08,0.05-0.19,0.17
			c-0.19,0.17-0.49,0.33-0.9,0.48c-0.24,0.07-0.5,0.11-0.8,0.11c-0.29,0-0.53-0.05-0.71-0.15c-0.28-0.14-0.49-0.33-0.62-0.58
			c-0.05-0.1-0.08-0.18-0.11-0.25c-0.05-0.07-0.07-0.31-0.07-0.71c0-0.4,0.02-0.68,0.07-0.82c0.19-0.73,0.39-1.16,0.59-1.29
			c0.03-0.03,0.09-0.09,0.19-0.18C10.43,13.52,10.53,13.45,10.6,13.41z M12.82,14.58c-0.07-0.03-0.17-0.05-0.29-0.05
			c-0.12-0.01-0.22,0-0.28,0.04c-0.03,0.01-0.18,0.02-0.45,0.04c-0.29,0.01-0.53,0.06-0.73,0.15c-0.19,0.1-0.3,0.15-0.33,0.15
			c-0.1,0-0.17-0.07-0.21-0.22c-0.04-0.13-0.09-0.08-0.16,0.14c-0.14,0.29-0.21,0.62-0.21,0.99c0,0.25,0.02,0.42,0.05,0.52
			c0.03,0.1,0.1,0.2,0.2,0.29c0.1,0.1,0.23,0.16,0.4,0.19c0.42,0.07,0.83,0,1.22-0.23c0.05-0.03,0.11-0.06,0.18-0.1
			c0.05-0.03,0.12-0.09,0.22-0.19c0.1-0.1,0.2-0.19,0.31-0.29c0.11-0.1,0.18-0.18,0.21-0.23c0.21-0.28,0.32-0.47,0.32-0.58
			c0-0.12-0.04-0.24-0.13-0.35C13.04,14.74,12.94,14.65,12.82,14.58z"/>
		<path class="st3" d="M10.84,13.35c0.09,0,0.17,0.03,0.23,0.1c0.07,0.07,0.1,0.16,0.07,0.26c-0.03,0.1-0.11,0.18-0.23,0.25
			c-0.07,0.05-0.13,0.1-0.18,0.15c-0.03,0.05-0.06,0.11-0.11,0.15c-0.02,0.02-0.03,0.04-0.03,0.07c0,0.03-0.01,0.05-0.01,0.08
			c0,0.02,0.01,0.03,0.04,0.03c0.01,0,0.03-0.03,0.07-0.09c0.04-0.06,0.07-0.09,0.09-0.09c0.02,0,0.07-0.02,0.14-0.07
			c0.06-0.05,0.18-0.11,0.36-0.16c0.15-0.07,0.42-0.13,0.78-0.16c0.23-0.02,0.41-0.03,0.52-0.03c0.07,0,0.11,0,0.14,0.01
			c0.09,0.03,0.16,0.04,0.22,0.04c0.07,0,0.19,0.04,0.36,0.11c0.17,0.09,0.31,0.19,0.4,0.3c0.13,0.16,0.18,0.46,0.15,0.88
			c-0.02,0.26-0.07,0.48-0.14,0.64c-0.07,0.15-0.14,0.27-0.19,0.37c-0.05,0.07-0.17,0.2-0.35,0.37c-0.18,0.17-0.28,0.26-0.31,0.26
			c-0.02,0-0.08,0.05-0.19,0.17c-0.19,0.17-0.49,0.33-0.9,0.48c-0.24,0.07-0.5,0.11-0.8,0.11s-0.53-0.05-0.71-0.15
			c-0.28-0.14-0.49-0.33-0.62-0.58c-0.05-0.1-0.08-0.18-0.11-0.25c-0.05-0.07-0.07-0.31-0.07-0.71c0-0.4,0.02-0.68,0.07-0.82
			c0.19-0.73,0.39-1.16,0.59-1.29c0.03-0.03,0.09-0.09,0.19-0.18c0.12-0.08,0.21-0.15,0.29-0.19
			C10.69,13.37,10.77,13.35,10.84,13.35 M10.74,14.91c-0.1,0-0.17-0.07-0.21-0.22c-0.01-0.05-0.03-0.07-0.05-0.07
			c-0.03,0-0.07,0.07-0.12,0.21c-0.14,0.29-0.21,0.62-0.21,0.99c0,0.25,0.02,0.42,0.05,0.52c0.03,0.1,0.1,0.2,0.2,0.29
			c0.1,0.1,0.23,0.16,0.4,0.19c0.1,0.02,0.2,0.03,0.3,0.03c0.31,0,0.62-0.09,0.92-0.26c0.05-0.03,0.11-0.06,0.18-0.1
			c0.05-0.03,0.12-0.09,0.22-0.19c0.1-0.1,0.2-0.19,0.31-0.29c0.11-0.1,0.18-0.18,0.21-0.23c0.21-0.28,0.32-0.47,0.32-0.58
			c0-0.12-0.04-0.24-0.13-0.35c-0.09-0.11-0.19-0.2-0.31-0.27c-0.07-0.03-0.17-0.05-0.29-0.05c-0.02,0-0.05,0-0.07,0
			c-0.09,0-0.16,0.01-0.21,0.04c-0.03,0.01-0.18,0.02-0.45,0.04c-0.29,0.01-0.53,0.06-0.73,0.15
			C10.87,14.86,10.76,14.91,10.74,14.91 M10.84,13.1L10.84,13.1c-0.11,0-0.22,0.03-0.34,0.08c-0.11,0.06-0.21,0.13-0.33,0.22
			c-0.11,0.1-0.17,0.16-0.21,0.19C9.71,13.76,9.5,14.2,9.29,15c-0.05,0.16-0.08,0.45-0.08,0.89c0,0.62,0.05,0.76,0.11,0.84
			c0.01,0.03,0.05,0.12,0.1,0.22c0.16,0.3,0.4,0.53,0.73,0.69c0.21,0.12,0.48,0.18,0.82,0.18c0.32,0,0.61-0.04,0.87-0.12
			c0.45-0.16,0.78-0.34,1-0.53c0.06-0.06,0.1-0.1,0.12-0.12c0.08-0.03,0.18-0.12,0.38-0.31c0.19-0.19,0.31-0.32,0.37-0.4
			c0.07-0.13,0.14-0.26,0.21-0.41c0.09-0.2,0.14-0.44,0.16-0.74c0.03-0.49-0.03-0.83-0.2-1.05c-0.12-0.14-0.27-0.26-0.48-0.37
			c-0.22-0.1-0.36-0.14-0.47-0.14c-0.01,0-0.05,0-0.15-0.03c-0.06-0.02-0.12-0.02-0.21-0.02c-0.12,0-0.3,0.01-0.54,0.03
			c-0.27,0.02-0.48,0.06-0.65,0.1c0.03-0.17-0.02-0.33-0.14-0.45C11.15,13.16,11.01,13.1,10.84,13.1L10.84,13.1z M10.74,15.16
			c0.07,0,0.13-0.02,0.44-0.18c0.15-0.07,0.36-0.12,0.62-0.12c0.46-0.03,0.49-0.04,0.53-0.06c0.04-0.02,0.06-0.03,0.13-0.03l0.05,0
			c0.13,0.01,0.2,0.03,0.23,0.04c0.06,0.03,0.13,0.1,0.2,0.19c0.05,0.07,0.08,0.14,0.08,0.2c0,0-0.02,0.1-0.27,0.43
			c-0.02,0.03-0.06,0.08-0.18,0.2l-0.12,0.11l-0.19,0.18c-0.12,0.12-0.17,0.15-0.18,0.15c-0.06,0.03-0.13,0.07-0.18,0.1
			c-0.26,0.15-0.52,0.23-0.79,0.23c-0.09,0-0.17-0.01-0.26-0.02c-0.12-0.02-0.2-0.06-0.27-0.12c-0.08-0.07-0.12-0.13-0.14-0.19
			c-0.01-0.04-0.04-0.16-0.04-0.45c0-0.26,0.04-0.5,0.12-0.72C10.6,15.15,10.69,15.16,10.74,15.16L10.74,15.16z"/>
	</g>
	<g>
		<path class="st1" d="M14.33,13.34c0.04-0.05,0.11-0.08,0.2-0.09c0.09-0.01,0.15,0,0.2,0.05c0.03,0.03,0.07,0.11,0.12,0.24
			c0.05,0.13,0.08,0.23,0.08,0.29s0.02,0.13,0.06,0.21c0.03,0.07,0.07,0.11,0.13,0.11c0.06,0,0.11-0.04,0.14-0.11
			c0.11-0.17,0.26-0.33,0.47-0.48c0.1-0.07,0.21-0.11,0.33-0.11c0.13,0,0.24,0.04,0.34,0.11c0.1,0.07,0.28,0.24,0.54,0.51
			c0.26,0.27,0.41,0.4,0.44,0.4s0.15-0.11,0.36-0.33c0.13-0.12,0.23-0.21,0.3-0.28c0.07-0.07,0.15-0.12,0.24-0.16
			c0.09-0.04,0.17-0.07,0.25-0.08c0.08-0.01,0.19-0.01,0.32-0.01c0.25,0,0.42,0.04,0.53,0.11c0.2,0.15,0.36,0.32,0.48,0.53
			c0.08,0.17,0.14,0.57,0.18,1.18c0.06,0.78,0.11,1.23,0.15,1.34c0.05,0.07,0.07,0.13,0.07,0.16c0,0.06-0.03,0.13-0.09,0.21
			c-0.06,0.07-0.13,0.12-0.2,0.15c-0.16,0.05-0.31,0.03-0.44-0.08l-0.14-0.14l-0.04-0.58c-0.05-0.58-0.08-1.01-0.11-1.26
			c-0.03-0.48-0.05-0.73-0.07-0.77c-0.03-0.05-0.08-0.09-0.15-0.12c-0.07-0.04-0.14-0.05-0.19-0.05c-0.16,0-0.32,0.06-0.47,0.19
			c-0.09,0.09-0.14,0.15-0.14,0.17c0,0.02-0.03,0.07-0.08,0.14c-0.06,0.07-0.08,0.12-0.08,0.15c0,0.03-0.03,0.1-0.09,0.22
			c-0.06,0.12-0.11,0.2-0.16,0.23c-0.05,0.05-0.09,0.21-0.14,0.51c-0.08,0.6-0.16,0.96-0.23,1.06c-0.05,0.05-0.07,0.09-0.07,0.14
			c0,0.11-0.1,0.16-0.3,0.16c-0.15,0-0.26-0.05-0.33-0.15c-0.06-0.07-0.1-0.19-0.1-0.35c0-0.16,0.02-0.29,0.07-0.39
			c0.05-0.1,0.07-0.21,0.08-0.33c0.02-0.12,0.05-0.24,0.1-0.36c0.03-0.12,0.02-0.22-0.03-0.32c-0.05-0.09-0.07-0.16-0.07-0.19
			c0-0.03-0.04-0.11-0.11-0.24c-0.07-0.13-0.13-0.23-0.16-0.28c-0.09-0.13-0.2-0.23-0.33-0.3c-0.07-0.06-0.19,0.02-0.36,0.26
			c-0.24,0.37-0.37,0.65-0.4,0.84c-0.03,0.25-0.02,0.54,0.03,0.88c0.01,0.23,0.01,0.43-0.01,0.61c-0.01,0.18-0.05,0.33-0.11,0.44
			c-0.06,0.11-0.13,0.19-0.21,0.21c-0.16,0.04-0.31-0.03-0.42-0.19c-0.07-0.07-0.11-0.15-0.12-0.22c0-0.07-0.01-0.28-0.01-0.63
			c0-0.31-0.03-0.53-0.08-0.67c-0.05-0.14-0.09-0.42-0.1-0.85c-0.02-0.41-0.04-0.65-0.07-0.73c-0.05-0.05-0.07-0.21-0.07-0.48
			C14.25,13.55,14.27,13.39,14.33,13.34z"/>
		<path class="st3" d="M14.58,13.24c0.06,0,0.11,0.02,0.14,0.05c0.03,0.03,0.07,0.11,0.12,0.24c0.05,0.13,0.08,0.23,0.08,0.29
			c0,0.06,0.02,0.13,0.06,0.21c0.03,0.07,0.07,0.11,0.13,0.11c0.06,0,0.11-0.04,0.14-0.11c0.11-0.17,0.26-0.33,0.47-0.48
			c0.1-0.07,0.21-0.11,0.33-0.11c0.13,0,0.24,0.04,0.34,0.11c0.1,0.07,0.28,0.24,0.54,0.51c0.26,0.27,0.41,0.4,0.44,0.4
			c0.03,0,0.15-0.11,0.36-0.33c0.13-0.12,0.23-0.21,0.3-0.28c0.07-0.07,0.15-0.12,0.24-0.16c0.09-0.04,0.17-0.07,0.25-0.08
			c0.08-0.01,0.19-0.01,0.32-0.01c0.25,0,0.42,0.04,0.53,0.11c0.2,0.15,0.36,0.32,0.48,0.53c0.08,0.17,0.14,0.57,0.18,1.18
			c0.06,0.78,0.11,1.23,0.15,1.34c0.05,0.07,0.07,0.13,0.07,0.16c0,0.06-0.03,0.13-0.09,0.21c-0.06,0.07-0.13,0.12-0.2,0.15
			c-0.05,0.02-0.11,0.03-0.16,0.03c-0.1,0-0.19-0.04-0.28-0.11l-0.14-0.14l-0.04-0.58c-0.05-0.58-0.08-1.01-0.11-1.26
			c-0.03-0.48-0.05-0.73-0.07-0.77c-0.03-0.05-0.08-0.09-0.15-0.12c-0.07-0.04-0.14-0.05-0.19-0.05c-0.16,0-0.32,0.06-0.47,0.19
			c-0.09,0.09-0.14,0.15-0.14,0.17s-0.03,0.07-0.08,0.14c-0.06,0.07-0.08,0.12-0.08,0.15c0,0.03-0.03,0.1-0.09,0.22
			c-0.06,0.12-0.11,0.2-0.16,0.23c-0.05,0.05-0.09,0.21-0.14,0.51c-0.08,0.6-0.16,0.96-0.23,1.06c-0.05,0.05-0.07,0.09-0.07,0.14
			c0,0.11-0.1,0.16-0.3,0.16c-0.15,0-0.26-0.05-0.33-0.15c-0.06-0.07-0.1-0.19-0.1-0.35c0-0.16,0.02-0.29,0.07-0.39
			c0.05-0.1,0.07-0.21,0.08-0.33c0.02-0.12,0.05-0.24,0.1-0.36c0.03-0.12,0.02-0.22-0.03-0.32c-0.05-0.09-0.07-0.16-0.07-0.19
			c0-0.03-0.04-0.11-0.11-0.24c-0.07-0.13-0.13-0.23-0.16-0.28c-0.09-0.13-0.2-0.23-0.33-0.3c-0.02-0.01-0.03-0.02-0.05-0.02
			c-0.07,0-0.17,0.09-0.3,0.28c-0.24,0.37-0.37,0.65-0.4,0.84c-0.03,0.25-0.02,0.54,0.03,0.88c0.01,0.23,0.01,0.43-0.01,0.61
			c-0.01,0.18-0.05,0.33-0.11,0.44c-0.06,0.11-0.13,0.19-0.21,0.21c-0.03,0.01-0.06,0.01-0.09,0.01c-0.13,0-0.24-0.07-0.34-0.2
			c-0.07-0.07-0.11-0.15-0.12-0.22c0-0.07-0.01-0.28-0.01-0.63c0-0.31-0.03-0.53-0.08-0.67c-0.05-0.14-0.09-0.42-0.1-0.85
			c-0.02-0.41-0.04-0.65-0.07-0.73c-0.05-0.06-0.07-0.21-0.07-0.48c-0.01-0.26,0.01-0.43,0.07-0.48c0.04-0.05,0.11-0.08,0.2-0.09
			C14.55,13.24,14.57,13.24,14.58,13.24 M14.58,13c-0.03,0-0.06,0-0.09,0.01c-0.14,0.02-0.25,0.08-0.34,0.16
			c-0.11,0.11-0.15,0.3-0.14,0.66c0,0.32,0.03,0.48,0.09,0.57c0.01,0.05,0.03,0.2,0.05,0.64c0.03,0.61,0.08,0.82,0.12,0.92
			c0.02,0.06,0.06,0.22,0.06,0.59c0,0.36,0,0.57,0.01,0.65c0.01,0.13,0.07,0.26,0.19,0.38c0.16,0.22,0.37,0.27,0.51,0.27
			c0.05,0,0.09-0.01,0.14-0.02c0.17-0.05,0.29-0.17,0.38-0.34c0.07-0.14,0.12-0.32,0.14-0.53c0.01-0.19,0.02-0.41,0.01-0.64
			c-0.04-0.34-0.05-0.61-0.03-0.84c0.01-0.07,0.07-0.28,0.36-0.73c0.04-0.06,0.08-0.1,0.1-0.13c0.07,0.06,0.13,0.11,0.18,0.18
			c0.03,0.04,0.08,0.13,0.15,0.26c0.05,0.08,0.08,0.14,0.09,0.17c-0.01,0.03,0.02,0.12,0.09,0.25c0.02,0.04,0.02,0.09,0.01,0.15
			c-0.04,0.1-0.08,0.24-0.1,0.37c-0.01,0.11-0.03,0.19-0.06,0.26c-0.06,0.13-0.09,0.3-0.09,0.49c0,0.22,0.05,0.39,0.16,0.51
			c0.07,0.1,0.23,0.23,0.51,0.23c0.51,0,0.55-0.31,0.55-0.41c0.1-0.1,0.18-0.31,0.3-1.16c0.04-0.25,0.07-0.35,0.08-0.38
			c0.06-0.06,0.12-0.15,0.19-0.28c0.07-0.15,0.1-0.22,0.11-0.28c0.01-0.01,0.02-0.03,0.04-0.05c0.06-0.08,0.1-0.14,0.12-0.21
			c0.02-0.02,0.04-0.05,0.08-0.08c0.09-0.08,0.19-0.12,0.29-0.12c0,0,0.02,0,0.08,0.03c0.02,0.01,0.03,0.01,0.03,0.02
			c0.01,0.07,0.03,0.24,0.05,0.67c0.03,0.27,0.06,0.68,0.11,1.27l0.04,0.57l0.01,0.09l0.07,0.06l0.14,0.14
			c0.14,0.12,0.29,0.18,0.45,0.18c0.08,0,0.16-0.01,0.24-0.04c0.12-0.05,0.23-0.12,0.31-0.23c0.1-0.12,0.14-0.24,0.14-0.36
			c0-0.09-0.03-0.18-0.11-0.29c0,0-0.04-0.22-0.11-1.23c-0.05-0.86-0.14-1.14-0.2-1.27c-0.15-0.26-0.33-0.46-0.56-0.63
			c-0.16-0.11-0.38-0.16-0.68-0.16c-0.14,0-0.25,0.01-0.34,0.01c-0.11,0.01-0.22,0.05-0.33,0.1c-0.11,0.05-0.21,0.12-0.3,0.21
			l-0.15,0.14l-0.15,0.14c-0.09,0.09-0.15,0.15-0.19,0.19c-0.06-0.05-0.14-0.13-0.26-0.26c-0.27-0.27-0.46-0.45-0.57-0.53
			c-0.14-0.11-0.3-0.16-0.48-0.16c-0.17,0-0.33,0.05-0.47,0.16c-0.16,0.12-0.3,0.25-0.41,0.39c-0.01-0.08-0.04-0.18-0.08-0.3
			c-0.08-0.21-0.13-0.28-0.17-0.33C14.84,13.07,14.74,13,14.58,13L14.58,13z"/>
	</g>
	<g>
		<path class="st1" d="M22.86,12.64c0.03,0,0.15,0,0.37,0c0.21,0,0.38,0.04,0.51,0.11c0.16,0.07,0.33,0.17,0.51,0.29
			c0.26,0.21,0.41,0.45,0.44,0.73c0.03,0.16,0.06,0.27,0.08,0.33c0.06,0.12,0.11,0.43,0.14,0.95c0.03,0.3-0.04,0.51-0.19,0.62
			l-0.14,0.11l-0.74-0.03c-0.5-0.02-0.79-0.04-0.88-0.07c-0.09-0.05-0.26-0.07-0.49-0.07c-0.22-0.01-0.37-0.04-0.45-0.08
			c-0.06-0.03-0.16-0.05-0.28-0.06c-0.12-0.01-0.2-0.01-0.23,0.01c-0.03,0.02-0.05,0.1-0.08,0.25c-0.02,0.15-0.02,0.27-0.01,0.36
			c0.01,0.09,0.04,0.17,0.08,0.25c0.05,0.05,0.1,0.13,0.15,0.23c0.12,0.19,0.37,0.32,0.77,0.4c0.58,0.12,0.92,0.14,1.03,0.07
			c0.05-0.02,0.17-0.05,0.38-0.1c0.18-0.03,0.32-0.06,0.41-0.11c0.1-0.04,0.24-0.05,0.43-0.05c0.18,0,0.31,0.03,0.38,0.1
			c0.07,0.06,0.11,0.12,0.11,0.18c0,0.02-0.01,0.04-0.02,0.08c-0.01,0.04-0.03,0.07-0.04,0.09c-0.01,0.02-0.04,0.05-0.07,0.07
			c-0.03,0.02-0.05,0.03-0.06,0.03c-0.03,0-0.07,0.03-0.14,0.08c-0.07,0.06-0.15,0.08-0.22,0.08c-0.07,0.02-0.18,0.05-0.33,0.1
			c-0.37,0.12-0.77,0.18-1.22,0.18c-0.65,0-1.09-0.06-1.32-0.18c-0.06-0.05-0.13-0.08-0.21-0.1c-0.07-0.01-0.17-0.07-0.3-0.19
			c-0.14-0.12-0.26-0.29-0.37-0.52c-0.12-0.26-0.19-0.43-0.22-0.53c-0.02-0.12-0.01-0.33,0.01-0.64c0.03-0.31,0.06-0.5,0.11-0.58
			c0.05-0.09,0.07-0.15,0.07-0.16c0-0.03,0.02-0.07,0.07-0.12c0.04-0.06,0.08-0.13,0.11-0.21c0.03-0.08,0.07-0.15,0.12-0.23
			c0.05-0.07,0.07-0.12,0.07-0.15c0-0.11,0.08-0.26,0.23-0.45c0.15-0.19,0.3-0.31,0.42-0.38c0.07-0.04,0.12-0.09,0.15-0.15
			c0.05-0.07,0.11-0.13,0.21-0.18C22.62,12.77,22.83,12.66,22.86,12.64z M23.43,13.36c-0.22-0.03-0.38-0.02-0.48,0.03
			c-0.14,0.05-0.32,0.17-0.54,0.37c-0.22,0.2-0.38,0.37-0.47,0.51c-0.05,0.1-0.09,0.17-0.14,0.22c-0.03,0.03-0.03,0.09-0.01,0.19
			v0.15l0.37,0.03c0.26,0.02,0.46,0.04,0.58,0.07c0.23,0.05,0.5,0.08,0.83,0.09c0.32,0.01,0.5,0.01,0.53-0.02
			c0.05-0.07,0.07-0.22,0.05-0.44c-0.02-0.22-0.08-0.43-0.16-0.64c-0.05-0.12-0.13-0.24-0.25-0.35
			C23.61,13.45,23.51,13.38,23.43,13.36z"/>
		<path class="st3" d="M23.23,12.64c0.21,0,0.38,0.04,0.51,0.11c0.16,0.07,0.33,0.17,0.51,0.29c0.26,0.21,0.41,0.45,0.44,0.73
			c0.03,0.16,0.06,0.27,0.08,0.33c0.06,0.12,0.11,0.43,0.14,0.95c0.03,0.3-0.04,0.51-0.19,0.62l-0.14,0.11l-0.74-0.03
			c-0.5-0.02-0.79-0.04-0.88-0.07c-0.09-0.05-0.26-0.07-0.49-0.07c-0.22-0.01-0.37-0.04-0.45-0.08c-0.06-0.03-0.16-0.05-0.28-0.06
			c-0.05-0.01-0.1-0.01-0.13-0.01c-0.05,0-0.08,0.01-0.09,0.02c-0.03,0.02-0.05,0.1-0.08,0.25c-0.02,0.15-0.02,0.27-0.01,0.36
			c0.01,0.09,0.04,0.17,0.08,0.25c0.05,0.05,0.1,0.13,0.15,0.23c0.12,0.19,0.37,0.32,0.77,0.4c0.36,0.07,0.62,0.11,0.8,0.11
			c0.11,0,0.19-0.01,0.23-0.04c0.05-0.02,0.17-0.05,0.38-0.1c0.18-0.03,0.32-0.06,0.41-0.11c0.1-0.04,0.24-0.06,0.43-0.06
			c0.18,0,0.31,0.03,0.38,0.1c0.07,0.06,0.11,0.12,0.11,0.18c0,0.02-0.01,0.04-0.02,0.08c-0.01,0.04-0.03,0.07-0.04,0.09
			c-0.01,0.02-0.04,0.05-0.07,0.07c-0.03,0.02-0.05,0.03-0.06,0.03c-0.03,0-0.07,0.03-0.14,0.08c-0.07,0.06-0.15,0.08-0.22,0.08
			c-0.07,0.02-0.18,0.05-0.33,0.1c-0.37,0.12-0.77,0.18-1.22,0.18c-0.65,0-1.09-0.06-1.32-0.18c-0.06-0.05-0.13-0.08-0.21-0.1
			c-0.07-0.01-0.17-0.07-0.3-0.19c-0.14-0.12-0.26-0.29-0.37-0.52c-0.12-0.26-0.19-0.43-0.22-0.53c-0.02-0.12-0.01-0.33,0.01-0.64
			c0.03-0.31,0.06-0.5,0.11-0.58c0.05-0.09,0.07-0.15,0.07-0.16c0-0.03,0.02-0.07,0.07-0.12c0.04-0.06,0.08-0.13,0.11-0.21
			c0.03-0.08,0.07-0.15,0.12-0.23c0.05-0.07,0.07-0.12,0.07-0.15c0-0.11,0.08-0.26,0.23-0.45c0.15-0.19,0.3-0.31,0.42-0.38
			c0.07-0.04,0.12-0.09,0.15-0.15c0.05-0.07,0.11-0.13,0.21-0.18c0.39-0.2,0.6-0.31,0.63-0.33C22.88,12.64,23.01,12.64,23.23,12.64
			 M23.84,15.02c0.15,0,0.24-0.01,0.25-0.03c0.05-0.07,0.07-0.22,0.05-0.44c-0.02-0.22-0.08-0.43-0.16-0.64
			c-0.05-0.12-0.13-0.24-0.25-0.35c-0.12-0.11-0.22-0.18-0.3-0.2c-0.08-0.01-0.16-0.02-0.22-0.02c-0.11,0-0.2,0.01-0.26,0.04
			c-0.14,0.05-0.32,0.17-0.54,0.37c-0.22,0.2-0.38,0.37-0.47,0.51c-0.05,0.1-0.09,0.17-0.14,0.22c-0.03,0.03-0.03,0.09-0.01,0.19
			v0.15l0.37,0.03c0.26,0.02,0.46,0.04,0.58,0.07c0.23,0.05,0.5,0.08,0.83,0.09C23.67,15.02,23.76,15.02,23.84,15.02 M23.23,12.39
			h-0.37h-0.08l-0.06,0.04c-0.04,0.02-0.24,0.13-0.6,0.31c-0.13,0.06-0.23,0.15-0.3,0.27l0,0l-0.05,0.06
			c-0.16,0.08-0.32,0.22-0.5,0.44c-0.19,0.23-0.28,0.41-0.29,0.58c0,0,0,0,0,0c0,0-0.01,0.02-0.03,0.05
			c-0.06,0.08-0.11,0.17-0.15,0.27c-0.02,0.06-0.05,0.11-0.08,0.15c-0.04,0.05-0.1,0.13-0.11,0.22c-0.01,0.02-0.02,0.05-0.05,0.1
			c-0.04,0.07-0.09,0.22-0.13,0.67c-0.03,0.33-0.03,0.55-0.01,0.7c0.04,0.15,0.12,0.33,0.24,0.6c0.12,0.26,0.27,0.46,0.43,0.6
			c0.17,0.16,0.3,0.23,0.43,0.25c0.01,0.01,0.05,0.02,0.09,0.05c0.3,0.16,0.76,0.22,1.46,0.22c0.47,0,0.91-0.06,1.3-0.19
			c0.12-0.04,0.22-0.07,0.29-0.09c0.11-0.01,0.23-0.05,0.33-0.13c0.02-0.02,0.04-0.03,0.05-0.04c0.06-0.01,0.1-0.04,0.14-0.07
			c0.06-0.04,0.11-0.09,0.14-0.14c0.02-0.03,0.04-0.07,0.06-0.13c0.02-0.06,0.04-0.12,0.04-0.17c0-0.13-0.07-0.25-0.19-0.36
			c-0.12-0.1-0.3-0.16-0.54-0.16c-0.21,0-0.38,0.02-0.51,0.07c-0.07,0.03-0.17,0.07-0.36,0.1c-0.31,0.07-0.39,0.09-0.44,0.11
			l-0.02,0.01l-0.02,0.01c0,0,0,0,0,0c-0.01,0-0.04,0-0.09,0c-0.16,0-0.41-0.04-0.75-0.11c-0.32-0.06-0.53-0.16-0.61-0.29
			c-0.06-0.1-0.11-0.19-0.17-0.26c-0.01-0.01-0.02-0.06-0.03-0.11c-0.01-0.07-0.02-0.15,0.01-0.29c0-0.02,0.01-0.04,0.01-0.05
			c0.01,0,0.02,0,0.02,0c0.13,0.01,0.19,0.03,0.21,0.04c0.1,0.06,0.28,0.09,0.54,0.1c0.29,0,0.38,0.04,0.4,0.04
			c0.11,0.04,0.28,0.07,0.98,0.09l0.74,0.03l0.09,0l0.07-0.06l0.14-0.11c0.22-0.15,0.32-0.44,0.28-0.83
			c-0.04-0.72-0.11-0.93-0.17-1.04c0,0,0,0,0,0c0,0-0.02-0.06-0.06-0.25c-0.03-0.33-0.21-0.63-0.53-0.88
			c-0.2-0.14-0.38-0.24-0.56-0.32C23.69,12.44,23.48,12.39,23.23,12.39L23.23,12.39z M22.02,14.6c0.05-0.06,0.09-0.14,0.14-0.23
			c0.06-0.09,0.21-0.24,0.41-0.43c0.26-0.23,0.4-0.3,0.46-0.32c0.04-0.02,0.08-0.03,0.18-0.03c0.06,0,0.12,0,0.19,0.01
			c-0.01,0,0.05,0.02,0.17,0.13c0.09,0.09,0.16,0.18,0.19,0.26c0.07,0.19,0.12,0.39,0.14,0.58c0.01,0.09,0.01,0.15,0.01,0.19
			c-0.02,0-0.04,0-0.07,0c-0.07,0-0.16,0-0.26-0.01c-0.31-0.01-0.58-0.04-0.79-0.08c-0.12-0.03-0.32-0.05-0.61-0.07L22.02,14.6
			L22.02,14.6z"/>
	</g>
</g>
<polygon class="st2" points="16.42,23.97 16.11,25.5 18.08,25.9 18.08,24.57 "/>
</svg>
