<?xml version="1.0" encoding="utf-8"?>
<!-- Generator: Adobe Illustrator 16.0.0, SVG Export Plug-In . SVG Version: 6.00 Build 0)  -->
<!DOCTYPE svg PUBLIC "-//W3C//DTD SVG 1.1//EN" "http://www.w3.org/Graphics/SVG/1.1/DTD/svg11.dtd">
<svg version="1.1" id="Layer_1" xmlns="http://www.w3.org/2000/svg" xmlns:xlink="http://www.w3.org/1999/xlink" x="0px" y="0px"
	 width="350px" height="240px" viewBox="0 0 350 240" enable-background="new 0 0 350 240" xml:space="preserve">
<rect fill="#FFFFFF" width="350" height="240"/>
<polygon fill="#E5E5E5" points="72.929,217.292 172.741,190.148 302.683,206.021 182.559,232.891 "/>
<polygon fill="#A17B09" points="232.23,200.92 222.449,200.92 216.171,112.795 225.953,112.795 "/>
<polygon fill="#858585" points="233.83,169.407 246.456,169.407 258.547,58.335 245.924,58.335 "/>
<polygon fill="#A17B09" points="243.615,208.316 237.566,208.316 220.852,48.977 226.896,48.977 "/>
<polygon fill="#A17B09" points="182.734,208.316 188.784,208.316 216.171,48.977 210.123,48.977 "/>
<polygon fill="#EEEFF1" points="244.322,169.407 166.298,169.407 178.923,58.335 256.949,58.335 "/>
<rect x="122.021" y="206.188" fill="#BB8F2C" width="22.48" height="3.422"/>
<polygon fill="#755700" points="133.63,194.116 144.504,206.188 120.597,206.188 119.258,198.99 "/>
<polygon fill="#856300" points="101.824,203.07 101.824,212.962 123.367,212.962 123.367,209.868 120.927,199.414 "/>
<rect x="101.824" y="209.868" fill="#CCAC13" width="21.542" height="3.094"/>
<g>
	<polygon fill="#856300" points="133.63,194.116 120.927,199.414 125.586,176.135 147.998,157.077 	"/>
	<polygon fill="#B58A00" points="142.628,170.916 132.88,173.861 139.231,179.68 	"/>
	<polygon fill="#9E7700" points="130.068,185.677 136.832,185.863 139.231,179.682 132.88,173.861 	"/>
</g>
<polygon fill="#9E7700" points="122.021,193.934 135.739,188.68 133.63,194.116 120.927,199.414 "/>
<polygon fill="#9E7700" points="120.927,199.414 101.938,194.773 98.739,166.078 125.586,176.135 "/>
<polygon fill="#CCAC13" points="143.455,116.662 148.508,119.169 143.455,128.57 141.826,127.469 "/>
<polygon fill="#464646" points="140.746,98.521 86.665,98.521 83.769,52.901 142.432,52.901 "/>
<polygon fill="#BE8F00" points="147.998,157.077 125.586,176.135 98.739,166.078 98.739,146.202 123.885,128.57 140.105,134.292 "/>
<polygon fill="#A17B09" points="98.481,147.075 126.253,130.48 140.105,134.292 "/>
<polygon fill="#CCAC13" points="95.568,105.242 82.26,113.18 90.012,129.369 105.708,127.124 "/>
<polygon fill="#E4C728" points="90.012,129.369 98.481,147.075 111.836,140.341 105.708,127.124 "/>
<polygon fill="#BE8F00" points="111.287,127.167 105.367,99.69 95.568,105.242 111.836,140.341 "/>
<polygon fill="#E4C728" points="117.712,108.598 105.367,99.69 111.287,127.167 123.773,124.54 "/>
<polygon fill="#8A6651" points="135.009,120.04 140.105,134.292 143.455,127.416 143.455,116.662 "/>
<polygon fill="#C3977A" points="149.968,114.054 140.105,134.292 154.874,136.893 159.163,120.437 "/>
<polygon fill="#C3977A" points="159.163,120.437 165.943,107.661 165.943,114.882 "/>
<polygon fill="#EA2675" points="179.145,96.85 168.696,101.191 166.446,95.789 179.145,90.548 "/>
<polygon fill="#EEEFF1" points="159.883,91.72 166.446,95.789 168.696,101.191 165.943,107.661 "/>
<polygon fill="#755700" points="51.769,56.651 83.769,52.901 88.174,39.844 "/>
<polygon fill="#BE8F00" points="68.373,41.475 51.769,56.651 88.174,39.844 "/>
<polygon fill="#9E7700" points="78.774,31.968 68.373,41.475 88.174,39.844 "/>
<polygon fill="#BE8F00" points="88.174,39.844 121.999,43.29 121.999,24.021 93.555,25.815 "/>
<polygon fill="#856300" points="88.174,39.844 121.999,24.021 143.661,35.647 127.864,43.759 "/>
<polygon fill="#9E7700" points="101.168,38.226 88.174,39.844 83.769,52.901 95.348,51.729 "/>
<polygon fill="#C3977A" points="105.367,99.69 117.712,108.598 132.198,90.782 107.725,51.729 83.769,52.901 "/>
<polygon fill="#8A6651" points="127.181,107.661 117.712,108.598 109.46,97.018 131.388,91.533 "/>
<polygon fill="#DFBCA4" points="147.998,91.533 112.196,95.789 107.725,51.729 144.856,50.088 "/>
<polygon fill="#C3977A" points="109.958,57.351 119.46,64.235 125.869,73.602 124.589,55.174 "/>
<polygon fill="#C3977A" points="135.043,68.683 132.198,52.292 142.484,53.625 138.527,58.621 "/>
<polygon fill="#856300" points="124.942,60.487 109.958,57.351 124.942,55.713 "/>
<polygon fill="#856300" points="133.621,59.535 133.621,53.744 142.484,53.625 "/>
<polygon fill="#E8C9B6" points="135.292,73.107 125.869,73.602 123.268,47.581 133.882,48.025 "/>
<g>
	<polygon fill="#464646" points="103.337,52.292 96.225,52.292 83.769,52.901 87.485,70.159 103.337,68.683 	"/>
</g>
<polygon fill="#DFBCA4" points="100.737,76.765 94.635,76.765 90.235,67.481 98.348,63.554 "/>
<polygon fill="#8A6651" points="97.689,73.602 95.487,67.624 93.002,68.747 "/>
<circle fill="#2B2B2B" cx="138.263" cy="63.251" r="1.989"/>
<line fill="none" stroke="#2B2B2B" stroke-width="1.25" stroke-miterlimit="10" x1="114.04" y1="64.235" x2="120.609" y2="64.809"/>
<line fill="none" stroke="#926E57" stroke-width="1.25" stroke-miterlimit="10" x1="115.286" y1="81.781" x2="135.292" y2="84.22"/>
<polygon fill="#926E57" points="125.869,73.602 131.735,76.155 135.292,73.107 "/>
<polygon fill="#EA2675" points="165.943,107.661 123.773,124.54 117.712,108.598 159.883,91.72 "/>
<polygon fill="#DFBCA4" points="165.943,107.661 149.968,114.054 152.007,104.005 162.468,98.521 "/>
<polygon fill="#8A6651" points="149.968,114.054 165.943,107.661 159.163,120.437 "/>
<polygon fill="#C3977A" points="140.105,134.292 127.167,132.676 123.773,124.54 135.009,120.04 "/>
<polygon fill="#DFBCA4" points="105.708,127.124 111.836,140.341 127.167,132.676 123.773,124.54 "/>
<polygon fill="#BE8F00" points="122.021,193.934 101.824,195.336 101.824,203.07 120.927,199.414 "/>
<g>
	<polygon fill="#856300" points="107.797,152.46 107.797,164.954 128.545,160.889 127.992,151.37 	"/>
	<polygon fill="#856300" points="147.998,157.077 145.69,150.417 134.726,151.008 135.222,159.578 	"/>
	<polygon fill="#CCAC13" points="134.726,151.008 127.992,151.37 128.545,160.889 135.222,159.578 	"/>
</g>
<g>
	<polygon fill="#CCAC13" points="116.117,194.116 111.487,196.17 107.797,152.46 113.086,152.172 	"/>
	<polygon fill="#E4C728" points="89.157,195.627 111.487,196.17 107.797,152.46 86.292,156.238 	"/>
	<polygon fill="#4F5252" points="75.739,142.676 79.47,142.676 82.812,147.752 80.736,149.764 	"/>
	<polygon fill="#4F5252" points="90.012,140.341 93.253,141.675 91.848,147.372 88.961,148.639 	"/>
	<polygon fill="#858585" points="96.134,154.507 91.848,147.372 88.961,148.639 93.087,155.042 99.737,165.361 101.094,162.762 	"/>
	<polygon fill="#6E7073" points="93.087,155.042 88.961,148.639 90.012,140.341 82.26,138.777 86.71,145.074 80.429,149.389 
		75.739,142.676 74.053,151.008 82.26,152.172 95.277,167.615 97.308,170.025 99.737,165.361 	"/>
	<polygon fill="#CCAC13" points="106.333,152.714 96.134,154.507 101.094,162.762 	"/>
</g>
<polygon fill="#464646" points="135.292,59.941 121.999,61.011 120.021,47.581 134.37,46.103 "/>
<polygon fill="#464646" points="118.334,61.226 101.785,62.512 101.168,52.901 119.74,50.088 "/>
<polygon fill="#464646" points="145.553,59.28 137.34,59.535 135.682,50.088 144.856,50.088 "/>
<g>
	<polygon fill="#E4C728" points="154.145,52.292 134.25,54.566 128.545,48.682 124.08,55.729 103.337,58.1 101.168,38.226 
		152.458,33.585 	"/>
	<polygon fill="#CCAC13" points="101.168,38.226 103.337,58.1 83.769,52.901 	"/>
	<polygon fill="#464646" points="108.09,51.4 107.725,42.774 125.703,40.805 119.712,50.789 	"/>
	<polygon fill="#464646" points="130.031,40.336 136.779,48.588 148.594,47.581 147.998,38.929 	"/>
</g>
<rect x="157.256" y="169.407" fill="#BE8F00" width="96.615" height="6.256"/>
<g>
	<path fill="#EA2675" d="M181.01,95.555c0,0,0.348-0.856,1.223-2.345c0.879-1.477,2.283-3.617,4.592-5.918
		c2.289-2.298,5.466-4.818,9.714-6.695c4.215-1.939,9.538-2.887,15.235-2.6c5.615,0.294,11.925,1.651,17.756,4.991
		c5.857,3.267,11.027,8.91,13.621,15.973c1.306,3.511,1.996,7.341,1.893,11.21c-0.087,3.866-0.932,7.755-2.428,11.381
		c-1.494,3.634-3.637,7.007-6.247,9.942c-2.604,2.953-5.702,5.421-8.993,7.468c-0.824,0.513-1.659,1.003-2.512,1.45l-0.639,0.343
		l-0.379,0.194l-0.305,0.152l-1.221,0.596c-1.832,0.83-3.645,1.551-5.526,2.113c-3.765,1.092-7.812,1.69-11.837,1.164
		c-4.008-0.476-7.917-1.994-11.109-4.373c-3.211-2.365-5.675-5.504-7.369-8.849c-1.705-3.354-2.604-6.935-2.99-10.421
		c-0.389-3.499-0.234-6.926,0.283-10.169c1.018-6.51,3.5-12.246,6.363-17.056c1.436-2.416,3.021-4.587,4.66-6.531
		c1.635-1.944,3.271-3.707,4.909-5.249c3.245-3.123,6.371-5.478,8.989-7.311c2.621-1.843,4.836-3.043,6.313-3.893
		c1.501-0.807,2.301-1.236,2.301-1.236l0.174,0.296c0,0-0.77,0.472-2.217,1.358c-1.424,0.918-3.527,2.26-6.039,4.182
		c-2.515,1.921-5.49,4.372-8.533,7.561c-3.047,3.176-6.188,7.073-8.861,11.785c-2.652,4.708-4.859,10.257-5.663,16.414
		c-0.8,6.096-0.246,12.919,2.901,18.912c1.554,2.979,3.768,5.691,6.574,7.707c2.797,2.021,6.166,3.289,9.666,3.659
		c3.508,0.402,7.099-0.112,10.521-1.127c3.413-1.051,6.687-2.618,9.743-4.534c6.087-3.798,11.226-9.281,13.938-15.833
		c2.77-6.506,2.973-13.917,0.68-20.248c-2.225-6.38-6.818-11.505-12.094-14.695c-5.295-3.232-11.129-4.688-16.506-5.139
		c-5.387-0.446-10.404,0.325-14.492,1.914c-4.107,1.571-7.293,3.823-9.621,5.933c-2.338,2.123-3.859,4.102-4.821,5.486
		c-0.959,1.397-1.353,2.201-1.353,2.201L181.01,95.555z"/>
</g>
<circle fill="#EA2675" cx="199.451" cy="109.292" r="2.998"/>
<circle fill="#EA2675" cx="224.198" cy="102.224" r="2.996"/>
<g>
	<path fill="#EA2675" d="M196.532,122.68c0,0,0.6,0.313,1.675,0.762c0.535,0.223,1.191,0.476,1.939,0.74
		c0.744,0.269,1.602,0.502,2.521,0.745c0.925,0.237,1.935,0.402,2.979,0.558c1.056,0.105,2.162,0.16,3.283,0.113
		c0.563-0.015,1.131-0.056,1.698-0.156c0.573-0.064,1.14-0.191,1.711-0.313l0.431-0.088l0.106-0.021l0.024-0.006l0.015-0.002
		c0.022-0.006-0.161,0.043-0.071,0.021l0.061-0.021l0.238-0.068l0.953-0.295l0.475-0.15l0.4-0.166l0.79-0.326
		c1.097-0.428,2.224-1.004,3.275-1.605c0.515-0.327,1.04-0.646,1.56-0.943c0.504-0.34,1.004-0.682,1.489-1.01
		c0.947-0.712,1.883-1.39,2.724-2.097c0.832-0.716,1.627-1.403,2.326-2.07c0.691-0.676,1.317-1.308,1.856-1.889
		c0.257-0.295,0.487-0.582,0.728-0.836c0.213-0.268,0.407-0.515,0.586-0.742c0.303-0.463,0.607-0.833,0.721-1.106
		c0.145-0.279,0.216-0.426,0.216-0.426l0.227,0.035c0,0-0.043,0.168-0.116,0.477c-0.061,0.32-0.256,0.744-0.483,1.288
		c-0.136,0.263-0.285,0.555-0.445,0.873c-0.187,0.306-0.383,0.632-0.599,0.98c-0.454,0.688-0.988,1.436-1.624,2.223
		c-0.634,0.78-1.361,1.595-2.171,2.417c-0.813,0.822-1.715,1.639-2.688,2.438c-0.499,0.383-1.007,0.778-1.521,1.174
		c-0.536,0.358-1.084,0.729-1.635,1.094c-1.137,0.687-2.313,1.326-3.565,1.85c-1.271,0.51-2.519,0.917-3.847,1.163
		c-0.651,0.127-1.306,0.245-1.953,0.271c-0.647,0.069-1.293,0.074-1.928,0.06c-1.268-0.017-2.479-0.208-3.615-0.437
		c-1.125-0.266-2.172-0.588-3.105-0.963c-0.938-0.375-1.777-0.767-2.49-1.166c-0.725-0.384-1.324-0.772-1.813-1.098
		c-0.979-0.654-1.485-1.105-1.485-1.105L196.532,122.68z"/>
</g>
</svg>
