<?xml version="1.0" encoding="utf-8"?>
<!-- Generator: Adobe Illustrator 16.0.0, SVG Export Plug-In . SVG Version: 6.00 Build 0)  -->
<!DOCTYPE svg PUBLIC "-//W3C//DTD SVG 1.1//EN" "http://www.w3.org/Graphics/SVG/1.1/DTD/svg11.dtd">
<svg version="1.1" id="Layer_1" xmlns="http://www.w3.org/2000/svg" xmlns:xlink="http://www.w3.org/1999/xlink" x="0px" y="0px"
	 width="279.933px" height="48.662px" viewBox="0 0 279.933 48.662" enable-background="new 0 0 279.933 48.662"
	 xml:space="preserve">
<g>
	<defs>
		<rect id="SVGID_1_" x="-46.176" y="-1063.824" width="1903" height="936"/>
	</defs>
	<clipPath id="SVGID_2_">
		<use xlink:href="#SVGID_1_"  overflow="visible"/>
	</clipPath>
	<g clip-path="url(#SVGID_2_)">
		<g>
			<g>
				<g>
					<g>
						<path fill="#FFF2A4" d="M105.931,5.712c-0.126,0.314-0.189,0.693-0.334,0.979C105.947,6.795,105.975,6.356,105.931,5.712z"/>
						<path fill="#FFF2A4" d="M118.212-497.034l2.511-7.127c3.638,8.763,2.158,15.003,5.613,8.338
							c-8.124-1.211-0.162-27.938-8.276-29.132l1.828-4.694c-0.112,1.355,0.36,1.584,0.249,2.923
							c4.124-9.114-5.726-6.983-4.278-18.819c0.724-4.119,1.977-6.977,2.875-4.134l-1.793-9.262
							c0.223-2.677,1.619-1.987,1.402,0.678l-0.311-14.068l0.237,0.11c-1.231-2.036-3.094-6.627-3.881-8.865
							c1.252-3.542,0.816,1.813,1.858,0.923l-1.787-7.828c2.187-3.118,4.083,3.379,3.648,8.746c8.309-7.07-1.897-6.506,3.232-22.072
							l0.861,7.371c4.733-4.625,3.198-10.398,6.279-18.635c-1.551,1.935-7.661,16.454-9.489,7.961
							c0.675-2.366,1.044-5.495-0.486-10.091c2.896,0.028,2.293-4.437,2.262-10.007l3.831,0.473
							c-0.963-6.044-2.928-5.615-4.571-9.198c0.542-6.698,3.546-8.017,6.088-9.535c0.869-10.726-4.944,7.302-5.362-5.428
							c1.685-8.897,0.269-15.208-1.77-25.95c1.471-6.22,2.323,1.151,3.469-1.065l-2.924-5.615c0.106-1.355,1.036-0.895,1.505-0.662
							c-1.075-4.698-3.825-0.477-4.693-7.844c-4.175-2.081,6.544-14.922,1.963-24.125c1.144-2.212,2.326,1.139,3.827,0.489
							c-2.848-12.542-2.029-10.742-6.022-21.08l2.729-8.659c-3.035,6.337-6.246-1.931-8.874-9.169
							c-1.446,2.238-2.71,4.151-3.323,5.44l-1.783-11.492c0.663-1.367,1.952-0.183,3.511,1.731
							c-0.299-0.789-0.594-1.535-0.871-2.119c1.517-4.058,3.681-1.883,5.752,1.1c-0.789,1.376-1.634,2.739-2.466,4.064
							c2.262,2.884,4.78,5.589,7.04,5.055c-0.424-0.754-0.77-2.195-0.946-3.775c0.615,0.754,1.169,1.24,1.561,0.907
							c0.414-0.379-0.407-1.594-1.34-3.488l4.339-2.499l-1.684-0.671l3.039-14.907c-4.048-10.816-10.16-20.286-11.516-37.329
							c3.035,4.293,5.101,1.03,8.812,1.349c-4.047,4.545,1.354,13.208,0.342,22c0.524-4.588,2.271-3.535,2.861-2.35l-3.2-15.801
							c3.029,0.428,2.359-3.282,3.716-7.356c-6.083,2.958-3.719-11.811-5.406-18.249c2.023-0.348,4.046,1.234,3.374,9.024
							c4.731-8.498-6.787-11.292-2.741-19.647c0.002,1.905-0.332,2.925,0.674,3.702c-1.687-4.491-0.004-15.335,1.695-12.733
							l-0.005,1.901c1.016-12.628,0.973-38.495-4.083-40.505c0.659-0.109,6.111,1.807,7.123,2.596l-16.624-22.978
							c4.335,2.093,14.956-5.284,17.178,5.262c0.697-2.996,1.514-6.704,0.123-13.088c-0.673,2.04-6.461,4.967-6.792,2.151
							c5.065-7.587,2.739-5.287,7.127-14.683c-1.018,3.055-7.802-0.531-7.466-5.391c1.011,0.785,6.792-0.241,7.464,1.555
							l-6.453-12.274c1.141,3.053,5.704,0.673,7.676-1.992c-1.351,1.225,0.377-10.466-0.217-13.711l-1.686,5.095
							c1.351-13.648-9.158-13.734-8.478-27.29c1.353,1.675,8.477,4.262,9.492-2.617c-3.378-3.245-16.277-14.399-18.648-26.466
							l2.033-2.253l-2.03-9.263c5.061,5.859,15.611,22.214,19.655,31.104c1.688-5.078,2.361-1.368,2.369-9.036
							c1.913-2.662,2.707,4.244,2.762,6.502l1.625-17.812c-4.052,0.696-3.715-13.741-7.091-13.142l3.712,19.478
							c-4.044,0.688-11.175-11.481-10.159-24.104c1.683-3.177,7.121,2.579,8.471,2.348c-1.35-1.674-2.364-12.062-1.35-13.199
							l2.027,5.415c1.686-7-5.068-11.613-1.015-19.977c0.33-2.913,5.402-8.59,3.03-9.153c-4.717,4.65-18.973,5.237-22.354,1.98
							c0.335-1.016,4.769-15.22,7.124-18.498c3.721-4.72,8.426,7.424,11.621,3.406c-1.097-0.202-2.392-2.891-2.801-4.008
							c1.016-3.042,3.381,1.352,3.044-5.321c-4.063-1.21,0.671-13.539-3.38-3.232c-1.011-6.543,1.008-6.904,1.014-14.559
							c-2.701,2.371-8.827-7.087-9.835-13.642c1.032,0.409,2.42-1.024,3.052-1.719c0.694-13.346,2.725-20.472,3.06-32.924
							c1.019-1.125,2.364-7.105,4.059-4.503c-0.68-1.809-2.027-3.488-2.033-7.332c3.715-7.348,0.343,8.578,4.726,3.014
							c-2.363-0.542-3.038-10.014-4.39-15.521c-3.709,1.595-1.008,12.624,0.343,18.139c-5.062-0.097-10.132-9.763-12.158-22.837
							c-1.008-10.375,3.378-4.406,2.703-6.219c1.354-19.41-8.44-16.768-4.401-32.816c3.382-6.324,6.427-0.133,8.787-1.497
							c1.018,8.457-2.359,12.888-2.367,18.604l1.697-6.996c1.003,2.707,1.683,8.352,0.673,11.394
							c3.029-5.296,1.351-32.815,4.386-47.743c-1.018-2.69-2.024-7.315-3.373-5.171l0.335,4.755
							c-2.706,4.297-3.381-9.015-4.74-3.039c-1.676-6.409-4.376-13.611-2.69-22.533l3.718-1.594
							c-1.08,0.166-2.334,5.802-1.271,8.348c-1.54-3.773,5.309-13.615,0.593-17.824l-2.7,6.219
							c-1.694-6.434-5.409-14.425-4.056-22.336c-3.719,3.524,0.372,1.839-4.014,7.378c5.402-4.763-0.713,20.303,5.033,12.582
							c-5.072,5.669-2.333,9.968-6.723,17.434c1.219-0.205,2.386-2.625,1.627,4.025c0.347,0.31,0.781,1.03,1.034,1.488
							c-0.036,0.204-0.06,0.274-0.102,0.449c0.056-0.132,0.097-0.232,0.152-0.364c0.172,0.292,0.212,0.319,0.052-0.136
							c0.567-1.574,1.238-2.845,1.927-3.351c2.706,3.375,2.363,13.972,3.719,17.59c-0.674,3.941-1.354-1.688-2.699,0.44l2.023,5.406
							c-2.706,0.465-4.726,10.399-6.08,1.044l-0.322,8.383c-1.63,4.9-2.395,11.676-1.362,15.892
							c-0.68,3.941,2.74,10.061,0.715,6.565l1.352,13.191l-0.677,0.105c-0.651,12.967,3.814,26.818-1.404,41.534
							c0.574,4.385,1.297,8.919,0.356,16.209l-2.363,1.368c0.676,5.628-2.741,16.786-0.371,19.254
							c-6.418,5.9-2.025,27.187-3.376,37.024l3.034,0.445c-0.337,6.786,0.369,13.317,1.385,21.774l2.704-0.453
							c2.031,7.32-2.364,18.634-2.363,30.133c-1.012-0.806-0.672-3.714-0.001-5.763c-6.407,13.584,3.72,29.077-1.006,41.423
							c0.902,3.126,0.515,5.365-0.215,7.525c0.002-0.289-0.041-0.548-0.121-0.772c-0.042,0.316-0.057,0.789-0.064,1.273
							c-0.496,1.358-1.067,2.757-1.538,4.275c0.689-1.283,1.256-2.514,1.531-3.59c-0.002,2.395,0.243,6.031,0.832,9.606
							l-2.926,1.446c0.033,0.289,0.021,0.523,0.063,0.825c-1.153,3.466,1.3,2.839,3.517,1.029c0.433,1.803,0.964,3.458,1.631,4.749
							c-4.733,2.723,1.344,9.372-3.725,13.123c2.37,2.456,1.396,17.93,6.451,19.949c-0.665,0.105-1.008,1.146-1.004-0.776
							c-0.677,3.953-1.353,7.902-0.001,11.495l-3.712,1.594l4.728,8.781c-2.364,5.208-3.717,7.356-6.418,2.064
							c4.039,12.721,1.391,10.275,5.44,21.107l-2.363-0.579c-0.002,3.835,3.028,10.043,1.011,12.309
							c-4.719,8.469-1.648,42.431-6.375,64.351c7.097-4.104-3.376,10.16,2.021,11.164c-1.684,1.242-2.692,4.289-4.046,0.688
							c1.356,11.277-3.027,16.821,1.354,24.69c-1.692,1.246-2.37-2.464-3.376-1.344c0.333,0.911,1.352,3.605,0.335,4.751
							c-1.01,1.121-1.347-1.679-2.026-3.476c0.001,11.487,5.069,12.771,9.833,13.722c-2.407,5.763-2.157,8.673,0.88,12.95
							c-1.613,1.988-3.333,5.327-3.722-1.82c-0.325,4.008-2.885,24.458,0.939,24.96c-1.003,1.233-0.419,5.602-0.003,6.669
							c-0.446,8.998-0.811,9.783-0.661,18.633l0.685-2.437c4.542,3.603,0.855,7.375,1.239,14.517l-0.471-0.216
							c-3.729,16.265,1.43,7.096-2.767,23.128l2.897-0.807c6.152,1.652-3.994,14.198-1.854,23.614l1.725-3.338
							c1.991,5.163-8.76,14.083-9.658,19.197c-0.564,1.106-0.82-1.787-1.184-3.359c-3.972,13.351,3.73,1.833,4.364,11.868
							c-2.077,1.797-5.112-2.505-5.655,4.226c-1.727,3.317,6.131,19.708,2.01,28.81c1.616-1.988,3.228-3.963,4.292,0.718
							c0.389,7.142-6.386,19.13-1.605,25.688c-0.448,0.896-0.866,1.229-1.257,1.257c1.143,5.48,1.688,17.762,4.288,21.108
							c-10.062,4.797,4.015,33.998-5.147,33.655l0.086,16.775l-0.925-0.462c-0.867,10.702,1.24,14.543,3.349,18.362
							c-0.684,2.462-1.498,0.633-1.971,0.416c-2.226,15.612-1.874,17.179,2.374,30.415l-3.007,1.294
							c1.644,3.6-5.206,22.521-2.109,37.961c-0.333-0.158-0.903-0.489-1.292-1.719c3.071,17.36-9.248,41.161,1.426,47.753
							l2.393,11.465c1.2-14.729,4.645,2.311,6.593-3.714c0.496,5.815-3.628,14.918-4.012,7.775l0.569-1.102
							c-5.583-2.755-2.443,18.28-6.277,17.791c-0.422,29.03-4.229,57.244-5.125,84.425l4.463-3.026l-0.481,9.479
							c-1.085,2.464-3.513,3.258-3.168-3.503c-2.572,3.498,1.807,11.396,2.759,11.611c-2.098,13.204-4.992-5.297-5.195-1.236
							l0.193,5.524l0.544-1.232c1.685,4.517,3.573,4.959,3.163,13.084c-1.003,5.124-2.77,2.574-2.989,4.596
							c-0.31-0.02-0.473,0.661-0.201,3.104l-0.66,11.938l3.577-4.694c1.577,5.337-0.453,11.229,3.605,5.813
							c-6.247,7.947-3.249,44.515-5.248,49.438c2.347,7.479,2.125,14.798,1.602,23.861c0.776-2.238,4.703-3.493,4.035,4.317
							c-7.965-3.055-3.833,14.24-9.765,20.423c3.97-5.558,0.409,22.261,6.065,13.526c-0.806,6.512-3.015,0.324-5.026,5.231
							c2.738,15.61-2.849,34.187-2.263,53.414c1.044,0.326,2.739-2.851,4.209,1.305l-5.52,10.013
							c0.427,3.805,6.006,3.638,2.177,10.478c0.914-0.955,2.283-2.385,2.56,0.167c-6.049,37.494,2.356,76.971-8.228,114.941
							c2.169-5.125,2.292-1.671,2.269,2.281c0.554-2.557,2.608,0.122,4.048-0.35l-4.356,15.899
							c3.898,3.011-0.146,17.153,3.609,18.915l-0.562-5.082c4.313,6.845,10.18-9.186,15.902-8.061
							c-4.91-7.665,8.019-19.705,1.03-32.255c1.238-2.702,1.796,2.375,3.163,0.946c-2.388-3.196-2.81-6.996-1.535-13.99l0.591,0.809
							c-0.128-19.734,2.503-28.132,4.659-50.247l-2.882,1.572c0.496-4.752,1.41-5.732,2.174-7.945
							c-4.175-5.566-0.564,13.366-5.195,8.273c5.934-6.175,0.898-33.569,7.571-37.679c0.21-7.324-3.341,2.066-3.126-5.253
							l1.825-1.899l-2.246-1.905c0.494-4.793,2.775-7.161,4.285-7.305c-0.207,1.161,0.34,3.321,0.44,4.573
							c2.244-6.176-0.29-17.573,0.443-19.695l-1.266,7.011c-1.181-20.027,1.742-44.376-1.407-63.773l-1.378,1.433
							c-2.122-14.805,1.758-11.774,1.004-27.992l0.305,0.597c-1.257-3.273-1.828-7.616-1.567-12.043
							c1.471,4.126,3.237-7.619,4.845-2.215c-2.276-16.055-1.9-7.96-6.627-18.642l2.28-2.381c-1.924-3.648-2.977-3.975-3.357-12.074
							c1.748,6.678,3.512-5.079,5.857,2.411c5.273-16.851-4.303-25.313,2.999-32.926c-5.968-7.941-3.772,14.601-4.985,10.204
							c-2.103,3.605-4.447-6.542-3.699-11.852c0.268-5.417,8.096-9.026,8.309-22.664c-0.059,1.356,0.4,1.459,0.344,2.812
							c1.693-5.065-1.885-10.049,0.814-16.247c-3.635-3.598,0.412-8.122-4.31-9.247l0.795,12.534
							c-1.069-7.121-6.465-13.903-3.488-25.519c0.934,0.933,2.108,4.438,2.755,6.844c1.484-3.382-0.768-6.6,0.755-10.106
							c4.729,1.125,0.668,15.226,4.106,22.91c2.095-3.618-3.097-14.453,1.959-10.513c-6.411-5.645,1.15-13.414-3.624-22.769
							l2.831,0.679c-0.41-1.473-1.681-4.532-1.544-7.22l3.573,4.958c-2.966-7.552,3.098-14.346,1.561-21.558
							c-0.275,15.016-3.511,3.288-5.743,9.585c-3.362-18.608,7.701-10.469,6.838-31.232c0.335,2.816-1.962,10.495-3.177,6.074
							c0.683-3.932,1.901-9.117,3.452-11.504c-0.259-13.749-2.977,2.039-4.586-3.851c3.581-4.593-1.25-6.778-2.213-12.827
							l2.895,0.028c2.235-15.607-5.932-4.297-3.348-18.333l3.87,6.053l-0.859-7.371l3.255,1.596
							c-2.25-8.053-1.56-10.526-0.445-18.334c-2.084,1.771-5.227-1.15-5.153-8.085c1.836-4.686,2.69,2.715,2.512-7.122
							c1.758,2.262,3.972,4.747,1.202,8.959c0.931,0.461,1.765,2.231,2.682,2.705c2.103-5.043,0.76-12.784,0.821-16.343
							c-0.14,1.367-0.336,3-0.77,3.829l-3.664-14.341c1.141-2.217,1.971-0.417,2.782,1.366c-0.242-2.894-1.525-4.921-1.67-9.17
							c2.326,1.154,4.76,0.95,5.719,6.982l-2.279-13.636c1.044-0.882,2.976-6.897,3.801-5.114
							c1.564-7.492-4.118-18.569-2.054-28.502c-0.443-0.528-0.854-1.579-1.138-3.708c0.758-9.363,3.843-17.6,0.887-28.79l4.37-6.204
							c-0.748-8.727-5.518,8.407-6.76-6.122c-1.098-10.293,3.689-3.742,4.948-7.314c-2-5.154-6.112-14.129-2.452-23.472
							C118.654-502.389,117.971-499.957,118.212-497.034z M118.932-604.418c0.559,2.094,2.331,6.287,0.589,7.766
							C116.263-599.101,117.893-600.896,118.932-604.418z M115.903-767.756c0.922,1.568,0.392,3.95-0.769,6.621
							C114.941-763.099,115.104-765.314,115.903-767.756z M106.73-1222.783c0.045,0.089,0.078,0.152,0.135,0.225
							C105.626-1217.946,106.111-1219.581,106.73-1222.783z M108.219-1232.387c-0.383-0.979-0.783-0.921-1.197-0.522
							c0.716,0.69,0.716,2.854,0.449,5.313C108.245-1228.263,108.799-1229.494,108.219-1232.387z M84.385-197.769l0.803-1.856
							C85.917-195.37,85.195-196.575,84.385-197.769z"/>
					</g>
				</g>
			</g>
		</g>
	</g>
	<g clip-path="url(#SVGID_2_)">
		<g>
			<g>
				<g>
					<g>
						<path fill="#FFF2A4" d="M275.877-713.015l-2.475,8.734c-3.682-10.646-2.234-18.285-5.655-10.101
							c8.13,1.366,0.304,34.102,8.424,35.448l-1.804,5.756c0.105-1.656-0.369-1.929-0.264-3.564
							c-4.078,11.183,5.762,8.445,4.375,22.914c-0.703,5.038-1.941,8.543-2.854,5.086l1.84,11.28
							c-0.209,3.271-1.609,2.449-1.406-0.807l0.383,17.169l-0.238-0.131c1.242,2.468,3.128,8.046,3.927,10.767
							c-1.234,4.342-0.826-2.201-1.863-1.1l1.826,9.531c-2.171,3.837-4.1-4.068-3.693-10.626c-8.273,8.746,1.93,7.916-3.12,26.99
							l-0.898-8.986c-4.71,5.711-3.145,12.738-6.184,22.836c1.542-2.384,7.577-20.192,9.449-9.85
							c-0.664,2.896-1.016,6.722,0.537,12.311c-2.896,0.006-2.271,5.448-2.211,12.248l-3.833-0.524
							c0.994,7.366,2.957,6.814,4.618,11.166c-0.507,8.184-3.505,9.835-6.04,11.724c-0.814,13.106,4.907-8.981,5.39,6.552
							c-1.639,10.885-0.192,18.568,1.901,31.653c-1.439,7.613-2.329-1.373-3.464,1.349l2.953,6.814
							c-0.099,1.656-1.031,1.105-1.501,0.828c1.099,5.72,3.827,0.529,4.733,9.51c4.186,2.483-6.468,18.308-1.84,29.479
							c-1.132,2.716-2.332-1.357-3.83-0.545c2.912,15.271,2.084,13.085,6.129,25.649l-2.686,10.608
							c3.003-7.777,6.255,2.271,8.921,11.069c1.435-2.752,2.688-5.104,3.295-6.687l1.841,14.005
							c-0.656,1.678-1.951,0.25-3.521-2.064c0.303,0.958,0.603,1.865,0.881,2.574c-1.496,4.975-3.671,2.35-5.758-1.264
							c0.782-1.691,1.62-3.366,2.445-4.996c-2.276-3.488-4.808-6.756-7.066-6.072c0.428,0.914,0.782,2.67,0.965,4.596
							c-0.619-0.913-1.175-1.498-1.565-1.086c-0.412,0.468,0.416,1.939,1.358,4.239l-4.326,3.11l1.687,0.797l-2.963,18.239
							c4.104,13.146,10.264,24.622,11.707,45.409c-3.057-5.199-5.106-1.187-8.819-1.525c4.024-5.604-1.422-16.104-0.454-26.852
							c-0.501,5.608-2.252,4.347-2.85,2.909l3.28,19.245c-3.031-0.481-2.343,4.038-3.679,9.031
							c6.068-3.695,3.78,14.366,5.499,22.202c-2.021,0.453-4.053-1.451-3.42-10.969c-4.688,10.439,6.845,13.689,2.841,23.945
							c-0.012-2.326,0.316-3.575-0.693-4.51c1.709,5.459,0.082,18.721-1.63,15.567l-0.005-2.321
							c-0.951,15.43-0.777,47.005,4.29,49.39c-0.658,0.143-6.12-2.12-7.136-3.069l16.742,27.819
							c-4.346-2.496-14.93,6.658-17.206-6.186c-0.681,3.667-1.48,8.204-0.056,15.979c0.663-2.499,6.437-6.152,6.781-2.72
							c-5.027,9.332-2.712,6.491-7.052,18.022c1.002-3.743,7.805,0.54,7.494,6.478c-1.015-0.944-6.791,0.389-7.473-1.795
							l6.516,14.894c-1.157-3.711-5.708-0.742-7.667,2.537c1.345-1.514-0.324,12.782,0.287,16.734l1.66-6.242
							c-1.281,16.679,9.228,16.639,8.617,33.196c-1.362-2.026-8.499-5.086-9.479,3.325c3.395,3.914,16.352,17.353,18.784,32.049
							l-2.021,2.779l2.077,11.279c-5.09-7.083-15.725-26.901-19.814-37.696c-1.662,6.222-2.354,1.702-2.323,11.063
							c-1.9,3.275-2.728-5.144-2.795-7.898l-1.535,21.766c4.049-0.906,3.786,16.723,7.159,15.943l-3.811-23.726
							c4.041-0.896,11.234,13.86,10.282,29.284c-1.667,3.901-7.134-3.049-8.484-2.749c1.359,2.026,2.426,14.692,1.417,16.095
							l-2.055-6.582c-1.65,8.569,5.127,14.107,1.117,24.373c-0.315,3.561-5.358,10.562-2.983,11.216
							c4.694-5.741,18.947-6.657,22.344-2.728c-0.33,1.244-4.691,18.646-7.03,22.68c-3.698,5.813-8.464-8.945-11.639-3.997
							c1.098,0.231,2.407,3.496,2.822,4.854c-1,3.728-3.389-1.604-3.018,6.537c4.07,1.421-0.602,16.537,3.396,3.899
							c1.045,7.973-0.973,8.441-0.939,17.786c2.688-2.932,8.864,8.528,9.905,16.518c-1.034-0.486-2.415,1.283-3.044,2.141
							c-0.626,16.301-2.62,25.027-2.893,40.233c-1.013,1.387-2.327,8.706-4.036,5.553c0.689,2.199,2.045,4.229,2.07,8.923
							c-3.677,9.021-0.386-10.468-4.742-3.614c2.367,0.629,3.089,12.183,4.47,18.886c3.701-1.998,0.944-15.425-0.436-22.138
							c5.063,0.048,10.183,11.777,12.275,27.709c1.061,12.65-3.356,5.426-2.671,7.63c-1.255,23.713,8.525,20.352,4.568,39.998
							c-3.35,7.767-6.427,0.252-8.779,1.949c-1.061-10.31,2.294-15.766,2.272-22.744l-1.662,8.563
							c-1.017-3.29-1.726-10.172-0.731-13.899c-3.002,6.507-1.184,40.076-4.144,58.342c1.032,3.27,2.062,8.901,3.399,6.265
							l-0.359-5.8c2.684-5.283,3.427,10.959,4.755,3.645c1.708,7.801,4.446,16.555,2.805,27.47l-3.709,1.998
							c1.079-0.218,2.304-7.115,1.229-10.208c1.559,4.584-5.24,16.694-0.502,21.767l2.668-7.63
							c1.727,7.831,5.482,17.535,4.17,27.211c3.701-4.354-0.381-2.24,3.977-9.063c-5.377,5.89,0.61-24.794-5.097-15.289
							c5.043-6.991,2.283-12.2,6.635-21.375c-1.219,0.267-2.373,3.237-1.648-4.892c-0.349-0.373-0.787-1.246-1.042-1.802
							c0.035-0.249,0.058-0.335,0.1-0.549c-0.055,0.162-0.096,0.284-0.151,0.446c-0.173-0.354-0.213-0.386-0.051,0.168
							c-0.559,1.929-1.224,3.49-1.91,4.116c-2.723-4.082-2.435-17.022-3.809-21.42c0.654-4.82,1.363,2.041,2.697-0.575l-2.051-6.571
							c2.704-0.605,4.673-12.76,6.075-1.358l0.28-10.238c1.605-6.004,2.335-14.285,1.282-19.418
							c0.66-4.819-2.792-12.244-0.749-8.004l-1.419-16.084l0.676-0.138c0.586-15.838-3.951-32.685,1.193-50.722
							c-0.596-5.344-1.342-10.869-0.438-19.781l2.356-1.703c-0.705-6.86,2.656-20.528,0.273-23.509
							c6.389-7.291,1.887-33.216,3.188-45.243l-3.036-0.502c0.302-8.288-0.437-16.252-1.496-26.561l-2.702,0.59
							c-2.069-8.907,2.269-22.779,2.209-36.817c1.017,0.97,0.691,4.525,0.031,7.034c6.338-16.672-3.869-35.442,0.795-50.58
							c-0.918-3.804-0.543-6.542,0.177-9.188c-0.001,0.353,0.044,0.669,0.125,0.94c0.04-0.387,0.053-0.963,0.058-1.555
							c0.489-1.665,1.053-3.38,1.516-5.24c-0.683,1.576-1.244,3.087-1.513,4.404c-0.01-2.923-0.273-7.359-0.881-11.715l2.918-1.806
							c-0.034-0.353-0.024-0.638-0.068-1.006c1.136-4.246-1.314-3.448-3.522-1.208c-0.442-2.194-0.982-4.208-1.655-5.773
							c4.719-3.39-1.392-11.422,3.658-16.071c-2.383-2.965-1.487-21.869-6.552-24.264c0.665-0.138,1.002-1.412,1.008,0.934
							c0.657-4.835,1.313-9.665-0.058-14.032l3.704-1.998l-4.772-10.652c2.338-6.391,3.68-9.032,6.408-2.608
							c-4.104-15.474-1.443-12.524-5.547-25.691l2.366,0.674c-0.018-4.683-3.079-12.218-1.074-15.012
							c4.676-10.404,1.433-51.82,6.048-78.644c-7.077,5.107,3.325-12.449-2.078-13.6c1.678-1.54,2.671-5.273,4.043-0.896
							c-1.413-13.748,2.942-20.576-1.48-30.122c1.686-1.544,2.382,2.976,3.383,1.594c-0.337-1.107-1.37-4.383-0.359-5.795
							c1.004-1.382,1.355,2.03,2.044,4.214c-0.06-14.022-5.135-15.52-9.904-16.613c2.378-7.068,2.113-10.617-0.946-15.796
							c1.603-2.449,3.306-6.549,3.731,2.17c0.305-4.897,2.761-29.897-1.066-30.457c0.997-1.52,0.391-6.844-0.031-8.142
							c0.4-10.99,0.761-11.954,0.566-22.755l-0.672,2.984c-4.561-4.336-0.893-8.991-1.313-17.705l0.472,0.258
							c3.646-19.906-1.466-8.643,2.649-28.271l-2.894,1.025c-6.161-1.932,3.922-17.388,1.734-28.853l-1.708,4.101
							c-2.018-6.275,8.688-17.313,9.561-23.569c0.559-1.357,0.829,2.171,1.2,4.084c3.905-16.353-3.74-2.185-4.425-14.427
							c2.068-2.223,5.125,2.987,5.634-5.237c1.71-4.074-6.232-23.973-2.156-35.141c-1.606,2.449-3.208,4.882-4.296-0.817
							c-0.425-8.713,6.289-23.441,1.474-31.381c0.443-1.1,0.86-1.512,1.25-1.552c-1.17-6.674-1.779-21.659-4.396-25.709
							c10.038-5.995-4.188-41.446,4.976-41.155l-0.171-20.476l0.928,0.55c0.812-13.075-1.314-17.734-3.442-22.369
							c0.671-3.014,1.495-0.792,1.969-0.535c2.146-19.089,1.787-20.997-2.529-37.095l3.001-1.621
							c-1.662-4.372,5.092-27.565,1.916-46.37c0.334,0.188,0.905,0.585,1.3,2.081c-3.16-21.15,9.039-50.375-1.669-58.274
							l-2.452-13.962c-1.125,17.998-4.657-2.756-6.574,4.625c-0.525-7.093,3.552-18.261,3.973-9.547l-0.563,1.353
							c5.598,3.285,2.35-22.35,6.188-21.805c0.274-35.445,3.938-69.939,4.696-103.131l-4.448,3.756l0.433-11.577
							c1.072-3.023,3.497-4.026,3.186,4.232c2.555-4.306-1.865-13.887-2.818-14.137c2.031-16.147,5.019,6.398,5.202,1.438
							l-0.222-6.741l-0.538,1.512c-1.708-5.489-3.598-6.003-3.229-15.929c0.977-6.269,2.757-3.18,2.966-5.651
							c0.31,0.02,0.47-0.814,0.185-3.792l0.6-14.583l-3.553,5.78c-1.604-6.493,0.396-13.714-3.635-7.044
							c6.206-9.788,3.022-54.386,4.996-60.425c-2.385-9.096-2.2-18.034-1.723-29.105c-0.765,2.742-4.686,4.329-4.058-5.215
							c7.981,3.619,3.761-17.436,9.662-25.066c-3.942,6.84-0.522-27.168-6.134-16.427c0.773-7.96,3.013-0.438,5-6.456
							c-2.818-19.018,2.675-41.772,1.99-65.236c-1.046-0.383-2.724,3.518-4.216-1.535l5.469-12.299
							c-0.446-4.638-6.025-4.358-2.23-12.761c-0.909,1.18-2.271,2.943-2.562-0.167c5.859-45.854-2.748-93.929,7.644-140.426
							c-2.144,6.286-2.284,2.071-2.281-2.754c-0.541,3.128-2.609-0.112-4.046,0.483l4.275-19.469
							c-3.914-3.621,0.059-20.942-3.706-23.041l0.587,6.196c-4.348-8.295-10.133,11.354-15.862,10.061
							c4.949,9.289-7.919,24.165-0.867,39.388c-1.224,3.316-1.808-2.875-3.167-1.11c2.404,3.868,2.846,8.501,1.606,17.056
							l-0.595-0.979c0.229,24.088-2.36,34.377-4.404,61.403l2.874-1.959c-0.472,5.807-1.381,7.017-2.134,9.729
							c4.203,6.737,0.496-16.324,5.153-10.172c-5.903,7.62-0.728,40.992-7.379,46.101c-0.173,8.944,3.331-2.57,3.153,6.369
							l-1.815,2.344l2.255,2.295c-0.469,5.858-2.739,8.781-4.248,8.977c0.201-1.42-0.357-4.05-0.463-5.577
							c-2.213,7.57,0.378,21.448-0.343,24.049l1.229-8.575c1.283,24.431-1.516,54.195,1.732,77.831l1.371-1.769
							c2.197,18.044-1.698,14.397-0.861,34.186l-0.308-0.724c1.274,3.978,1.867,9.271,1.628,14.68
							c-1.492-5.017-3.199,9.345-4.834,2.771c2.358,19.567,1.941,9.691,6.723,22.665l-2.268,2.938
							c1.942,4.427,2.997,4.811,3.418,14.692c-1.782-8.127-3.486,6.25-5.87-2.861c-5.188,20.643,4.433,30.841-2.831,40.235
							c6.009,9.611,3.698-17.876,4.933-12.526c2.085-4.431,4.481,7.925,3.76,14.417c-0.241,6.617-8.051,11.131-8.194,27.783
							c0.052-1.657-0.407-1.776-0.358-3.428c-1.667,6.207,1.937,12.241-0.731,19.845c3.653,4.341-0.37,9.92,4.358,11.228
							l-0.859-15.29c1.105,8.678,6.536,16.883,3.618,31.104c-0.939-1.127-2.131-5.389-2.79-8.317
							c-1.467,4.149,0.802,8.046-0.704,12.348c-4.735-1.308-0.746-18.578-4.223-27.91c-2.077,4.446,3.171,17.601-1.906,12.859
							c6.439,6.803-1.082,16.392,3.739,27.744l-2.834-0.789c0.417,1.792,1.704,5.51,1.581,8.792l-3.598-6.003
							c3.005,9.177-3.025,17.555-1.451,26.337c0.198-18.333,3.495-4.062,5.694-11.78c3.457,22.67-7.648,12.887-6.679,38.221
							c-0.349-3.433,1.909-12.839,3.146-7.459c-0.663,4.81-1.854,11.157-3.393,14.091c0.329,16.781,2.967-2.53,4.605,4.637
							c-3.557,5.657,1.285,8.257,2.279,15.628l-2.895,0.006c-2.156,19.083,5.954,5.163,3.441,22.333l-3.901-7.334l0.897,8.986
							l-3.264-1.902c2.291,9.798,1.614,12.828,0.539,22.375c2.075-2.191,5.232,1.331,5.194,9.797
							c-1.813,5.746-2.705-3.276-2.476,8.729c-1.77-2.736-3.997-5.739-1.248-10.919c-0.934-0.55-1.776-2.701-2.696-3.266
							c-2.077,6.185-0.695,15.617-0.738,19.962c0.133-1.671,0.321-3.667,0.75-4.686l3.737,17.456
							c-1.129,2.722-1.969,0.536-2.789-1.629c0.257,3.528,1.55,5.986,1.717,11.171c-2.332-1.378-4.765-1.095-5.755-8.445
							l2.349,16.614c-1.04,1.09-2.94,8.462-3.775,6.296c-1.526,9.167,4.212,22.61,2.199,34.764c0.445,0.64,0.862,1.916,1.157,4.512
							c-0.71,11.44-3.754,21.538-0.741,35.157l-4.338,7.634c0.792,10.642,5.475-10.34,6.791,7.379c1.151,12.55-3.67,4.62-4.91,8.997
							c2.026,6.265,6.184,17.163,2.571,28.619C275.463-706.472,276.133-709.451,275.877-713.015z M275.704-581.918
							c-0.57-2.549-2.363-7.642-0.629-9.472C278.346-588.446,276.725-586.232,275.704-581.918z M279.564-382.569
							c-0.93-1.901-0.412-4.815,0.735-8.093C280.503-388.267,280.351-385.561,279.564-382.569z M291.053,172.771
							c-0.045-0.108-0.079-0.186-0.136-0.272C292.132,166.85,291.656,168.853,291.053,172.771z M289.612,184.515
							c0.389,1.189,0.789,1.114,1.201,0.621c-0.72-0.833-0.731-3.475-0.476-6.48C289.566,179.479,289.019,180.991,289.612,184.515z
							 M308.183-1078.808l-0.793,2.278C306.639-1081.713,307.368-1080.253,308.183-1078.808z"/>
						<path fill="#FFF2A4" d="M267.915,1.908c0.457-2.416,1.009-3.759,1.568-4.648C268.778-2.884,268.163-1.791,267.915,1.908z"/>
					</g>
				</g>
			</g>
		</g>
	</g>
</g>
<g>
	<g>
		<path d="M1.795,9.474c0.598-0.747,1.197-1.123,1.797-1.123c0.449,0,0.86,0.151,1.235,0.449c0.374,0.301,0.674,0.825,0.899,1.572
			c0.225,0.75,0.523,1.836,0.898,3.258c0.374,2.021,0.598,3.257,0.674,3.706c0.298,0.525,0.599,1.572,0.898,3.146
			c0.972,4.268,1.646,6.814,2.022,7.638c0.374,0.6,0.618,1.572,0.73,2.92s0.281,2.021,0.505,2.021c0.374,0,0.748-0.522,1.123-1.572
			c0.374-1.048,0.599-2.021,0.674-2.92c0.149-0.973,0.43-1.703,0.843-2.19c0.411-0.486,0.618-0.916,0.618-1.292
			c0-0.449,0.337-1.609,1.011-3.481c0.674-1.871,1.16-3.106,1.46-3.707c0.523-0.674,1.272-1.309,2.247-1.909
			c2.845-1.946,5.391-0.599,7.638,4.044c0.748,1.572,1.309,2.658,1.685,3.257c0.599,0.974,0.936,1.535,1.011,1.685
			c0.599,0.898,1.16,1.909,1.685,3.033c0.972,1.647,1.685,2.846,2.134,3.594c0.748,1.05,1.124,1.836,1.124,2.358
			c0.073,0.449,0.354,0.918,0.842,1.404c0.486,0.487,0.842,0.729,1.067,0.729c0.374,0,0.748-1.084,1.123-3.257
			c0.074-1.422,0.298-2.695,0.674-3.818c0.225-1.048,0.337-1.871,0.337-2.472c0-0.747,0.186-1.533,0.562-2.358
			c0.374-0.823,0.635-1.722,0.786-2.695c0.074-0.823,0.225-1.46,0.449-1.909c0.374-0.523,0.635-1.573,0.786-3.146
			c0.225-1.646,0.599-2.825,1.123-3.538c0.523-0.711,1.236-0.954,2.134-0.729c0.599,0.15,0.972,0.337,1.123,0.562
			c0.149,0.225,0.411,0.861,0.786,1.909c0.748,2.097,0.86,3.782,0.337,5.055c-0.3,0.824-0.6,1.909-0.898,3.257
			c-0.225,1.423-0.488,2.434-0.786,3.032c-0.3,0.601-0.505,2.135-0.618,4.605s-0.356,4.119-0.73,4.941
			c-0.375,0.975-0.6,1.798-0.674,2.472c-0.151,0.898-0.394,1.667-0.73,2.303c-0.337,0.637-0.581,1.33-0.73,2.077
			c-0.151,0.825-0.6,1.629-1.348,2.415c-0.75,0.786-1.499,1.18-2.247,1.18c-1.348,0-2.734-0.898-4.156-2.696
			c-2.471-3.743-3.707-5.728-3.707-5.952s-0.188-0.486-0.562-0.786c-0.375-0.299-0.637-0.711-0.786-1.236
			c-0.225-0.598-0.75-1.497-1.572-2.695c-0.974-1.497-1.948-3.294-2.92-5.392c-1.199-2.095-1.909-3.145-2.134-3.145
			c-0.601,0-1.086,1.05-1.46,3.145c-0.225,0.899-0.505,1.724-0.842,2.472c-0.337,0.749-0.581,1.423-0.73,2.021
			c-0.151,0.749-0.263,1.235-0.337,1.46c-0.151,0.151-0.449,0.713-0.899,1.685c-0.524,0.825-0.898,1.424-1.123,1.798
			c-0.075,0.225-0.412,1.049-1.011,2.471c-0.6,1.423-1.162,2.397-1.685,2.92c-0.45,0.449-0.674,0.786-0.674,1.011
			s-0.3,0.618-0.898,1.18c-0.6,0.562-1.162,0.955-1.685,1.18c-0.6,0.225-1.236,0.15-1.91-0.225
			c-0.749-0.225-1.274-0.506-1.572-0.843c-0.3-0.337-0.544-0.843-0.73-1.517C6.493,42.158,6.4,41.223,6.4,40.024
			c-0.076-2.021-0.3-3.331-0.674-3.932c-0.225-0.522-0.45-1.608-0.674-3.257c-0.151-1.572-0.412-2.808-0.786-3.706
			c-0.375-0.898-0.674-1.983-0.898-3.258c-0.076-0.972-0.263-2.059-0.562-3.257c-0.6-2.92-0.898-4.83-0.898-5.729
			c0-0.747-0.112-1.533-0.337-2.358C0.745,12.582,0.821,10.897,1.795,9.474z"/>
		<path fill="#FFFFFF" d="M3.592,8.351c0.449,0,0.86,0.151,1.235,0.449c0.374,0.301,0.674,0.825,0.899,1.572
			c0.225,0.75,0.523,1.836,0.898,3.258c0.374,2.021,0.598,3.257,0.674,3.706c0.298,0.525,0.599,1.572,0.898,3.146
			c0.972,4.268,1.646,6.814,2.022,7.638c0.374,0.6,0.618,1.572,0.73,2.92s0.281,2.021,0.505,2.021c0.374,0,0.748-0.522,1.123-1.572
			c0.374-1.048,0.599-2.021,0.674-2.92c0.149-0.973,0.43-1.703,0.843-2.19c0.411-0.486,0.618-0.916,0.618-1.292
			c0-0.449,0.337-1.609,1.011-3.481c0.674-1.871,1.16-3.106,1.46-3.707c0.523-0.674,1.272-1.309,2.247-1.909
			c0.84-0.575,1.655-0.862,2.443-0.862c1.88,0,3.612,1.635,5.195,4.906c0.748,1.572,1.309,2.658,1.685,3.257
			c0.599,0.974,0.936,1.535,1.011,1.685c0.599,0.898,1.16,1.909,1.685,3.033c0.972,1.647,1.685,2.846,2.134,3.594
			c0.748,1.05,1.124,1.836,1.124,2.358c0.073,0.449,0.354,0.918,0.842,1.404c0.486,0.487,0.842,0.729,1.067,0.729
			c0.374,0,0.748-1.084,1.123-3.257c0.074-1.422,0.298-2.695,0.674-3.818c0.225-1.048,0.337-1.871,0.337-2.472
			c0-0.747,0.186-1.533,0.562-2.358c0.374-0.823,0.635-1.722,0.786-2.695c0.074-0.823,0.225-1.46,0.449-1.909
			c0.374-0.523,0.635-1.573,0.786-3.146c0.225-1.646,0.599-2.825,1.123-3.538c0.397-0.54,0.904-0.811,1.52-0.811
			c0.194,0,0.399,0.027,0.615,0.081c0.599,0.15,0.972,0.337,1.123,0.562c0.149,0.225,0.411,0.861,0.786,1.909
			c0.748,2.097,0.86,3.782,0.337,5.055c-0.3,0.824-0.6,1.909-0.898,3.257c-0.225,1.423-0.488,2.434-0.786,3.032
			c-0.3,0.601-0.505,2.135-0.618,4.605s-0.356,4.119-0.73,4.941c-0.375,0.975-0.6,1.798-0.674,2.472
			c-0.151,0.898-0.394,1.667-0.73,2.303c-0.337,0.637-0.581,1.33-0.73,2.077c-0.151,0.825-0.6,1.629-1.348,2.415
			c-0.75,0.786-1.499,1.18-2.247,1.18c-1.348,0-2.734-0.898-4.156-2.696c-2.471-3.743-3.707-5.728-3.707-5.952
			s-0.188-0.486-0.562-0.786c-0.375-0.299-0.637-0.711-0.786-1.236c-0.225-0.598-0.75-1.497-1.572-2.695
			c-0.974-1.497-1.948-3.294-2.92-5.392c-1.199-2.095-1.909-3.145-2.134-3.145c-0.601,0-1.086,1.05-1.46,3.145
			c-0.225,0.899-0.505,1.724-0.842,2.472c-0.337,0.749-0.581,1.423-0.73,2.021c-0.151,0.749-0.263,1.235-0.337,1.46
			c-0.151,0.151-0.449,0.713-0.899,1.685c-0.524,0.825-0.898,1.424-1.123,1.798c-0.075,0.225-0.412,1.049-1.011,2.471
			c-0.6,1.423-1.162,2.397-1.685,2.92c-0.45,0.449-0.674,0.786-0.674,1.011s-0.3,0.618-0.898,1.18
			c-0.6,0.562-1.162,0.955-1.685,1.18c-0.225,0.084-0.456,0.126-0.691,0.126c-0.392,0-0.798-0.116-1.219-0.351
			c-0.749-0.225-1.274-0.506-1.572-0.843c-0.3-0.337-0.544-0.843-0.73-1.517C6.493,42.158,6.4,41.223,6.4,40.024
			c-0.076-2.021-0.3-3.331-0.674-3.932c-0.225-0.522-0.45-1.608-0.674-3.257c-0.151-1.572-0.412-2.808-0.786-3.706
			c-0.375-0.898-0.674-1.983-0.898-3.258c-0.076-0.972-0.263-2.059-0.562-3.257c-0.6-2.92-0.898-4.83-0.898-5.729
			c0-0.747-0.112-1.533-0.337-2.358c-0.825-1.946-0.75-3.631,0.225-5.055C2.393,8.727,2.992,8.351,3.592,8.351 M3.592,7.351
			c-0.915,0-1.782,0.504-2.578,1.498c-0.016,0.02-0.03,0.04-0.044,0.061c-1.164,1.7-1.28,3.7-0.348,5.944
			c0.189,0.713,0.285,1.396,0.285,2.033c0,0.981,0.301,2.921,0.919,5.93c0.293,1.181,0.473,2.222,0.544,3.134
			c0.002,0.031,0.007,0.063,0.012,0.096c0.237,1.344,0.56,2.512,0.96,3.47c0.333,0.798,0.573,1.948,0.713,3.416
			c0.323,2.378,0.583,3.167,0.751,3.557c0.02,0.046,0.043,0.09,0.069,0.133c0.126,0.203,0.43,0.944,0.523,3.44
			c0,1.267,0.104,2.273,0.317,3.039c0.229,0.829,0.539,1.456,0.947,1.913c0.411,0.464,1.044,0.827,1.931,1.104
			c0.537,0.281,1.077,0.424,1.606,0.424c0.354,0,0.705-0.063,1.042-0.189c0.68-0.291,1.325-0.738,2.017-1.386
			c0.798-0.748,1.151-1.259,1.207-1.764c0.041-0.063,0.146-0.206,0.389-0.45c0.62-0.619,1.242-1.679,1.899-3.238
			c0.677-1.609,0.908-2.187,0.998-2.429c0.226-0.372,0.578-0.937,1.059-1.692c0.024-0.037,0.045-0.076,0.064-0.116
			c0.533-1.152,0.704-1.397,0.733-1.436c0.11-0.11,0.16-0.209,0.208-0.357c0.056-0.169,0.154-0.516,0.367-1.574
			c0.123-0.49,0.349-1.113,0.662-1.809c0.359-0.798,0.662-1.687,0.9-2.64c0.005-0.021,0.01-0.044,0.014-0.066
			c0.16-0.893,0.319-1.463,0.45-1.822c0.27,0.41,0.674,1.064,1.271,2.106c0.979,2.109,1.979,3.952,2.971,5.478
			c0.949,1.382,1.318,2.102,1.462,2.469c0.21,0.707,0.584,1.279,1.112,1.699c0.101,0.081,0.161,0.141,0.195,0.178
			c0.065,0.401,0.532,1.286,3.861,6.329c0.016,0.024,0.032,0.047,0.05,0.069c1.614,2.041,3.276,3.076,4.94,3.076
			c1.029,0,2.028-0.501,2.97-1.489c0.882-0.928,1.422-1.911,1.608-2.926c0.126-0.633,0.34-1.24,0.63-1.789
			c0.383-0.723,0.664-1.6,0.833-2.604c0.003-0.019,0.006-0.038,0.008-0.058c0.063-0.578,0.266-1.317,0.604-2.196
			c0.424-0.956,0.687-2.684,0.805-5.279c0.147-3.243,0.43-4.038,0.513-4.204c0.347-0.697,0.633-1.774,0.875-3.293
			c0.284-1.278,0.571-2.321,0.855-3.102c0.603-1.463,0.495-3.404-0.335-5.732c-0.535-1.492-0.752-1.912-0.896-2.127
			c-0.303-0.45-0.846-0.76-1.712-0.978c-0.295-0.074-0.583-0.111-0.858-0.111c-0.935,0-1.739,0.421-2.325,1.218
			c-0.63,0.857-1.059,2.164-1.308,3.996c-0.186,1.931-0.488,2.529-0.609,2.699c-0.031,0.042-0.058,0.087-0.081,0.134
			c-0.282,0.563-0.461,1.295-0.548,2.233c-0.137,0.869-0.374,1.678-0.704,2.405c-0.432,0.947-0.651,1.881-0.651,2.771
			c0,0.516-0.102,1.259-0.304,2.209c-0.386,1.174-0.623,2.509-0.703,3.969c-0.17,0.979-0.32,1.598-0.434,1.985
			c-0.017-0.017-0.034-0.034-0.052-0.052c-0.393-0.393-0.516-0.664-0.553-0.812c-0.039-0.725-0.45-1.617-1.283-2.793
			c-0.445-0.742-1.142-1.914-2.086-3.513c-0.529-1.129-1.104-2.164-1.709-3.077c-0.09-0.166-0.314-0.55-1.02-1.697
			c-0.357-0.57-0.905-1.632-1.633-3.163c-1.785-3.688-3.778-5.477-6.098-5.477c-0.99,0-2.001,0.349-3.007,1.037
			c-1.036,0.637-1.881,1.359-2.472,2.121c-0.04,0.052-0.075,0.107-0.104,0.167c-0.32,0.64-0.813,1.888-1.506,3.814
			c-0.943,2.619-1.07,3.401-1.07,3.82c0,0.002-0.004,0.2-0.382,0.646c-0.538,0.636-0.887,1.514-1.067,2.685
			c-0.003,0.022-0.006,0.045-0.008,0.068c-0.049,0.587-0.172,1.221-0.368,1.892c-0.142-1.185-0.399-2.079-0.78-2.722
			c-0.248-0.574-0.783-2.337-1.935-7.396c-0.293-1.542-0.588-2.593-0.915-3.249c-0.095-0.548-0.312-1.735-0.649-3.562
			c-0.004-0.024-0.01-0.049-0.017-0.074c-0.39-1.478-0.687-2.554-0.907-3.289c-0.288-0.955-0.69-1.63-1.23-2.064
			C4.892,7.574,4.267,7.351,3.592,7.351L3.592,7.351z"/>
	</g>
	<g>
		<path d="M50.764,1.499c0.523-0.522,1.16-0.635,1.91-0.337c0.748,0.301,1.123,0.75,1.123,1.348c0,0.376,0.186,0.862,0.562,1.461
			c0.374,0.6,0.618,1.535,0.73,2.808c0.112,1.274,0.354,2.209,0.73,2.808c0.374,0.601,0.598,1.648,0.674,3.146
			c0.149,1.723,0.337,2.92,0.562,3.594c0.748,1.797,1.123,4.156,1.123,7.076c0,2.996,0.711,3.521,2.134,1.572
			c0.449-0.599,0.823-1.084,1.123-1.46c2.696-3.818,5.091-6.065,7.188-6.739c0.598-0.149,1.797-0.225,3.594-0.225
			c1.797,0,3.106,0.225,3.931,0.674c0.823,0.601,1.46,1.162,1.909,1.685c2.696,3.445,4.043,5.543,4.043,6.29
			c0,0.225,0.168,0.638,0.505,1.235c0.337,0.601,0.562,1.199,0.674,1.798c0.112,0.6,0.354,1.273,0.73,2.021
			c0.225,0.6,0.467,2.116,0.73,4.549c0.261,2.434,0.317,4.25,0.168,5.447c-0.225,2.173-1.05,3.97-2.471,5.392
			c-0.525,0.524-1.235,0.786-2.134,0.786c-0.899,0-1.648-0.299-2.247-0.898c-1.199-1.124-1.235-2.696-0.112-4.718
			c0.599-0.973,0.898-2.471,0.898-4.492c0-1.946-0.263-3.219-0.786-3.819c-0.3-0.599-0.6-1.31-0.898-2.134
			c-0.076-0.674-0.562-1.854-1.46-3.538c-0.899-1.685-1.611-2.825-2.134-3.426c-0.449-0.523-1.086-0.786-1.909-0.786
			c-0.825,0-2.061,0.825-3.707,2.471c-1.648,1.648-2.64,2.827-2.977,3.538c-0.337,0.713-0.562,1.067-0.674,1.067
			s-0.319,0.3-0.618,0.898c-0.225,0.674-0.45,1.086-0.674,1.235c-0.225,0.225-0.6,1.123-1.123,2.695
			c-0.449,1.572-0.6,2.771-0.449,3.595c0.074,0.824,0.186,2.209,0.337,4.155v3.033l-0.786,1.123c-0.6,0.824-1.274,1.235-2.022,1.235
			c-0.749,0-1.572-0.449-2.471-1.348s-1.423-2.059-1.573-3.482c-0.151-1.497-0.225-2.656-0.225-3.481
			c0-0.674-0.151-1.497-0.449-2.471c-0.524-1.124-1.123-5.69-1.797-13.703c-0.375-3.369-0.937-6.29-1.685-8.761
			c-0.225-0.823-0.337-3.106-0.337-6.852C50.427,3.821,50.539,1.8,50.764,1.499z"/>
		<path fill="#FFFFFF" d="M51.901,1c0.243,0,0.5,0.054,0.772,0.162c0.748,0.301,1.123,0.75,1.123,1.348
			c0,0.376,0.186,0.862,0.562,1.461c0.374,0.6,0.618,1.535,0.73,2.808c0.112,1.274,0.354,2.209,0.73,2.808
			c0.374,0.601,0.598,1.648,0.674,3.146c0.149,1.723,0.337,2.92,0.562,3.594c0.748,1.797,1.123,4.156,1.123,7.076
			c0,1.815,0.261,2.724,0.784,2.724c0.34,0,0.79-0.384,1.351-1.151c0.449-0.599,0.823-1.084,1.123-1.46
			c2.696-3.818,5.091-6.065,7.188-6.739c0.598-0.149,1.797-0.225,3.594-0.225c1.797,0,3.106,0.225,3.931,0.674
			c0.823,0.601,1.46,1.162,1.909,1.685c2.696,3.445,4.043,5.543,4.043,6.29c0,0.225,0.168,0.638,0.505,1.235
			c0.337,0.601,0.562,1.199,0.674,1.798c0.112,0.6,0.354,1.273,0.73,2.021c0.225,0.6,0.467,2.116,0.73,4.549
			c0.261,2.434,0.317,4.25,0.168,5.447c-0.225,2.173-1.05,3.97-2.471,5.392c-0.525,0.524-1.235,0.786-2.134,0.786
			c-0.899,0-1.648-0.299-2.247-0.898c-1.199-1.124-1.235-2.696-0.112-4.718c0.599-0.973,0.898-2.471,0.898-4.492
			c0-1.946-0.263-3.219-0.786-3.819c-0.3-0.599-0.6-1.31-0.898-2.134c-0.076-0.674-0.562-1.854-1.46-3.538
			c-0.899-1.685-1.611-2.825-2.134-3.426c-0.449-0.523-1.086-0.786-1.909-0.786c-0.825,0-2.061,0.825-3.707,2.471
			c-1.648,1.648-2.64,2.827-2.977,3.538c-0.337,0.713-0.562,1.067-0.674,1.067s-0.319,0.3-0.618,0.898
			c-0.225,0.674-0.45,1.086-0.674,1.235c-0.225,0.225-0.6,1.123-1.123,2.695c-0.449,1.572-0.6,2.771-0.449,3.595
			c0.074,0.824,0.186,2.209,0.337,4.155v3.033l-0.786,1.123c-0.6,0.824-1.274,1.235-2.022,1.235c-0.749,0-1.572-0.449-2.471-1.348
			s-1.423-2.059-1.573-3.482c-0.151-1.497-0.225-2.656-0.225-3.481c0-0.674-0.151-1.497-0.449-2.471
			c-0.524-1.124-1.123-5.69-1.797-13.703c-0.375-3.369-0.937-6.29-1.685-8.761c-0.225-0.823-0.337-3.106-0.337-6.852
			c0-3.743,0.112-5.765,0.337-6.065C51.097,1.166,51.477,1,51.901,1 M51.901,0c-0.688,0-1.326,0.273-1.844,0.791
			c-0.034,0.034-0.066,0.071-0.095,0.109c-0.263,0.353-0.536,0.718-0.536,6.664c0,5.154,0.212,6.529,0.372,7.114
			c0.734,2.427,1.289,5.314,1.656,8.608c0.89,10.593,1.48,13.083,1.852,13.943c0.257,0.853,0.388,1.565,0.388,2.12
			c0,0.864,0.077,2.069,0.229,3.582c0.174,1.653,0.799,3.027,1.861,4.089c1.104,1.104,2.144,1.641,3.178,1.641
			c1.083,0,2.035-0.554,2.831-1.646l0.797-1.139c0.118-0.168,0.181-0.368,0.181-0.573v-3.033c0-0.025-0.001-0.052-0.003-0.077
			c-0.151-1.952-0.264-3.341-0.338-4.167c-0.003-0.031-0.007-0.062-0.013-0.092c-0.083-0.457-0.078-1.373,0.427-3.14
			c0.538-1.615,0.793-2.119,0.878-2.262c0.343-0.3,0.621-0.793,0.883-1.558c0.109-0.215,0.186-0.348,0.234-0.427
			c0.414-0.243,0.697-0.78,1.036-1.497c0.16-0.339,0.735-1.215,2.779-3.259c2.074-2.073,2.862-2.178,3-2.178
			c0.695,0,0.989,0.25,1.15,0.438c0.332,0.381,0.945,1.247,2.011,3.245c1.093,2.049,1.314,2.871,1.349,3.179
			c0.009,0.078,0.027,0.155,0.053,0.229c0.309,0.854,0.627,1.607,0.945,2.241c0.038,0.075,0.085,0.146,0.14,0.208
			c0.127,0.146,0.541,0.805,0.541,3.163c0,1.824-0.252,3.159-0.75,3.968c-1.728,3.108-0.799,4.96,0.28,5.972
			c0.766,0.768,1.76,1.169,2.931,1.169c1.168,0,2.124-0.363,2.84-1.079c1.583-1.583,2.512-3.601,2.759-5.996
			c0.158-1.266,0.103-3.122-0.169-5.656c-0.367-3.391-0.625-4.359-0.788-4.793c-0.013-0.034-0.027-0.066-0.043-0.099
			c-0.33-0.656-0.546-1.248-0.641-1.756c-0.132-0.703-0.396-1.41-0.785-2.104c-0.291-0.516-0.362-0.736-0.378-0.794
			c-0.022-0.772-0.592-2.177-4.255-6.858c-0.532-0.62-1.212-1.223-2.107-1.876c-0.036-0.026-0.073-0.05-0.112-0.07
			c-0.983-0.536-2.425-0.796-4.409-0.796c-1.922,0-3.142,0.081-3.836,0.254c-0.021,0.006-0.043,0.012-0.063,0.019
			c-2.325,0.747-4.838,3.066-7.683,7.091c-0.302,0.379-0.676,0.864-1.123,1.46c-0.099,0.136-0.188,0.249-0.265,0.343
			c-0.039-0.292-0.069-0.714-0.069-1.314c0-3.018-0.398-5.515-1.185-7.424c-0.137-0.427-0.332-1.349-0.504-3.332
			c-0.083-1.648-0.352-2.834-0.821-3.588c-0.2-0.318-0.461-0.984-0.583-2.367c-0.127-1.443-0.415-2.506-0.878-3.249
			c-0.399-0.636-0.41-0.903-0.41-0.932c0-0.587-0.228-1.663-1.75-2.275C52.654,0.078,52.27,0,51.901,0L51.901,0z"/>
	</g>
	<g>
		<path d="M97.6,11.271c1.722-0.747,3.032-0.635,3.931,0.338c0.598,0.6,0.786,1.311,0.562,2.134
			c-0.225,0.824-0.862,1.499-1.91,2.021c-0.6,0.376-1.086,0.786-1.46,1.235c-0.225,0.449-0.525,0.862-0.898,1.235
			c-0.151,0.151-0.244,0.337-0.281,0.562c-0.039,0.225-0.056,0.432-0.056,0.618c0,0.188,0.112,0.281,0.337,0.281
			c0.074,0,0.261-0.242,0.562-0.73c0.298-0.486,0.542-0.73,0.73-0.73c0.186,0,0.579-0.186,1.179-0.562
			c0.523-0.449,1.497-0.898,2.92-1.348c1.272-0.599,3.406-1.028,6.402-1.292c2.994-0.261,4.791-0.317,5.391-0.168
			c0.748,0.225,1.348,0.337,1.797,0.337c0.599,0,1.573,0.3,2.92,0.898c1.421,0.749,2.508,1.572,3.257,2.471
			c1.047,1.349,1.46,3.745,1.235,7.188c-0.151,2.173-0.525,3.932-1.123,5.279c-0.6,1.198-1.123,2.209-1.573,3.032
			c-0.449,0.601-1.404,1.611-2.864,3.033c-1.46,1.423-2.303,2.134-2.527,2.134c-0.151,0-0.674,0.449-1.572,1.348
			c-1.573,1.423-4.043,2.734-7.413,3.932c-1.948,0.6-4.119,0.898-6.515,0.898c-2.397,0-4.343-0.411-5.84-1.236
			c-2.322-1.123-4.007-2.695-5.054-4.717c-0.375-0.823-0.674-1.497-0.898-2.021c-0.376-0.599-0.562-2.545-0.562-5.841
			c0-3.294,0.186-5.54,0.562-6.739c1.572-5.989,3.182-9.508,4.83-10.558c0.225-0.225,0.748-0.711,1.572-1.46
			C96.213,12.17,96.999,11.646,97.6,11.271z M115.795,20.931c-0.6-0.225-1.404-0.374-2.415-0.449
			c-1.011-0.074-1.779,0.038-2.302,0.337c-0.225,0.075-1.46,0.188-3.707,0.337c-2.397,0.075-4.38,0.487-5.953,1.235
			c-1.573,0.824-2.471,1.235-2.696,1.235c-0.825,0-1.386-0.599-1.685-1.797c-0.3-1.048-0.75-0.674-1.348,1.123
			c-1.123,2.397-1.685,5.093-1.685,8.087c0,2.021,0.13,3.445,0.393,4.268c0.261,0.825,0.804,1.611,1.628,2.359
			c0.823,0.824,1.91,1.348,3.257,1.572c3.443,0.6,6.776-0.037,9.996-1.909c0.374-0.225,0.86-0.486,1.46-0.786
			c0.374-0.225,0.972-0.73,1.797-1.517c0.823-0.786,1.666-1.59,2.527-2.415c0.86-0.823,1.441-1.46,1.741-1.909
			c1.722-2.32,2.583-3.893,2.583-4.718c0-0.972-0.356-1.927-1.067-2.864C117.609,22.186,116.767,21.455,115.795,20.931z"/>
		<path fill="#FFFFFF" d="M99.611,10.783c0.771,0,1.411,0.275,1.919,0.825c0.598,0.6,0.786,1.311,0.562,2.134
			c-0.225,0.824-0.862,1.499-1.91,2.021c-0.6,0.376-1.086,0.786-1.46,1.235c-0.225,0.449-0.525,0.862-0.898,1.235
			c-0.151,0.151-0.244,0.337-0.281,0.562c-0.039,0.225-0.056,0.432-0.056,0.618c0,0.188,0.112,0.281,0.337,0.281
			c0.074,0,0.261-0.242,0.562-0.73c0.298-0.486,0.542-0.73,0.73-0.73c0.186,0,0.579-0.186,1.179-0.562
			c0.523-0.449,1.497-0.898,2.92-1.348c1.272-0.599,3.406-1.028,6.402-1.292c1.906-0.166,3.328-0.249,4.264-0.249
			c0.534,0,0.91,0.026,1.127,0.081c0.748,0.225,1.348,0.337,1.797,0.337c0.599,0,1.573,0.3,2.92,0.898
			c1.421,0.749,2.508,1.572,3.257,2.471c1.047,1.349,1.46,3.745,1.235,7.188c-0.151,2.173-0.525,3.932-1.123,5.279
			c-0.6,1.198-1.123,2.209-1.573,3.032c-0.449,0.601-1.404,1.611-2.864,3.033c-1.46,1.423-2.303,2.134-2.527,2.134
			c-0.151,0-0.674,0.449-1.572,1.348c-1.573,1.423-4.043,2.734-7.413,3.932c-1.948,0.6-4.119,0.898-6.515,0.898
			c-2.397,0-4.343-0.411-5.84-1.236c-2.322-1.123-4.007-2.695-5.054-4.717c-0.375-0.823-0.674-1.497-0.898-2.021
			c-0.376-0.599-0.562-2.545-0.562-5.841c0-3.294,0.186-5.54,0.562-6.739c1.572-5.989,3.182-9.508,4.83-10.558
			c0.225-0.225,0.748-0.711,1.572-1.46c0.972-0.674,1.758-1.197,2.359-1.573C98.348,10.946,99.019,10.783,99.611,10.783
			 M98.723,23.626c-0.825,0-1.386-0.599-1.685-1.797c-0.111-0.386-0.242-0.579-0.393-0.579c-0.259,0-0.578,0.567-0.956,1.702
			c-1.123,2.397-1.685,5.093-1.685,8.087c0,2.021,0.13,3.445,0.393,4.268c0.261,0.825,0.804,1.611,1.628,2.359
			c0.823,0.824,1.91,1.348,3.257,1.572c0.835,0.146,1.664,0.218,2.486,0.218c2.567,0,5.071-0.709,7.51-2.127
			c0.374-0.225,0.86-0.486,1.46-0.786c0.374-0.225,0.972-0.73,1.797-1.517c0.823-0.786,1.666-1.59,2.527-2.415
			c0.86-0.823,1.441-1.46,1.741-1.909c1.722-2.32,2.583-3.893,2.583-4.718c0-0.972-0.356-1.927-1.067-2.864
			c-0.713-0.935-1.555-1.665-2.527-2.189c-0.6-0.225-1.404-0.374-2.415-0.449c-0.201-0.015-0.393-0.022-0.575-0.022
			c-0.732,0-1.309,0.12-1.728,0.359c-0.225,0.075-1.46,0.188-3.707,0.337c-2.397,0.075-4.38,0.487-5.953,1.235
			C99.846,23.215,98.947,23.626,98.723,23.626 M99.611,9.783L99.611,9.783c-0.728,0-1.539,0.192-2.41,0.57
			c-0.046,0.02-0.09,0.043-0.133,0.069c-0.624,0.391-1.431,0.929-2.398,1.599c-0.036,0.025-0.07,0.053-0.103,0.082
			c-0.748,0.68-1.263,1.156-1.533,1.42c-1.872,1.273-3.515,4.803-5.164,11.084c-0.396,1.259-0.595,3.562-0.595,6.993
			c0,4.409,0.331,5.697,0.668,6.295c0.224,0.521,0.517,1.182,0.882,1.982c0.007,0.016,0.014,0.03,0.022,0.045
			c1.14,2.201,2.985,3.932,5.483,5.146c1.635,0.895,3.754,1.348,6.299,1.348c2.485,0,4.776-0.317,6.809-0.942
			c3.517-1.249,6.125-2.64,7.79-4.146c0.737-0.735,1.067-1.017,1.203-1.121c0.417-0.107,1.047-0.557,2.924-2.385
			c1.512-1.474,2.483-2.504,2.967-3.151c0.028-0.038,0.054-0.077,0.077-0.119c0.444-0.813,0.964-1.814,1.589-3.063
			c0.663-1.49,1.068-3.379,1.227-5.658c0.244-3.734-0.229-6.308-1.443-7.871c-0.851-1.021-2.048-1.935-3.581-2.742
			c-0.02-0.011-0.04-0.02-0.061-0.029c-1.512-0.672-2.569-0.984-3.326-0.984c-0.241,0-0.699-0.051-1.509-0.295
			c-0.35-0.088-0.785-0.123-1.415-0.123c-0.972,0-2.395,0.082-4.351,0.253c-3.099,0.272-5.285,0.716-6.679,1.354
			c-0.274,0.087-0.534,0.175-0.778,0.264c0.485-0.48,0.814-1.031,0.983-1.65c0.32-1.172,0.037-2.245-0.818-3.103
			C101.572,10.18,100.654,9.783,99.611,9.783L99.611,9.783z M98.723,24.626c0.342,0,0.77-0.097,3.16-1.35
			c1.406-0.668,3.274-1.051,5.52-1.121c3.534-0.234,3.799-0.324,3.993-0.389c0.062-0.021,0.122-0.048,0.179-0.08
			c0.182-0.104,0.542-0.228,1.231-0.228c0.159,0,0.326,0.007,0.501,0.02c0.874,0.065,1.572,0.188,2.075,0.366
			c0.815,0.451,1.537,1.084,2.146,1.882c0.579,0.765,0.862,1.504,0.862,2.258c0,0.151-0.115,1.061-2.387,4.122
			c-0.206,0.306-0.626,0.822-1.629,1.782l-2.09,1.998l-0.436,0.416c-0.957,0.912-1.402,1.245-1.593,1.365
			c-0.611,0.306-1.098,0.569-1.489,0.804c-2.261,1.314-4.619,1.984-6.996,1.984c-0.761,0-1.54-0.068-2.314-0.203
			c-1.156-0.192-2.044-0.615-2.721-1.294c-0.724-0.657-1.177-1.304-1.382-1.954c-0.159-0.495-0.347-1.583-0.347-3.966
			c0-2.828,0.534-5.403,1.586-7.653C97.236,24.435,98.15,24.626,98.723,24.626L98.723,24.626z"/>
	</g>
	<g>
		<path d="M161.506,9.361c0.674-0.449,2.564-0.654,5.672-0.617c3.106,0.038,4.886,0.28,5.335,0.729s0.992,0.693,1.629,0.73
			c0.635,0.038,1.067,0.319,1.292,0.842c1.197,2.022,2.171,3.146,2.92,3.37c0.972,0.6,1.46,1.909,1.46,3.931
			c0,1.199,0.168,2.098,0.505,2.696c0.337,0.6,0.505,1.797,0.505,3.594s-0.151,3.408-0.449,4.83
			c-0.375,1.498-0.562,2.995-0.562,4.492c0,1.572-0.3,2.659-0.898,3.258c-0.6,0.749-0.898,1.311-0.898,1.685
			c0,0.075-0.188,0.356-0.562,0.842c-0.375,0.488-0.805,0.918-1.292,1.292c-0.488,0.376-0.842,0.562-1.067,0.562
			s-0.562,0.225-1.011,0.674l-2.359,2.021l-1.797,1.349l-4.156,0.225h-4.156l-1.011-0.674c-0.375-0.374-1.162-0.973-2.358-1.798
			c-0.825-0.598-1.235-0.972-1.235-1.123c0-0.225-0.488-0.898-1.46-2.021l-1.685-1.797v-3.707c0-2.171,0.13-3.65,0.393-4.437
			c0.261-0.786,0.804-1.365,1.628-1.74c0.599-0.299,0.898-0.711,0.898-1.236c0-0.449,0.113-0.859,0.337-1.235
			c0.225-0.373,0.486-0.562,0.786-0.562c0.823,0,1.946-0.599,3.37-1.797c0.449-0.374,1.421-0.674,2.92-0.898
			c1.646-0.225,3.482-0.262,5.504-0.112c1.721,0.225,2.732,0.524,3.032,0.898c0.523,0.449,0.823,0.601,0.899,0.449
			c0.149,0,0.168-0.916,0.056-2.752c-0.112-1.834-0.45-3.089-1.011-3.763s-1.442-1.309-2.639-1.909
			c-1.199-0.599-2.51-0.898-3.931-0.898c-1.573,0.15-2.808,0.469-3.707,0.955c-0.898,0.487-1.573,0.729-2.022,0.729
			c-0.375,0-1.123,0.506-2.246,1.517s-1.797,1.741-2.022,2.19c-0.3,0.524-0.188,0.937,0.337,1.235
			c0.599,0.749,0.486,1.61-0.337,2.583c-0.749,0.825-1.348,1.123-1.797,0.898c-0.6-0.149-0.974-0.262-1.123-0.337
			c-0.601-0.522-0.899-1.646-0.899-3.369c0-1.722,0.298-2.957,0.899-3.707c0.449-0.449,0.674-0.954,0.674-1.516
			c0-0.563,0.449-1.217,1.348-1.966c0.898-0.748,1.497-1.422,1.797-2.021c0.225-1.197,1.047-1.798,2.471-1.798
			C160.231,10.147,160.905,9.887,161.506,9.361z M170.997,29.522c-0.337-0.486-1.499-0.767-3.482-0.842
			c-1.985-0.074-3.389,0.188-4.212,0.786c-0.6,0.375-1.479,1.198-2.64,2.471c-1.162,1.274-1.741,2.021-1.741,2.246
			s0.149,0.544,0.449,0.955c0.298,0.412,0.635,0.806,1.011,1.18c0.374,0.375,0.674,0.562,0.899,0.562s0.542,0.15,0.955,0.449
			c0.411,0.3,0.618,0.637,0.618,1.011c0,0.824,0.972,1.235,2.92,1.235c1.197,0,2.339-0.262,3.425-0.786
			c1.085-0.523,1.646-0.936,1.685-1.235c0.037-0.299,0.43-0.599,1.179-0.898c0.599-0.225,1.011-0.579,1.235-1.067
			c0.225-0.486,0.298-1.365,0.225-2.64V30.59l-1.124-0.225C171.8,30.291,171.333,30.011,170.997,29.522z"/>
		<path fill="#FFFFFF" d="M166.485,8.74c0.224,0,0.455,0.001,0.693,0.004c3.106,0.038,4.886,0.28,5.335,0.729
			s0.992,0.693,1.629,0.73c0.635,0.038,1.067,0.319,1.292,0.842c1.197,2.022,2.171,3.146,2.92,3.37c0.972,0.6,1.46,1.909,1.46,3.931
			c0,1.199,0.168,2.098,0.505,2.696c0.337,0.6,0.505,1.797,0.505,3.594s-0.151,3.408-0.449,4.83
			c-0.375,1.498-0.562,2.995-0.562,4.492c0,1.572-0.3,2.659-0.898,3.258c-0.6,0.749-0.898,1.311-0.898,1.685
			c0,0.075-0.188,0.356-0.562,0.842c-0.375,0.488-0.805,0.918-1.292,1.292c-0.488,0.376-0.842,0.562-1.067,0.562
			s-0.562,0.225-1.011,0.674l-2.359,2.021l-1.797,1.349l-4.156,0.225h-4.156l-1.011-0.674c-0.375-0.374-1.162-0.973-2.358-1.798
			c-0.825-0.598-1.235-0.972-1.235-1.123c0-0.225-0.488-0.898-1.46-2.021l-1.685-1.797v-3.707c0-2.171,0.13-3.65,0.393-4.437
			c0.261-0.786,0.804-1.365,1.628-1.74c0.599-0.299,0.898-0.711,0.898-1.236c0-0.449,0.113-0.859,0.337-1.235
			c0.225-0.373,0.486-0.562,0.786-0.562c0.823,0,1.946-0.599,3.37-1.797c0.449-0.374,1.421-0.674,2.92-0.898
			c0.988-0.135,2.043-0.202,3.167-0.202c0.75,0,1.528,0.03,2.337,0.09c1.721,0.225,2.732,0.524,3.032,0.898
			c0.392,0.337,0.659,0.506,0.8,0.506c0.047,0,0.08-0.019,0.099-0.057c0.149,0,0.168-0.916,0.056-2.752
			c-0.112-1.834-0.45-3.089-1.011-3.763s-1.442-1.309-2.639-1.909c-1.199-0.599-2.51-0.898-3.931-0.898
			c-1.573,0.15-2.808,0.469-3.707,0.955c-0.898,0.487-1.573,0.729-2.022,0.729c-0.375,0-1.123,0.506-2.246,1.517
			s-1.797,1.741-2.022,2.19c-0.3,0.524-0.188,0.937,0.337,1.235c0.599,0.749,0.486,1.61-0.337,2.583
			c-0.588,0.647-1.083,0.971-1.487,0.971c-0.11,0-0.213-0.024-0.31-0.072c-0.6-0.149-0.974-0.262-1.123-0.337
			c-0.601-0.522-0.899-1.646-0.899-3.369c0-1.722,0.298-2.957,0.899-3.707c0.449-0.449,0.674-0.954,0.674-1.516
			c0-0.563,0.449-1.217,1.348-1.966c0.898-0.748,1.497-1.422,1.797-2.021c0.225-1.197,1.047-1.798,2.471-1.798
			c0.748,0,1.421-0.261,2.022-0.786C162.128,8.946,163.788,8.74,166.485,8.74 M165.774,39.575c1.197,0,2.339-0.262,3.425-0.786
			c1.085-0.523,1.646-0.936,1.685-1.235c0.037-0.299,0.43-0.599,1.179-0.898c0.599-0.225,1.011-0.579,1.235-1.067
			c0.225-0.486,0.298-1.365,0.225-2.64V30.59l-1.124-0.225c-0.6-0.074-1.067-0.354-1.404-0.843
			c-0.337-0.486-1.499-0.767-3.482-0.842c-0.219-0.008-0.432-0.013-0.636-0.013c-1.652,0-2.843,0.267-3.576,0.799
			c-0.6,0.375-1.479,1.198-2.64,2.471c-1.162,1.274-1.741,2.021-1.741,2.246s0.149,0.544,0.449,0.955
			c0.298,0.412,0.635,0.806,1.011,1.18c0.374,0.375,0.674,0.562,0.899,0.562s0.542,0.15,0.955,0.449
			c0.411,0.3,0.618,0.637,0.618,1.011C162.854,39.164,163.826,39.575,165.774,39.575 M166.485,7.74
			c-3.855,0-4.982,0.422-5.534,0.789c-0.036,0.024-0.071,0.051-0.104,0.079c-0.415,0.363-0.861,0.539-1.364,0.539
			c-2.441,0-3.191,1.468-3.42,2.452c-0.192,0.335-0.604,0.862-1.488,1.599c-1.149,0.958-1.708,1.853-1.708,2.734
			c0,0.184-0.04,0.467-0.381,0.809c-0.026,0.025-0.051,0.054-0.074,0.082c-0.752,0.939-1.118,2.356-1.118,4.332
			c0,2.047,0.406,3.396,1.243,4.124c0.063,0.054,0.131,0.101,0.206,0.138c0.163,0.082,0.428,0.188,1.248,0.394
			c0.201,0.082,0.415,0.123,0.636,0.123c0.715,0,1.423-0.413,2.227-1.299c1.56-1.842,0.905-3.22,0.378-3.879
			c-0.06-0.075-0.129-0.141-0.207-0.194c0.091-0.161,0.448-0.666,1.78-1.864c1.106-0.995,1.542-1.216,1.653-1.261
			c0.622-0.021,1.395-0.292,2.422-0.85c0.767-0.415,1.869-0.695,3.277-0.834c1.241,0.007,2.397,0.273,3.438,0.793
			c1.07,0.537,1.851,1.094,2.318,1.654c0.236,0.284,0.652,1.075,0.781,3.185c0.025,0.415,0.042,0.758,0.053,1.041
			c-0.621-0.297-1.549-0.512-2.913-0.689c-0.019-0.003-0.037-0.005-0.056-0.006c-0.83-0.062-1.641-0.093-2.411-0.093
			c-1.164,0-2.274,0.071-3.302,0.211c-1.733,0.26-2.817,0.615-3.424,1.121c-1.679,1.413-2.468,1.565-2.73,1.565
			c-0.462,0-1.123,0.182-1.643,1.046c-0.319,0.535-0.48,1.123-0.48,1.751c0,0.051,0,0.169-0.345,0.342
			c-1.052,0.478-1.78,1.263-2.131,2.319c-0.303,0.904-0.444,2.415-0.444,4.752v3.707c0,0.254,0.097,0.499,0.271,0.684l1.685,1.797
			c0.871,1.008,1.132,1.406,1.208,1.539c0.096,0.537,0.594,0.98,1.631,1.731c1.444,0.996,2.013,1.472,2.24,1.696
			c0.046,0.047,0.097,0.088,0.151,0.124l1.011,0.674c0.165,0.109,0.357,0.168,0.555,0.168h4.156c0.018,0,0.036-0.001,0.054-0.001
			l4.156-0.225c0.198-0.012,0.388-0.08,0.546-0.199l1.797-1.349c0.018-0.013,0.034-0.026,0.051-0.04l2.359-2.021
			c0.019-0.018,0.038-0.034,0.056-0.053c0.242-0.241,0.384-0.347,0.449-0.388c0.434-0.043,0.903-0.277,1.532-0.763
			c0.552-0.424,1.048-0.921,1.474-1.475c0.587-0.761,0.77-1.061,0.77-1.451l0,0c0.003,0,0.065-0.285,0.649-1.021
			c0.772-0.806,1.148-2.089,1.148-3.921c0-1.412,0.179-2.842,0.532-4.249c0.321-1.525,0.479-3.22,0.479-5.073
			c0-2.017-0.201-3.314-0.634-4.084c-0.172-0.306-0.377-0.937-0.377-2.206c0-2.381-0.651-3.99-1.935-4.781
			c-0.074-0.047-0.154-0.082-0.238-0.107c-0.125-0.037-0.819-0.352-2.318-2.873c-0.384-0.831-1.134-1.32-2.121-1.379
			c-0.394-0.023-0.705-0.162-0.982-0.439c-0.576-0.576-1.822-0.971-6.03-1.022C166.948,7.741,166.713,7.74,166.485,7.74
			L166.485,7.74z M159.995,34.271c0.167-0.235,0.548-0.717,1.408-1.659c1.361-1.493,2.073-2.073,2.43-2.297
			c0.02-0.012,0.04-0.025,0.058-0.039c0.381-0.276,1.208-0.607,2.988-0.607c0.193,0,0.393,0.004,0.599,0.012
			c2.106,0.08,2.637,0.385,2.719,0.442c0.488,0.69,1.192,1.115,2.042,1.23l0.286,0.057v1.539c0,0.02,0,0.038,0.001,0.058
			c0.086,1.503-0.065,2.013-0.134,2.162c-0.071,0.155-0.218,0.378-0.679,0.551c-0.676,0.271-1.545,0.704-1.774,1.488
			c-0.11,0.094-0.417,0.316-1.173,0.682c-0.944,0.456-1.95,0.687-2.991,0.687c-1.354,0-1.805-0.216-1.921-0.291
			c-0.014-0.485-0.21-1.166-1.027-1.763c-0.558-0.403-1.001-0.604-1.419-0.637c-0.051-0.032-0.153-0.109-0.316-0.272
			c-0.337-0.336-0.642-0.692-0.909-1.061C160.094,34.433,160.035,34.339,159.995,34.271L159.995,34.271z"/>
	</g>
	<g>
		<path d="M184.755,10.709c0.374-0.373,0.916-0.617,1.628-0.729c0.711-0.112,1.253,0.02,1.628,0.393
			c0.225,0.225,0.542,0.882,0.955,1.966c0.411,1.087,0.618,1.892,0.618,2.415c0,0.524,0.149,1.086,0.449,1.685
			c0.225,0.601,0.579,0.898,1.067,0.898c0.486,0,0.879-0.298,1.179-0.898c0.899-1.422,2.171-2.732,3.819-3.931
			c0.823-0.599,1.722-0.898,2.696-0.898c1.048,0,1.965,0.3,2.752,0.898c0.786,0.6,2.264,1.984,4.437,4.155
			c2.171,2.173,3.369,3.258,3.594,3.258c0.225,0,1.197-0.899,2.92-2.696c1.048-0.972,1.871-1.74,2.471-2.303
			c0.598-0.562,1.253-1.011,1.965-1.348c0.711-0.337,1.404-0.542,2.078-0.617c0.674-0.074,1.534-0.112,2.583-0.112
			c2.022,0,3.482,0.3,4.38,0.898c1.646,1.198,2.958,2.658,3.931,4.38c0.674,1.424,1.16,4.644,1.46,9.659
			c0.449,6.366,0.86,10.035,1.235,11.008c0.374,0.6,0.562,1.049,0.562,1.348c0,0.524-0.244,1.086-0.73,1.685
			c-0.488,0.601-1.03,1.011-1.628,1.235c-1.348,0.449-2.546,0.225-3.594-0.674l-1.123-1.123l-0.337-4.717
			c-0.375-4.792-0.674-8.236-0.898-10.334c-0.225-3.893-0.412-5.989-0.562-6.289c-0.225-0.374-0.637-0.711-1.235-1.012
			c-0.6-0.298-1.123-0.449-1.573-0.449c-1.348,0-2.622,0.525-3.819,1.573c-0.749,0.749-1.123,1.218-1.123,1.403
			c0,0.188-0.225,0.581-0.674,1.18c-0.449,0.6-0.674,1.011-0.674,1.235s-0.244,0.825-0.73,1.797
			c-0.488,0.975-0.918,1.611-1.292,1.909c-0.375,0.376-0.749,1.761-1.123,4.156c-0.674,4.942-1.311,7.825-1.909,8.648
			c-0.375,0.376-0.562,0.749-0.562,1.123c0,0.898-0.825,1.348-2.471,1.348c-1.199,0-2.097-0.41-2.696-1.235
			c-0.524-0.599-0.786-1.553-0.786-2.864c0-1.309,0.186-2.376,0.562-3.201c0.374-0.822,0.599-1.722,0.674-2.695
			c0.149-0.972,0.411-1.946,0.787-2.92c0.225-0.973,0.149-1.834-0.225-2.584c-0.376-0.747-0.562-1.271-0.562-1.572
			c0-0.225-0.3-0.879-0.898-1.965c-0.6-1.085-1.049-1.854-1.348-2.303c-0.75-1.048-1.648-1.871-2.696-2.472
			c-0.6-0.522-1.572,0.188-2.92,2.135c-1.948,3.071-3.032,5.354-3.257,6.852c-0.225,2.021-0.151,4.419,0.225,7.188
			c0.074,1.873,0.056,3.538-0.056,4.998c-0.112,1.461-0.413,2.659-0.898,3.595c-0.488,0.938-1.067,1.517-1.741,1.741
			c-1.348,0.3-2.51-0.225-3.482-1.573c-0.6-0.598-0.917-1.196-0.955-1.797c-0.039-0.599-0.056-2.32-0.056-5.166
			c0-2.545-0.207-4.381-0.618-5.504c-0.413-1.123-0.693-3.443-0.842-6.964c-0.151-3.369-0.337-5.353-0.562-5.953
			c-0.376-0.449-0.562-1.758-0.562-3.931C184.118,12.47,184.306,11.158,184.755,10.709z"/>
		<path fill="#FFFFFF" d="M186.848,9.94c0.487,0,0.875,0.145,1.164,0.432c0.225,0.225,0.542,0.882,0.955,1.966
			c0.411,1.087,0.618,1.892,0.618,2.415c0,0.524,0.149,1.086,0.449,1.685c0.225,0.601,0.579,0.898,1.067,0.898
			c0.486,0,0.879-0.298,1.179-0.898c0.899-1.422,2.171-2.732,3.819-3.931c0.823-0.599,1.722-0.898,2.696-0.898
			c1.048,0,1.965,0.3,2.752,0.898c0.786,0.6,2.264,1.984,4.437,4.155c2.171,2.173,3.369,3.258,3.594,3.258
			c0.225,0,1.197-0.899,2.92-2.696c1.048-0.972,1.871-1.74,2.471-2.303c0.598-0.562,1.253-1.011,1.965-1.348
			c0.711-0.337,1.404-0.542,2.078-0.617c0.674-0.074,1.534-0.112,2.583-0.112c2.022,0,3.482,0.3,4.38,0.898
			c1.646,1.198,2.958,2.658,3.931,4.38c0.674,1.424,1.16,4.644,1.46,9.659c0.449,6.366,0.86,10.035,1.235,11.008
			c0.374,0.6,0.562,1.049,0.562,1.348c0,0.524-0.244,1.086-0.73,1.685c-0.488,0.601-1.03,1.011-1.628,1.235
			c-0.449,0.149-0.882,0.225-1.298,0.225c-0.832,0-1.597-0.3-2.296-0.898l-1.123-1.123l-0.337-4.717
			c-0.375-4.792-0.674-8.236-0.898-10.334c-0.225-3.893-0.412-5.989-0.562-6.289c-0.225-0.374-0.637-0.711-1.235-1.012
			c-0.6-0.298-1.123-0.449-1.573-0.449c-1.348,0-2.622,0.525-3.819,1.573c-0.749,0.749-1.123,1.218-1.123,1.403
			c0,0.188-0.225,0.581-0.674,1.18c-0.449,0.6-0.674,1.011-0.674,1.235s-0.244,0.825-0.73,1.797
			c-0.488,0.975-0.918,1.611-1.292,1.909c-0.375,0.376-0.749,1.761-1.123,4.156c-0.674,4.942-1.311,7.825-1.909,8.648
			c-0.375,0.376-0.562,0.749-0.562,1.123c0,0.898-0.825,1.348-2.471,1.348c-1.199,0-2.097-0.41-2.696-1.235
			c-0.524-0.599-0.786-1.553-0.786-2.864c0-1.309,0.186-2.376,0.562-3.201c0.374-0.822,0.599-1.722,0.674-2.695
			c0.149-0.972,0.411-1.946,0.787-2.92c0.225-0.973,0.149-1.834-0.225-2.584c-0.376-0.747-0.562-1.271-0.562-1.572
			c0-0.225-0.3-0.879-0.898-1.965c-0.6-1.085-1.049-1.854-1.348-2.303c-0.75-1.048-1.648-1.871-2.696-2.472
			c-0.127-0.11-0.271-0.166-0.431-0.166c-0.598,0-1.427,0.767-2.489,2.301c-1.948,3.071-3.032,5.354-3.257,6.852
			c-0.225,2.021-0.151,4.419,0.225,7.188c0.074,1.873,0.056,3.538-0.056,4.998c-0.112,1.461-0.413,2.659-0.898,3.595
			c-0.488,0.938-1.067,1.517-1.741,1.741c-0.245,0.055-0.484,0.082-0.717,0.082c-1.047,0-1.97-0.552-2.765-1.655
			c-0.6-0.598-0.917-1.196-0.955-1.797c-0.039-0.599-0.056-2.32-0.056-5.166c0-2.545-0.207-4.381-0.618-5.504
			c-0.413-1.123-0.693-3.443-0.842-6.964c-0.151-3.369-0.337-5.353-0.562-5.953c-0.376-0.449-0.562-1.758-0.562-3.931
			c-0.075-2.171,0.112-3.482,0.562-3.932c0.374-0.373,0.916-0.617,1.628-0.729C186.547,9.954,186.702,9.94,186.848,9.94
			 M186.848,8.94c-0.197,0-0.406,0.018-0.621,0.051c-0.92,0.146-1.653,0.485-2.179,1.01c-0.689,0.688-0.944,2.086-0.855,4.674
			c0,2.789,0.313,3.825,0.657,4.354c0.1,0.381,0.291,1.606,0.467,5.541c0.155,3.654,0.45,6.031,0.903,7.264
			c0.369,1.01,0.556,2.745,0.556,5.159c0,2.952,0.019,4.614,0.058,5.23c0.051,0.825,0.451,1.628,1.189,2.383
			c0.981,1.33,2.168,2.005,3.529,2.005c0.305,0,0.619-0.036,0.934-0.105c0.033-0.008,0.066-0.018,0.099-0.027
			c0.924-0.309,1.702-1.059,2.312-2.229c0.547-1.054,0.887-2.393,1.009-3.98c0.114-1.48,0.134-3.201,0.058-5.113
			c-0.001-0.032-0.004-0.063-0.008-0.096c-0.362-2.67-0.437-5.006-0.222-6.942c0.135-0.893,0.788-2.769,3.108-6.427
			c0.892-1.286,1.396-1.678,1.593-1.794c0.912,0.525,1.707,1.258,2.365,2.178c0.259,0.391,0.699,1.143,1.286,2.205
			c0.596,1.081,0.741,1.459,0.775,1.567c0.023,0.468,0.232,1.07,0.667,1.935c0.26,0.522,0.313,1.128,0.158,1.845
			c-0.384,1.009-0.658,2.037-0.815,3.058c-0.004,0.025-0.007,0.05-0.009,0.075c-0.066,0.854-0.263,1.646-0.587,2.358
			c-0.438,0.963-0.651,2.146-0.651,3.615c0,1.554,0.328,2.695,1.003,3.488c0.553,0.743,1.601,1.611,3.479,1.611
			c3.02,0,3.471-1.471,3.471-2.348c0-0.071,0.071-0.218,0.269-0.416c0.037-0.037,0.071-0.077,0.102-0.119
			c0.487-0.671,1.165-2.312,2.091-9.102c0.428-2.74,0.752-3.432,0.846-3.584c0.469-0.41,0.94-1.104,1.473-2.169
			c0.636-1.271,0.807-1.787,0.833-2.143c0.032-0.073,0.143-0.29,0.478-0.737c0.523-0.696,0.776-1.146,0.85-1.533
			c0.077-0.108,0.288-0.374,0.83-0.918c1.011-0.878,2.038-1.305,3.136-1.305c0.198,0,0.554,0.06,1.128,0.345
			c0.448,0.226,0.665,0.424,0.768,0.553c0.068,0.331,0.224,1.537,0.476,5.91c0.226,2.117,0.519,5.488,0.9,10.354l0.337,4.71
			c0.017,0.24,0.121,0.466,0.291,0.636l1.123,1.123c0.018,0.019,0.037,0.035,0.056,0.052c0.882,0.756,1.873,1.14,2.947,1.14
			c0.522,0,1.065-0.093,1.614-0.276c0.801-0.3,1.492-0.818,2.089-1.553c0.633-0.779,0.954-1.559,0.954-2.315
			c0-0.487-0.203-1.04-0.655-1.783c-0.199-0.61-0.592-2.825-1.144-10.643c-0.311-5.185-0.819-8.464-1.554-10.017
			c-0.01-0.022-0.021-0.044-0.033-0.064c-1.04-1.838-2.457-3.418-4.213-4.696c-1.111-0.741-2.725-1.09-4.969-1.09
			c-1.074,0-1.979,0.04-2.692,0.118c-0.785,0.088-1.591,0.326-2.397,0.708c-0.802,0.379-1.55,0.892-2.222,1.521
			c-0.599,0.562-1.42,1.329-2.466,2.299c-0.015,0.014-0.028,0.027-0.042,0.041c-1.201,1.253-1.853,1.874-2.201,2.183
			c-0.414-0.354-1.243-1.115-2.884-2.759c-2.229-2.227-3.712-3.614-4.538-4.243c-0.962-0.732-2.092-1.104-3.358-1.104
			c-1.185,0-2.29,0.366-3.284,1.09c-1.741,1.266-3.112,2.681-4.076,4.205c-0.018,0.028-0.035,0.058-0.049,0.088
			c-0.086,0.172-0.207,0.345-0.285,0.345c-0.006-0.003-0.066-0.077-0.13-0.249c-0.012-0.033-0.027-0.066-0.042-0.098
			c-0.228-0.454-0.343-0.87-0.343-1.236c0-0.657-0.217-1.536-0.682-2.769c-0.614-1.612-0.932-2.067-1.184-2.319
			C188.242,9.19,187.595,8.94,186.848,8.94L186.848,8.94z"/>
	</g>
	<g>
		<path d="M262.814,3.971c0.598-0.374,0.955-0.562,1.067-0.562s0.579,0.112,1.404,0.337c2.171,0.824,4.193,1.498,6.065,2.021
			c0.748,0.225,1.609,0.524,2.583,0.898c0.973,0.376,1.685,0.601,2.134,0.674c0.449,0.151,0.955,0.488,1.516,1.011
			c0.562,0.524,0.955,1.087,1.18,1.685c0.225,0.525,0.225,1.106,0,1.741c-0.225,0.637-0.601,1.03-1.124,1.18
			c-0.674,0.225-2.771-0.037-6.29-0.786c-1.797-0.225-3.296-0.823-4.493-1.798c-1.05-0.822-1.966-1.235-2.752-1.235
			s-1.479-0.298-2.078-0.898c-0.674-0.674-0.955-1.44-0.843-2.303C261.297,5.076,261.84,4.42,262.814,3.971z M266.633,17.617
			c0.898-0.486,1.834-0.318,2.808,0.505l0.899,0.898l0.112,4.83c0.149,5.991,0.71,10.858,1.685,14.602
			c0.225,0.974,0.337,2.358,0.337,4.155c0.149,1.873-0.075,3.071-0.674,3.595c-0.525,0.6-1.123,0.898-1.797,0.898
			c-1.573,0-2.696-0.898-3.37-2.696c-0.674-1.797-1.236-5.765-1.685-11.905c-0.225-3.369-0.225-6.476,0-9.322
			C265.172,19.958,265.734,18.104,266.633,17.617z"/>
		<path fill="#FFFFFF" d="M263.881,3.409c0.112,0,0.579,0.112,1.404,0.337c2.171,0.824,4.193,1.498,6.065,2.021
			c0.748,0.225,1.609,0.524,2.583,0.898c0.973,0.376,1.685,0.601,2.134,0.674c0.449,0.151,0.955,0.488,1.516,1.011
			c0.562,0.524,0.955,1.087,1.18,1.685c0.225,0.525,0.225,1.106,0,1.741c-0.225,0.637-0.601,1.03-1.124,1.18
			c-0.156,0.052-0.387,0.078-0.694,0.078c-1.023,0-2.889-0.288-5.595-0.864c-1.797-0.225-3.296-0.823-4.493-1.798
			c-1.05-0.822-1.966-1.235-2.752-1.235s-1.479-0.298-2.078-0.898c-0.674-0.674-0.955-1.44-0.843-2.303
			c0.112-0.859,0.655-1.516,1.629-1.965C263.412,3.597,263.769,3.409,263.881,3.409 M267.649,17.346
			c0.583,0,1.179,0.259,1.791,0.776l0.899,0.898l0.112,4.83c0.149,5.991,0.71,10.858,1.685,14.602
			c0.225,0.974,0.337,2.358,0.337,4.155c0.149,1.873-0.075,3.071-0.674,3.595c-0.525,0.6-1.123,0.898-1.797,0.898
			c-1.573,0-2.696-0.898-3.37-2.696c-0.674-1.797-1.236-5.765-1.685-11.905c-0.225-3.369-0.225-6.476,0-9.322
			c0.225-3.219,0.787-5.072,1.685-5.56C266.967,17.437,267.306,17.347,267.649,17.346 M263.881,2.409
			c-0.316,0-0.604,0.096-1.545,0.682c-1.573,0.748-2.034,1.887-2.142,2.715c-0.152,1.166,0.238,2.251,1.127,3.14
			c0.787,0.79,1.724,1.191,2.785,1.191c0.378,0,1.056,0.178,2.135,1.022c1.313,1.07,2.981,1.746,4.942,1.998
			c2.777,0.59,4.663,0.877,5.762,0.877c0.425,0,0.747-0.041,1.011-0.129c0.543-0.155,1.33-0.604,1.75-1.796
			c0.31-0.876,0.302-1.706-0.023-2.468c-0.262-0.7-0.745-1.395-1.417-2.022c-0.674-0.627-1.288-1.028-1.879-1.227
			c-0.052-0.018-0.104-0.031-0.158-0.04c-0.262-0.042-0.81-0.185-1.935-0.619c-0.995-0.383-1.888-0.693-2.656-0.924
			c-1.854-0.519-3.866-1.188-5.998-1.998c-0.03-0.012-0.061-0.021-0.092-0.03C264.276,2.435,264.063,2.409,263.881,2.409
			L263.881,2.409z M267.65,16.347c-0.511,0-1.013,0.131-1.493,0.391c-1.267,0.688-1.947,2.652-2.207,6.37
			c-0.227,2.872-0.227,6.057,0,9.458c0.461,6.299,1.032,10.284,1.747,12.189c1.037,2.766,2.914,3.346,4.306,3.346
			c0.953,0,1.797-0.401,2.508-1.193c0.826-0.768,1.132-2.15,0.962-4.339c-0.001-1.871-0.12-3.291-0.362-4.341
			c-0.957-3.679-1.513-8.516-1.66-14.402l-0.112-4.828c-0.006-0.257-0.111-0.502-0.292-0.684l-0.899-0.898
			c-0.02-0.02-0.04-0.039-0.062-0.057C269.292,16.687,268.472,16.347,267.65,16.347L267.65,16.347z"/>
	</g>
</g>
</svg>
