<?xml version="1.0" encoding="utf-8"?>
<!-- Generator: Adobe Illustrator 16.0.0, SVG Export Plug-In . SVG Version: 6.00 Build 0)  -->
<!DOCTYPE svg PUBLIC "-//W3C//DTD SVG 1.1//EN" "http://www.w3.org/Graphics/SVG/1.1/DTD/svg11.dtd">
<svg version="1.1" id="Layer_1" xmlns="http://www.w3.org/2000/svg" xmlns:xlink="http://www.w3.org/1999/xlink" x="0px" y="0px"
	 width="188.304px" height="42.651px" viewBox="0 0 188.304 42.651" enable-background="new 0 0 188.304 42.651"
	 xml:space="preserve">
<g>
	<defs>
		<rect id="SVGID_1_" x="-570.176" y="-1068.704" width="1903" height="936"/>
	</defs>
	<clipPath id="SVGID_2_">
		<use xlink:href="#SVGID_1_"  overflow="visible"/>
	</clipPath>
	<g clip-path="url(#SVGID_2_)">
		<g>
			<g>
				<g>
					<g>
						<path fill="#FFF2A4" d="M-2.655-132.337l2.248-11.333c3.957,13.626,2.708,23.517,5.916,12.866
							c-8.163-1.533-1.188-43.969-9.34-45.476l1.654-7.474c-0.062,2.139,0.418,2.477,0.356,4.589
							c3.787-14.536-5.979-10.728-4.966-29.426c0.572-6.518,1.719-11.073,2.721-6.641l-2.131-14.495
							c0.125-4.225,1.545-3.203,1.426,1.002L-5.6-250.854l0.242,0.162c-1.306-3.147-3.336-10.288-4.205-13.774
							c1.121-5.634,0.882,2.814,1.891,1.366l-2.073-12.239c2.071-5.01,4.205,5.13,3.967,13.599
							c8.044-11.511-2.135-10.153,2.42-34.893l1.131,11.563c4.56-7.496,2.814-16.515,5.591-29.622
							c-1.48,3.117-7.052,26.253-9.191,12.968c0.588-3.755,0.842-8.697-0.856-15.861c2.896-0.089,2.129-7.089,1.894-15.856
							l3.846,0.568c-1.185-9.471-3.133-8.705-4.906-14.27c0.295-10.568,3.25-12.782,5.734-15.289
							c0.474-16.924-4.673,11.721-5.558-8.297c1.357-14.083-0.29-23.951-2.721-40.767c1.241-9.858,2.363,1.705,3.428-1.837
							l-3.128-8.704c0.056-2.139,1.002-1.456,1.479-1.111c-1.247-7.345-3.84-0.574-4.978-12.131
							c-4.25-3.084,5.992-23.79,1.076-38.065c1.062-3.535,2.366,1.685,3.843,0.594c-3.306-19.611-2.422-16.815-6.792-32.905
							l2.41-13.755c-2.801,10.113-6.313-2.752-9.205-14.025c-1.363,3.59-2.556,6.659-3.121,8.716l-2.204-18.008
							c0.612-2.183,1.944-0.378,3.573,2.563c-0.328-1.228-0.65-2.39-0.948-3.295c1.367-6.458,3.609-3.134,5.79,1.467
							c-0.738,2.203-1.533,4.387-2.315,6.512c2.366,4.435,4.982,8.578,7.221,7.633c-0.452-1.168-0.851-3.421-1.084-5.899
							c0.642,1.159,1.213,1.898,1.593,1.355c0.399-0.614-0.465-2.489-1.467-5.429l4.245-4.132l-1.707-0.98l2.489-23.604
							c-4.443-16.839-10.898-31.464-12.879-58.23c3.191,6.619,5.136,1.387,8.856,1.719c-3.877,7.34,1.838,20.728,1.15,34.615
							c0.355-7.246,2.139-5.669,2.773-3.832l-3.778-24.725c3.042,0.535,2.237-5.274,3.444-11.75
							c-5.971,4.936-4.15-18.42-6.072-28.477c2.009-0.641,4.089,1.757,3.703,14.049c4.417-13.594-7.197-17.461-3.46-30.8
							c0.072,2.999-0.224,4.62,0.81,5.796c-1.851-6.992-0.566-24.139,1.227-20.121l0.065,2.993
							c0.551-19.924-0.44-60.639-5.568-63.571c0.655-0.203,6.173,2.563,7.214,3.758l-17.457-35.405
							c4.409,3.096,14.753-9.006,17.36,7.493c0.586-4.748,1.267-10.622-0.358-20.608c-0.598,3.242-6.275,8.116-6.709,3.698
							c4.784-12.176,2.543-8.448,6.583-23.44c-0.905,4.856-7.816-0.477-7.659-8.143c1.039,1.189,6.778-0.692,7.517,2.104
							l-6.899-19.023c1.252,4.753,5.726,0.796,7.599-3.488c-1.306,1.991-0.007-16.493-0.72-21.572l-1.499,8.097
							c0.849-21.545-9.656-21.199-9.474-42.567c1.414,2.574,8.627,6.319,9.39-4.555c-3.495-4.952-16.795-21.917-19.608-40.802
							l1.949-3.641l-2.369-14.487c5.272,8.99,16.417,34.249,20.784,48.056c1.5-8.071,2.31-2.262,2.036-14.332
							c1.814-4.277,2.861,6.556,2.999,10.107l0.971-28.112c-4.024,1.282-4.217-21.458-7.569-20.36l4.424,30.49
							c-4.017,1.269-11.59-17.558-11.037-37.477c1.565-5.078,7.21,3.732,8.552,3.307c-1.411-2.574-2.805-18.878-1.834-20.715
							l2.225,8.429c1.428-11.096-5.491-18.047-1.748-31.399c0.223-4.601,5.083-13.771,2.692-14.547
							c-4.544,7.536-18.769,9.117-22.267,4.145c0.298-1.614,4.208-24.177,6.44-29.445c3.546-7.601,8.693,11.298,11.739,4.827
							c-1.104-0.268-2.497-4.44-2.947-6.18c0.903-4.836,3.429,1.973,2.847-8.516c-4.105-1.717,0.174-21.342-3.497-4.932
							c-1.251-10.253,0.754-10.914,0.479-22.963c-2.612,3.856-9.082-10.75-10.33-21.022c1.046,0.597,2.381-1.723,2.988-2.846
							c0.204-21.041,1.971-32.35,1.85-51.967c0.977-1.817,2.101-11.292,3.891-7.274c-0.746-2.816-2.154-5.397-2.3-11.449
							c3.442-11.737,0.657,13.488,4.833,4.527c-2.382-0.744-3.403-15.624-4.958-24.229c-3.648,2.681-0.544,19.918,1.009,28.537
							c-5.062,0.08-10.484-14.902-12.989-35.388c-1.388-16.285,3.215-7.091,2.473-9.914c0.641-30.616-9.05-26.006-5.603-51.454
							c3.148-10.11,6.418-0.505,8.727-2.76c1.328,13.265-1.885,20.396-1.683,29.394l1.439-11.09
							c1.102,4.215,1.988,13.069,1.091,17.905c2.833-8.476,0.145-51.716,2.631-75.354c-1.116-4.188-2.292-11.422-3.561-7.984
							l0.509,7.469c-2.546,6.889-3.71-14.036-4.849-4.566c-1.91-10.011-4.874-21.224-3.515-35.346l3.657-2.68
							c-1.073,0.311-2.119,9.24-0.964,13.198c-1.677-5.868,4.806-21.676-0.062-28.084l-2.47,9.914
							c-1.929-10.05-5.935-22.458-4.873-34.973c-3.587,5.719,0.439,2.878-3.741,11.799c5.223-7.746,0.033,31.992,5.491,19.574
							c-4.86,9.157-1.965,15.798-6.079,27.751c1.211-0.378,2.288-4.242,1.774,6.262c0.358,0.471,0.818,1.585,1.088,2.294
							c-0.028,0.323-0.049,0.435-0.085,0.711c0.05-0.21,0.088-0.369,0.139-0.58c0.182,0.453,0.224,0.492,0.046-0.217
							c0.509-2.504,1.133-4.535,1.803-5.363c2.828,5.188,2.875,21.884,4.362,27.517c-0.529,6.234-1.415-2.594-2.681,0.817
							l2.22,8.417c-2.687,0.857-4.341,16.586-6.038,1.923l-0.015,13.21c-1.449,7.788-1.964,18.489-0.778,25.078
							c-0.535,6.234,3.108,15.711,0.955,10.301l1.835,20.702l-0.672,0.196c-0.175,20.441,4.796,42.039,0.122,65.444
							c0.734,6.875,1.624,13.98,0.951,25.498l-2.311,2.262c0.882,8.828-2.123,26.549,0.336,30.325
							c-6.198,9.582-1.025,42.888-2.015,58.435l3.048,0.562c-0.087,10.697,0.857,20.946,2.184,34.211l2.686-0.837
							c2.299,11.429-1.678,29.44-1.255,47.541c-1.041-1.222-0.808-5.815-0.213-9.07c-5.905,21.678,4.785,45.598,0.515,65.25
							c1.016,4.88,0.712,8.422,0.061,11.854c-0.008-0.454-0.061-0.861-0.149-1.209c-0.03,0.5-0.028,1.244-0.018,2.007
							c-0.446,2.161-0.965,4.389-1.38,6.8c0.642-2.051,1.163-4.016,1.399-5.722c0.085,3.769,0.464,9.483,1.184,15.082l-2.871,2.411
							c0.043,0.454,0.04,0.822,0.094,1.295c-1.025,5.508,1.403,4.41,3.552,1.458c0.499,2.818,1.09,5.399,1.804,7.4
							c-4.629,4.504,1.688,14.69-3.241,20.828c2.458,3.757,2.053,28.16,7.179,31.106c-0.661,0.196-0.965,1.85-1.032-1.176
							c-0.532,6.254-1.062,12.501,0.421,18.095l-3.651,2.68l5.047,13.604c-2.172,8.307-3.445,11.75-6.338,3.544
							c4.503,19.838,1.766,16.11,6.211,32.975l-2.383-0.803c0.139,6.038,3.395,15.67,1.463,19.33
							c-4.405,13.548-0.09,66.867-4.01,101.587c6.942-6.785-3.001,16.148,2.429,17.48c-1.638,2.033-2.534,6.875-4.018,1.269
							c1.769,17.689-2.408,26.617,2.26,38.803c-1.645,2.039-2.459-3.77-3.423-1.96c0.366,1.419,1.483,5.613,0.509,7.463
							c-0.968,1.811-1.408-2.58-2.152-5.377c0.423,18.081,5.535,19.869,10.331,21.146c-2.194,9.182-1.837,13.751,1.355,20.344
							c-1.539,3.203-3.136,8.538-3.787-2.693c-0.178,6.324-1.985,38.633,1.855,39.247c-0.957,1.988-0.214,8.837,0.242,10.498
							c-0.115,14.185-0.451,15.437,0.024,29.36l0.594-3.866c4.671,5.462,1.125,11.569,1.771,22.794l-0.479-0.318
							c-3.129,25.773,1.69,11.104-1.916,36.533l2.866-1.404c6.209,2.318-3.471,22.533-0.986,37.257l1.601-5.335
							c2.18,8.034-8.237,22.571-8.947,30.662c-0.523,1.768-0.885-2.775-1.306-5.233c-3.48,21.198,3.795,2.714,4.797,18.481
							c-2.01,2.924-5.201-3.709-5.497,6.912c-1.604,5.302,6.851,30.74,3.065,45.256c1.542-3.202,3.081-6.386,4.316,0.933
							c0.651,11.225-5.68,30.406-0.661,40.511c-0.415,1.431-0.821,1.974-1.21,2.036c1.343,8.574,2.339,27.881,5.06,33.03
							c-9.88,8.013,5.26,53.331-3.908,53.214l0.702,26.401l-0.942-0.684c-0.473,16.885,1.773,22.834,4.021,28.75
							c-0.593,3.905-1.474,1.063-1.954,0.745c-1.651,24.677-1.242,27.128,3.489,47.767l-2.958,2.175
							c1.775,5.591-4.376,35.691-0.714,59.853c-0.339-0.234-0.92-0.729-1.354-2.647c3.707,27.187-7.731,65.217,3.178,75.104
							l2.813,17.938c0.658-23.241,4.727,3.423,6.452-6.15c0.708,9.132-3.078,23.648-3.724,12.424l0.528-1.761
							c-5.681-4.079-1.77,28.889-5.62,28.294c0.644,45.717-2.125,90.303-2.023,133.13l4.349-4.969L-22.924,293
							c-0.994,3.929-3.392,5.289-3.295-5.369c-2.442,5.625,2.224,17.857,3.183,18.152c-1.612,20.88-5.183-8.11-5.238-1.709
							l0.396,8.688l0.499-1.964c1.849,7.03,3.752,7.641,3.641,20.45c-0.814,8.111-2.673,4.179-2.818,7.371
							c-0.311-0.018-0.449,1.063-0.087,4.895l-0.222,18.824l3.402-7.554c1.772,8.328-0.04,17.697,3.816,8.982
							c-5.951,12.797-1.613,70.221-3.43,78.063c2.62,11.663,2.667,23.195,2.477,37.485c0.694-3.558,4.572-5.714,4.191,6.611
							c-8.072-4.442-3.308,22.592-9.009,32.597c3.764-8.931,1.226,35.022,6.558,21.013c-0.567,10.287-3.001,0.649-4.831,8.466
							c3.31,24.446-1.592,53.945-0.3,84.184c1.056,0.465,2.632-4.613,4.254,1.86l-5.148,16.015c0.566,5.969,6.136,5.451,2.56,16.394
							c0.878-1.547,2.194-3.859,2.565,0.144c-4.67,59.299,5.18,121.053-4.004,181.309c1.98-8.167,2.23-2.735,2.351,3.487
							c0.46-4.05,2.611,0.071,4.033-0.736l-3.77,25.227c4.006,4.56,0.484,27.008,4.302,29.609l-0.748-7.974
							c4.561,10.574,9.836-14.928,15.597-13.421c-5.188-11.84,7.291-31.386-0.154-50.819c1.138-4.312,1.882,3.656,3.196,1.344
							c-2.503-4.921-3.065-10.884-2.048-21.95l0.621,1.245c-0.854-31.059,1.469-44.398,2.812-79.31l-2.822,2.608
							c0.321-7.502,1.199-9.088,1.881-12.606c-4.377-8.57-0.074,21.065-4.888,13.262c5.704-9.992-0.334-52.883,6.183-59.659
							c-0.059-11.538-3.263,3.408-3.317-8.124l1.754-3.073l-2.314-2.896c0.317-7.568,2.511-11.401,4.014-11.696
							c-0.164,1.837,0.462,5.213,0.608,7.179c2.017-9.824-0.934-27.649-0.28-31.022l-1.007,11.093
							c-1.915-31.47,0.112-69.932-3.747-100.321l-1.325,2.32c-2.664-23.209,1.325-18.615-0.024-44.11l0.327,0.925
							c-1.376-5.094-2.106-11.903-2.008-18.885c1.622,6.428,2.956-12.141,4.76-3.709c-2.864-25.166-2.191-12.442-7.307-29.039
							l2.191-3.853c-2.057-5.654-3.121-6.119-3.798-18.851c1.992,10.432,3.323-8.158,5.942,3.525
							c4.651-26.767-5.23-39.648,1.788-51.967c-6.256-12.226-3.234,23.156-4.607,16.293c-1.969,5.771-4.685-10.094-4.132-18.486
							c0.069-8.539,7.76-14.581,7.471-36.059c-0.009,2.139,0.454,2.279,0.447,4.411c1.506-8.051-2.252-15.731,0.218-25.612
							c-3.765-5.496,0.113-12.803-4.647-14.357l1.255,19.693c-1.33-11.16-6.971-21.588-4.423-40.01
							c0.968,1.427,2.27,6.89,3.004,10.647c1.359-5.393-1.01-10.354,0.384-15.943c4.768,1.554,1.227,23.937,4.945,35.873
							c1.96-5.791-3.626-22.608,1.572-16.637c-6.613-8.592,0.657-21.169-4.457-35.673l2.854,0.938
							c-0.463-2.299-1.846-7.058-1.809-11.295l3.752,7.641c-3.242-11.75,2.57-22.723,0.769-34.004
							c0.277,23.647-3.388,5.336-5.387,15.352c-4.043-29.138,7.312-16.834,5.687-49.479c0.438,4.418-1.575,16.611-2.952,9.708
							c0.538-6.222,1.565-14.439,3.027-18.267c-0.763-21.632-2.9,3.345-4.724-5.851c3.41-7.396-1.499-10.612-2.683-20.09
							l2.894-0.089c1.66-24.67-6.086-6.49-4.019-28.703l4.09,9.348l-1.129-11.563l3.312,2.361
							c-2.544-12.571-1.945-16.496-1.118-28.838c-2.018,2.884-5.266-1.57-5.447-12.489c1.664-7.46,2.789,4.148,2.249-11.327
							c1.84,3.479,4.144,7.289,1.53,14.047c0.947,0.684,1.846,3.433,2.78,4.136c1.917-8.035,0.29-20.159,0.221-25.765
							c-0.09,2.159-0.226,4.739-0.628,6.064l-4.188-22.406c1.059-3.541,1.954-0.746,2.83,2.023
							c-0.348-4.543-1.705-7.677-2.006-14.358c2.366,1.711,4.792,1.277,5.972,10.728l-2.778-21.358
							c1.011-1.436,2.721-10.995,3.611-8.226c1.288-11.865-4.796-29.039-3.098-44.77c-0.462-0.813-0.912-2.446-1.274-5.786
							c0.414-14.772,3.195-27.879-0.17-45.358l4.139-9.967c-1.067-13.701-5.205,13.488-6.98-9.325
							c-1.475-16.152,3.549-6.062,4.676-11.741c-2.188-8.021-6.626-21.959-3.312-36.834C-2.41-140.785-3.003-136.926-2.655-132.337z
							 M-5.877-301.403c0.636,3.271,2.56,9.789,0.874,12.196C-8.35-292.91-6.786-295.811-5.877-301.403z M-14.9-558.374
							c0.979,2.427,0.536,6.2-0.526,10.458C-15.69-550.999-15.609-554.493-14.9-558.374z M-40.769-1274.211
							c0.048,0.138,0.084,0.236,0.144,0.347C-41.695-1266.546-41.271-1269.142-40.769-1274.211z M-39.633-1289.397
							c-0.419-1.523-0.817-1.415-1.216-0.767c0.741,1.053,0.821,4.46,0.644,8.343C-39.457-1282.906-38.948-1284.871-39.633-1289.397
							z M-25.476,340.294l0.734-2.959C-23.857,343.998-24.624,342.137-25.476,340.294z"/>
					</g>
				</g>
			</g>
		</g>
	</g>
	<g clip-path="url(#SVGID_2_)">
		<g>
			<g>
				<g>
					<g>
						<path fill="#FFF2A4" d="M176.126-625.827l-1.96,6.268c-3.192-7.576-2.074-13.05-4.83-7.167
							c6.79,0.899,0.648,24.376,7.431,25.261l-1.437,4.132c0.068-1.186-0.33-1.376-0.261-2.546
							c-3.268,8.033,4.899,5.982,3.911,16.339c-0.527,3.608-1.519,6.126-2.319,3.663l1.664,8.047
							c-0.136,2.341-1.312,1.766-1.18-0.563l0.518,12.271l-0.2-0.092c1.063,1.752,2.7,5.723,3.396,7.66
							c-0.978,3.115-0.713-1.565-1.564-0.769l1.632,6.796c-1.764,2.764-3.463-2.869-3.2-7.562c-6.792,6.331,1.7,5.641-2.287,19.324
							l-0.853-6.416c-3.858,4.128-2.473,9.137-4.888,16.384c1.257-1.719,6.08-14.507,7.759-7.131
							c-0.519,2.077-0.769,4.814,0.59,8.796c-2.413,0.031-1.829,3.916-1.701,8.776l-3.2-0.338c0.914,5.256,2.542,4.843,3.977,7.938
							c-0.328,5.855-2.807,7.064-4.897,8.438c-0.526,9.377,3.985-6.468,4.567,4.633c-1.24,7.797,0.056,13.275,1.951,22.61
							c-1.111,5.456-1.956-0.959-2.871,0.997l2.539,4.843c-0.063,1.186-0.846,0.801-1.241,0.606
							c0.982,4.079,3.195,0.342,4.054,6.754c3.517,1.735-5.178,13.148-1.192,21.091c-0.912,1.952-1.958-0.948-3.198-0.353
							c2.603,10.889,1.888,9.334,5.404,18.277l-2.114,7.609c2.412-5.589,5.238,1.563,7.561,7.829
							c1.164-1.981,2.182-3.675,2.668-4.812l1.696,9.993c-0.527,1.206-1.623,0.198-2.957-1.442c0.263,0.683,0.523,1.329,0.764,1.832
							c-1.189,3.571-3.032,1.715-4.813-0.848c0.632-1.217,1.311-2.423,1.98-3.595c-1.938-2.473-4.085-4.785-5.958-4.274
							c0.367,0.649,0.682,1.901,0.858,3.275c-0.526-0.646-0.997-1.059-1.317-0.761c-0.338,0.339,0.368,1.383,1.181,3.018
							l-3.569,2.265l1.415,0.554l-2.257,13.066c3.572,9.36,8.837,17.505,10.28,32.352c-2.607-3.688-4.269-0.8-7.366-1.007
							c3.288-4.044-1.371-11.499-0.689-19.19c-0.352,4.014-1.826,3.128-2.341,2.106l2.957,13.726
							c-2.531-0.314-1.905,2.91-2.961,6.492c5.014-2.699,3.316,10.234,4.839,15.819c-1.679,0.343-3.394-0.999-2.976-7.809
							c-3.786,7.507,5.862,9.721,2.644,17.091c-0.037-1.662,0.223-2.559-0.629-3.217c1.488,3.886,0.285,13.382-1.178,11.144
							l-0.031-1.659c-0.614,11.04-0.104,33.61,4.146,35.267c-0.547,0.108-5.125-1.457-5.982-2.126l14.272,19.729
							c-3.65-1.743-12.363,4.901-14.408-4.259c-0.525,2.628-1.138,5.879,0.139,11.424c0.523-1.793,5.292-4.46,5.619-2.009
							c-4.081,6.72-2.185,4.667-5.667,12.951c0.791-2.686,6.509,0.312,6.319,4.56c-0.857-0.666-5.654,0.342-6.248-1.212
							l5.602,10.585c-1.007-2.643-4.765-0.477-6.359,1.887c1.104-1.096-0.122,9.141,0.433,11.96l1.312-4.479
							c-0.875,11.936,7.882,11.808,7.564,23.649c-1.158-1.435-7.14-3.555-7.86,2.468c2.874,2.766,13.826,12.249,16.023,22.732
							l-1.652,2.006l1.861,8.044c-4.324-5.015-13.415-19.082-16.946-26.761c-1.313,4.465-1.942,1.24-1.808,7.931
							c-1.545,2.36-2.333-3.65-2.42-5.619l-1.027,15.574c3.363-0.687,3.348,11.918,6.149,11.329l-3.45-16.925
							c3.357-0.679,9.521,9.802,8.906,20.838c-1.343,2.805-5.98-2.112-7.101-1.885c1.155,1.435,2.191,10.479,1.368,11.491
							l-1.789-4.685c-1.275,6.141,4.436,10.035,1.213,17.413c-0.221,2.548-4.342,7.601-2.356,8.046
							c3.845-4.149,15.71-4.938,18.587-2.162c-0.261,0.893-3.694,13.374-5.595,16.28c-3.014,4.19-7.157-6.315-9.745-2.747
							c0.918,0.155,2.046,2.477,2.408,3.443c-0.791,2.675-2.842-1.114-2.439,4.702c3.408,0.977-0.31,11.828,2.875,2.755
							c0.963,5.69-0.712,6.044-0.577,12.724c2.207-2.121,7.485,6.014,8.445,11.714c-0.868-0.337-1.998,0.94-2.512,1.56
							c-0.333,11.66-1.894,17.917-1.944,28.79c-0.829,1.001-1.839,6.246-3.299,4.008c0.6,1.565,1.753,3.004,1.828,6.358
							c-2.96,6.484-0.443-7.479-3.993-2.538c1.979,0.427,2.715,8.68,3.943,13.459c3.061-1.464,0.608-11.036-0.619-15.822
							c4.219-0.014,8.621,8.323,10.549,19.692c1.031,9.033-2.734,3.91-2.138,5.479c-0.771,16.964,7.34,14.468,4.27,28.55
							c-2.702,5.585-5.353,0.241-7.293,1.478c-1.004-7.36,1.729-11.293,1.63-16.28l-1.285,6.137
							c-0.885-2.342-1.556-7.255-0.771-9.93c-2.426,4.681-0.521,28.661-2.776,41.747c0.897,2.328,1.821,6.344,2.905,4.446
							l-0.367-4.143c2.176-3.803,2.982,7.802,4.005,2.561c1.514,5.56,3.896,11.792,2.655,19.61l-3.068,1.464
							c0.896-0.166,1.837-5.108,0.906-7.31c1.352,3.263-4.173,11.984-0.167,15.565l2.135-5.479
							c1.529,5.581,4.771,12.483,3.79,19.412c3.034-3.147-0.343-1.598,3.209-6.517c-4.413,4.261,0.221-17.73-4.424-10.882
							c4.121-5.045,1.76-8.743,5.281-15.343c-1.013,0.202-1.939,2.337-1.43-3.481c-0.295-0.264-0.669-0.884-0.888-1.278
							c0.026-0.179,0.044-0.24,0.076-0.394c-0.043,0.116-0.077,0.204-0.12,0.32c-0.148-0.251-0.183-0.273-0.041,0.121
							c-0.443,1.384-0.979,2.506-1.544,2.961c-2.316-2.893-2.226-12.146-3.422-15.277c0.489-3.452,1.159,1.446,2.241-0.437
							l-1.785-4.678c2.246-0.459,3.746-9.166,5.046-1.029l0.115-7.321c1.268-4.308,1.781-10.235,0.843-13.894
							c0.494-3.452-2.468-8.727-0.716-5.715l-1.369-11.484l0.562-0.105c0.304-11.328-3.671-23.328,0.406-36.271
							c-0.559-3.815-1.245-7.758-0.595-14.138l1.943-1.239c-0.667-4.898,1.975-14.701-0.044-16.81
							c5.239-5.272,1.187-23.763,2.132-32.373l-2.536-0.33c0.156-5.928-0.552-11.614-1.554-18.974l-2.244,0.447
							c-1.827-6.348,1.626-16.306,1.414-26.341c0.858,0.684,0.629,3.229,0.107,5.028c5.088-11.979-3.634-25.301,0.077-36.166
							c-0.809-2.711-0.528-4.672,0.041-6.57c0.003,0.252,0.044,0.478,0.115,0.671c0.029-0.276,0.033-0.688,0.03-1.111
							c0.388-1.195,0.838-2.427,1.203-3.761c-0.55,1.133-1,2.219-1.21,3.162c-0.042-2.089-0.313-5.258-0.87-8.366l2.411-1.318
							c-0.033-0.252-0.027-0.456-0.068-0.719c0.897-3.046-1.135-2.452-2.949-0.829c-0.394-1.565-0.867-2.999-1.446-4.112
							c3.893-2.469-1.292-8.152,2.862-11.523c-2.02-2.098-1.493-15.62-5.741-17.283c0.552-0.105,0.818-1.02,0.851,0.657
							c0.492-3.463,0.982-6.922-0.211-10.03l3.063-1.464l-4.1-7.57c1.874-4.59,2.962-6.491,5.309-1.926
							c-3.599-11.021-1.347-8.938-4.92-18.313l1.979,0.46c-0.069-3.347-2.707-8.705-1.069-10.722
							c3.776-7.481,0.594-37.059,4.129-56.277c-5.837,3.718,2.626-8.932-1.889-9.703c1.38-1.116,2.165-3.795,3.358-0.679
							c-1.337-9.814,2.213-14.737-1.582-21.519c1.386-1.121,2.02,2.104,2.837,1.106c-0.293-0.788-1.192-3.12-0.366-4.14
							c0.821-0.997,1.153,1.439,1.751,2.994c-0.212-10.024-4.458-11.046-8.444-11.783c1.899-5.075,1.637-7.61-0.971-11.283
							c1.307-1.766,2.679-4.713,3.134,1.516c0.198-3.504,1.954-21.399-1.241-21.763c0.813-1.096,0.247-4.896-0.121-5.819
							c0.206-7.861,0.496-8.553,0.208-16.272l-0.526,2.139c-3.85-3.056-0.848-6.419-1.299-12.644l0.396,0.18
							c2.808-14.266-1.322-6.165,1.88-20.236l-2.399,0.761c-5.156-1.322,3.067-12.467,1.11-20.643l-1.375,2.947
							c-1.753-4.466,7.039-12.459,7.694-16.939c0.45-0.976,0.716,1.544,1.047,2.908c3.064-11.728-3.141-1.526-3.854-10.271
							c1.698-1.608,4.305,2.087,4.634-3.798c1.378-2.929-5.47-17.078-2.204-25.101c-1.31,1.766-2.617,3.521-3.589-0.543
							c-0.455-6.225,4.969-16.817,0.865-22.448c0.357-0.79,0.699-1.089,1.024-1.12c-1.052-4.761-1.733-15.468-3.96-18.338
							c8.294-4.381-3.97-29.589,3.669-29.468l-0.38-14.637l0.779,0.384c0.525-9.355-1.3-12.666-3.127-15.958
							c0.524-2.161,1.236-0.581,1.634-0.401c1.567-13.667,1.246-15.027-2.537-26.495l2.481-1.188
							c-1.436-3.109,3.923-19.754,1.06-33.167c0.28,0.132,0.761,0.41,1.108,1.476c-2.878-15.09,6.948-36.098-2.066-41.644
							l-2.205-9.958c-0.729,12.877-3.912-1.925-5.424,3.369c-0.52-5.065,2.748-13.088,3.2-6.863l-0.454,0.973
							c4.703,2.295,1.699-16,4.903-15.647c-0.182-25.341,2.471-50.035,2.718-73.771l-3.663,2.727l0.226-8.28
							c0.859-2.171,2.867-2.911,2.704,2.995c2.079-3.103-1.715-9.91-2.512-10.079c1.505-11.563,4.256,4.526,4.351,0.979
							l-0.263-4.817l-0.431,1.086c-1.486-3.908-3.068-4.258-2.875-11.356c0.741-4.491,2.26-2.3,2.406-4.068
							c0.259,0.011,0.382-0.586,0.11-2.712l0.331-10.431l-2.894,4.166c-1.412-4.626,0.171-9.808-3.11-5.001
							c5.058-7.056,1.889-38.908,3.464-43.244c-2.093-6.479-2.042-12.871-1.773-20.79c-0.606,1.968-3.854,3.139-3.441-3.689
							c6.692,2.511,2.932-12.5,7.761-18.011c-3.206,4.927-0.75-19.417-5.302-11.686c0.552-5.698,2.505-0.341,4.091-4.663
							c-2.568-13.569,1.745-29.888,0.903-46.655c-0.875-0.264-2.229,2.541-3.53-1.057l4.415-8.844
							c-0.426-3.312-5.071-3.058-2.006-9.101c-0.744,0.852-1.859,2.126-2.136-0.095c4.351-32.836-3.377-67.122,4.743-100.461
							c-1.713,4.515-1.879,1.502-1.932-1.947c-0.415,2.242-2.175-0.055-3.366,0.384l3.337-13.958
							c-3.303-2.551-0.194-14.971-3.355-16.436l0.562,4.424c-3.719-5.889-8.313,8.213-13.101,7.343
							c4.231,6.594-6.319,17.351-0.266,28.167c-0.981,2.382-1.54-2.038-2.652-0.764c2.047,2.742,2.47,6.05,1.536,12.177
							l-0.508-0.694c0.47,17.218-1.568,24.598-2.958,43.938l2.372-1.428c-0.326,4.156-1.069,5.029-1.666,6.976
							c3.581,4.776,0.225-11.675,4.176-7.321c-4.831,5.503-0.131,29.312-5.615,33.027c-0.041,6.396,2.745-1.869,2.701,4.523
							l-1.485,1.692l1.906,1.619c-0.323,4.192-2.181,6.304-3.436,6.458c0.151-1.017-0.344-2.892-0.451-3.982
							c-1.756,5.433,0.564,15.33-0.007,17.195l0.925-6.142c1.352,17.453-0.636,38.757,2.344,55.623l1.122-1.277
							c2.04,12.878-1.249,10.309-0.322,24.447l-0.265-0.515c1.107,2.832,1.663,6.61,1.527,10.479
							c-1.302-3.572-2.558,6.711-3.996,2.027c2.191,13.965,1.729,6.909,5.864,16.138l-1.856,2.122
							c1.669,3.146,2.553,3.411,3.019,10.471c-1.579-5.793-2.833,4.501-4.924-1.99c-4.083,14.806,4.05,22.005-1.893,28.79
							c5.118,6.814,2.875-12.814,3.965-9.002c1.686-3.187,3.826,5.623,3.3,10.271c-0.125,4.733-6.58,8.034-6.506,19.939
							c0.024-1.185-0.36-1.266-0.338-2.447c-1.317,4.453,1.755,8.732-0.38,14.194c3.095,3.069-0.193,7.095,3.761,7.985
							l-0.893-10.922c1.022,6.193,5.642,12.007,3.375,22.201c-0.795-0.796-1.838-3.832-2.421-5.919
							c-1.174,2.98,0.761,5.744-0.443,8.834c-3.961-0.89-0.837-13.274-3.842-19.912c-1.679,3.198,2.846,12.552-1.439,9.211
							c5.445,4.802-0.711,11.729,3.438,19.798l-2.371-0.537c0.368,1.277,1.484,3.922,1.419,6.271l-3.068-4.257
							c2.61,6.532-2.317,12.578-0.904,18.841c-0.047-13.108,2.865-2.937,4.608-8.475c3.143,16.173-6.223,9.285-5.123,27.387
							c-0.331-2.451,1.441-9.196,2.535-5.362c-0.497,3.444-1.416,7.993-2.664,10.105c0.468,11.993,2.442-1.836,3.891,3.271
							c-2.899,4.078,1.167,5.891,2.08,11.15l-2.412,0.032c-1.575,13.663,5.021,3.634,3.126,15.933l-3.336-5.206l0.852,6.416
							l-2.741-1.329c2.022,6.982,1.493,9.155,0.708,15.99c1.703-1.586,4.375,0.902,4.441,6.955
							c-1.443,4.125-2.292-2.316-1.962,6.264c-1.506-1.939-3.396-4.065-1.166-7.794c-0.784-0.384-1.511-1.914-2.284-2.309
							c-1.659,4.441-0.398,11.171-0.384,14.277c0.092-1.196,0.225-2.625,0.571-3.357l3.316,12.444
							c-0.91,1.956-1.634,0.401-2.343-1.139c0.255,2.52,1.361,4.265,1.56,7.97c-1.958-0.963-3.983-0.737-4.893-5.982l2.149,11.854
							c-0.854,0.79-2.353,6.077-3.073,4.537c-1.166,6.568,3.772,16.124,2.235,24.832c0.378,0.453,0.741,1.361,1.017,3.214
							c-0.459,8.185-2.878,15.432-0.21,25.14l-3.526,5.499c0.783,7.6,4.442-7.444,5.744,5.211c1.104,8.961-3.005,3.337-3.988,6.479
							c1.761,4.459,5.352,12.211,2.474,20.435C175.857-621.146,176.381-623.281,176.126-625.827z M177.5-532.106
							c-0.504-1.816-2.057-5.44-0.634-6.765C179.626-536.799,178.301-535.2,177.5-532.106z M183.026-389.633
							c-0.797-1.351-0.398-3.438,0.52-5.792C183.742-393.715,183.647-391.779,183.026-389.633z M199.031,7.259
							c-0.039-0.077-0.068-0.132-0.117-0.193C199.862,3.017,199.488,4.452,199.031,7.259z M197.967,15.668
							c0.337,0.847,0.669,0.789,1.007,0.433c-0.609-0.588-0.649-2.477-0.472-4.628C197.871,12.069,197.432,13.155,197.967,15.668z
							 M198.809-887.631l-0.635,1.636C197.488-889.694,198.112-888.657,198.809-887.631z"/>
					</g>
				</g>
			</g>
		</g>
	</g>
</g>
<g>
	<g>
		<path d="M1.794,4.594c0.598-0.747,1.197-1.123,1.797-1.123c0.449,0,0.86,0.151,1.235,0.449C5.201,4.221,5.5,4.745,5.726,5.492
			C5.95,6.242,6.249,7.328,6.624,8.75c0.374,2.021,0.598,3.257,0.674,3.706c0.298,0.525,0.599,1.572,0.898,3.146
			c0.972,4.268,1.646,6.814,2.022,7.638c0.374,0.6,0.618,1.572,0.73,2.92s0.281,2.021,0.505,2.021c0.374,0,0.748-0.522,1.123-1.572
			c0.374-1.048,0.599-2.021,0.674-2.92c0.149-0.973,0.43-1.703,0.843-2.19c0.411-0.486,0.618-0.916,0.618-1.292
			c0-0.449,0.337-1.609,1.011-3.481c0.674-1.871,1.16-3.106,1.46-3.707c0.523-0.674,1.272-1.309,2.247-1.909
			c2.845-1.946,5.391-0.599,7.638,4.044c0.748,1.572,1.309,2.658,1.685,3.257c0.599,0.974,0.936,1.535,1.011,1.685
			c0.599,0.898,1.16,1.909,1.685,3.033c0.972,1.647,1.685,2.846,2.134,3.594c0.748,1.05,1.124,1.836,1.124,2.358
			c0.073,0.449,0.354,0.918,0.842,1.404c0.486,0.487,0.842,0.729,1.067,0.729c0.374,0,0.748-1.084,1.123-3.257
			c0.074-1.422,0.298-2.695,0.674-3.818c0.225-1.048,0.337-1.871,0.337-2.472c0-0.747,0.186-1.533,0.562-2.358
			c0.374-0.823,0.635-1.722,0.786-2.695c0.074-0.823,0.225-1.46,0.449-1.909c0.374-0.523,0.635-1.573,0.786-3.146
			c0.225-1.646,0.599-2.825,1.123-3.538c0.523-0.711,1.236-0.954,2.134-0.729c0.599,0.15,0.972,0.337,1.123,0.562
			c0.149,0.225,0.411,0.861,0.786,1.909c0.748,2.097,0.86,3.782,0.337,5.055c-0.3,0.824-0.6,1.909-0.898,3.257
			c-0.225,1.423-0.488,2.434-0.786,3.032c-0.3,0.601-0.505,2.135-0.618,4.605s-0.356,4.119-0.73,4.941
			c-0.375,0.975-0.6,1.798-0.674,2.472c-0.151,0.898-0.394,1.667-0.73,2.303c-0.337,0.637-0.581,1.33-0.73,2.077
			c-0.151,0.825-0.6,1.629-1.348,2.415c-0.75,0.786-1.499,1.18-2.247,1.18c-1.348,0-2.734-0.898-4.156-2.696
			c-2.471-3.743-3.707-5.728-3.707-5.952s-0.188-0.486-0.562-0.786c-0.375-0.299-0.637-0.711-0.786-1.236
			c-0.225-0.598-0.75-1.497-1.572-2.695c-0.974-1.497-1.948-3.294-2.92-5.392c-1.199-2.095-1.909-3.145-2.134-3.145
			c-0.601,0-1.086,1.05-1.46,3.145c-0.225,0.899-0.505,1.724-0.842,2.472c-0.337,0.749-0.581,1.423-0.73,2.021
			c-0.151,0.749-0.263,1.235-0.337,1.46c-0.151,0.151-0.449,0.713-0.899,1.685c-0.524,0.825-0.898,1.424-1.123,1.798
			c-0.075,0.225-0.412,1.049-1.011,2.471c-0.6,1.423-1.162,2.397-1.685,2.92c-0.45,0.449-0.674,0.786-0.674,1.011
			s-0.3,0.618-0.898,1.18c-0.6,0.562-1.162,0.955-1.685,1.18c-0.6,0.225-1.236,0.15-1.91-0.225
			c-0.749-0.225-1.274-0.506-1.572-0.843c-0.3-0.337-0.544-0.843-0.73-1.517c-0.188-0.674-0.281-1.609-0.281-2.808
			c-0.076-2.021-0.3-3.331-0.674-3.932c-0.225-0.522-0.45-1.608-0.674-3.257C4.9,26.384,4.639,25.148,4.265,24.25
			c-0.375-0.898-0.674-1.983-0.898-3.258c-0.076-0.972-0.263-2.059-0.562-3.257c-0.6-2.92-0.898-4.83-0.898-5.729
			c0-0.747-0.112-1.533-0.337-2.358C0.745,7.702,0.82,6.018,1.794,4.594z"/>
		<path fill="#FFFFFF" d="M3.591,3.471c0.449,0,0.86,0.151,1.235,0.449C5.201,4.221,5.5,4.745,5.726,5.492
			C5.95,6.242,6.249,7.328,6.624,8.75c0.374,2.021,0.598,3.257,0.674,3.706c0.298,0.525,0.599,1.572,0.898,3.146
			c0.972,4.268,1.646,6.814,2.022,7.638c0.374,0.6,0.618,1.572,0.73,2.92s0.281,2.021,0.505,2.021c0.374,0,0.748-0.522,1.123-1.572
			c0.374-1.048,0.599-2.021,0.674-2.92c0.149-0.973,0.43-1.703,0.843-2.19c0.411-0.486,0.618-0.916,0.618-1.292
			c0-0.449,0.337-1.609,1.011-3.481c0.674-1.871,1.16-3.106,1.46-3.707c0.523-0.674,1.272-1.309,2.247-1.909
			c0.84-0.575,1.655-0.862,2.443-0.862c1.88,0,3.612,1.635,5.195,4.906c0.748,1.572,1.309,2.658,1.685,3.257
			c0.599,0.974,0.936,1.535,1.011,1.685c0.599,0.898,1.16,1.909,1.685,3.033c0.972,1.647,1.685,2.846,2.134,3.594
			c0.748,1.05,1.124,1.836,1.124,2.358c0.073,0.449,0.354,0.918,0.842,1.404c0.486,0.487,0.842,0.729,1.067,0.729
			c0.374,0,0.748-1.084,1.123-3.257c0.074-1.422,0.298-2.695,0.674-3.818c0.225-1.048,0.337-1.871,0.337-2.472
			c0-0.747,0.186-1.533,0.562-2.358c0.374-0.823,0.635-1.722,0.786-2.695c0.074-0.823,0.225-1.46,0.449-1.909
			c0.374-0.523,0.635-1.573,0.786-3.146c0.225-1.646,0.599-2.825,1.123-3.538c0.397-0.54,0.904-0.811,1.52-0.811
			c0.194,0,0.399,0.027,0.615,0.081c0.599,0.15,0.972,0.337,1.123,0.562c0.149,0.225,0.411,0.861,0.786,1.909
			c0.748,2.097,0.86,3.782,0.337,5.055c-0.3,0.824-0.6,1.909-0.898,3.257c-0.225,1.423-0.488,2.434-0.786,3.032
			c-0.3,0.601-0.505,2.135-0.618,4.605s-0.356,4.119-0.73,4.941c-0.375,0.975-0.6,1.798-0.674,2.472
			c-0.151,0.898-0.394,1.667-0.73,2.303c-0.337,0.637-0.581,1.33-0.73,2.077c-0.151,0.825-0.6,1.629-1.348,2.415
			c-0.75,0.786-1.499,1.18-2.247,1.18c-1.348,0-2.734-0.898-4.156-2.696c-2.471-3.743-3.707-5.728-3.707-5.952
			s-0.188-0.486-0.562-0.786c-0.375-0.299-0.637-0.711-0.786-1.236c-0.225-0.598-0.75-1.497-1.572-2.695
			c-0.974-1.497-1.948-3.294-2.92-5.392c-1.199-2.095-1.909-3.145-2.134-3.145c-0.601,0-1.086,1.05-1.46,3.145
			c-0.225,0.899-0.505,1.724-0.842,2.472c-0.337,0.749-0.581,1.423-0.73,2.021c-0.151,0.749-0.263,1.235-0.337,1.46
			c-0.151,0.151-0.449,0.713-0.899,1.685c-0.524,0.825-0.898,1.424-1.123,1.798c-0.075,0.225-0.412,1.049-1.011,2.471
			c-0.6,1.423-1.162,2.397-1.685,2.92c-0.45,0.449-0.674,0.786-0.674,1.011s-0.3,0.618-0.898,1.18
			c-0.6,0.562-1.162,0.955-1.685,1.18c-0.225,0.084-0.456,0.126-0.691,0.126c-0.392,0-0.798-0.116-1.219-0.351
			c-0.749-0.225-1.274-0.506-1.572-0.843c-0.3-0.337-0.544-0.843-0.73-1.517c-0.188-0.674-0.281-1.609-0.281-2.808
			c-0.076-2.021-0.3-3.331-0.674-3.932c-0.225-0.522-0.45-1.608-0.674-3.257C4.9,26.384,4.639,25.148,4.265,24.25
			c-0.375-0.898-0.674-1.983-0.898-3.258c-0.076-0.972-0.263-2.059-0.562-3.257c-0.6-2.92-0.898-4.83-0.898-5.729
			c0-0.747-0.112-1.533-0.337-2.358C0.745,7.702,0.82,6.018,1.794,4.594C2.393,3.847,2.991,3.471,3.591,3.471 M3.591,2.471
			c-0.915,0-1.782,0.504-2.578,1.498c-0.016,0.02-0.03,0.04-0.044,0.061c-1.164,1.7-1.28,3.7-0.348,5.944
			c0.189,0.713,0.285,1.396,0.285,2.033c0,0.981,0.301,2.921,0.919,5.93c0.293,1.181,0.473,2.222,0.544,3.134
			c0.002,0.031,0.007,0.063,0.012,0.096c0.237,1.344,0.56,2.512,0.96,3.47c0.333,0.798,0.573,1.948,0.713,3.416
			c0.323,2.378,0.583,3.167,0.751,3.557c0.02,0.046,0.043,0.09,0.069,0.133c0.126,0.203,0.43,0.944,0.523,3.44
			c0,1.267,0.104,2.273,0.317,3.039c0.229,0.829,0.539,1.456,0.947,1.913c0.411,0.464,1.044,0.827,1.931,1.104
			c0.537,0.281,1.077,0.424,1.606,0.424c0.354,0,0.705-0.063,1.042-0.189c0.679-0.291,1.325-0.738,2.017-1.386
			c0.798-0.748,1.151-1.259,1.207-1.764c0.041-0.063,0.146-0.206,0.389-0.45c0.621-0.619,1.242-1.679,1.899-3.238
			c0.677-1.609,0.908-2.187,0.998-2.429c0.226-0.372,0.578-0.937,1.059-1.692c0.024-0.037,0.045-0.076,0.064-0.116
			c0.533-1.152,0.704-1.397,0.733-1.436c0.11-0.11,0.16-0.209,0.208-0.357c0.055-0.169,0.154-0.516,0.367-1.574
			c0.123-0.49,0.349-1.113,0.662-1.809c0.359-0.798,0.662-1.687,0.9-2.64c0.005-0.021,0.01-0.044,0.014-0.066
			c0.16-0.893,0.319-1.463,0.45-1.822c0.27,0.41,0.674,1.064,1.271,2.106c0.979,2.109,1.979,3.952,2.971,5.478
			c0.949,1.382,1.318,2.102,1.462,2.469c0.21,0.707,0.584,1.279,1.112,1.699c0.101,0.081,0.161,0.141,0.195,0.178
			c0.065,0.401,0.532,1.286,3.861,6.329c0.016,0.024,0.032,0.047,0.05,0.069c1.614,2.041,3.276,3.076,4.94,3.076
			c1.029,0,2.028-0.501,2.97-1.489c0.882-0.928,1.422-1.911,1.608-2.926c0.126-0.633,0.34-1.24,0.63-1.789
			c0.383-0.723,0.664-1.6,0.833-2.604c0.003-0.019,0.006-0.038,0.008-0.058c0.063-0.578,0.266-1.317,0.604-2.196
			c0.424-0.956,0.687-2.684,0.805-5.279c0.147-3.243,0.43-4.038,0.513-4.204c0.347-0.697,0.633-1.774,0.875-3.293
			c0.284-1.278,0.571-2.321,0.855-3.102c0.603-1.463,0.495-3.404-0.335-5.732c-0.535-1.492-0.753-1.912-0.896-2.127
			c-0.303-0.45-0.846-0.76-1.712-0.978c-0.295-0.074-0.583-0.111-0.858-0.111c-0.935,0-1.739,0.421-2.325,1.218
			c-0.63,0.857-1.059,2.164-1.308,3.996c-0.186,1.931-0.488,2.529-0.609,2.699c-0.031,0.042-0.058,0.087-0.081,0.134
			c-0.282,0.563-0.461,1.295-0.548,2.233c-0.137,0.869-0.374,1.678-0.704,2.405c-0.432,0.947-0.651,1.881-0.651,2.771
			c0,0.516-0.102,1.259-0.304,2.209c-0.386,1.174-0.623,2.509-0.703,3.969c-0.17,0.979-0.32,1.598-0.434,1.985
			c-0.017-0.017-0.034-0.034-0.052-0.052c-0.393-0.393-0.516-0.664-0.553-0.812c-0.039-0.725-0.45-1.617-1.283-2.793
			c-0.445-0.742-1.142-1.914-2.085-3.513c-0.53-1.129-1.104-2.164-1.709-3.077c-0.09-0.166-0.314-0.55-1.02-1.697
			c-0.357-0.57-0.905-1.632-1.633-3.163c-1.785-3.688-3.778-5.477-6.098-5.477c-0.99,0-2.001,0.349-3.007,1.037
			c-1.036,0.637-1.881,1.359-2.472,2.121c-0.04,0.052-0.075,0.107-0.104,0.167c-0.32,0.64-0.813,1.888-1.506,3.814
			c-0.943,2.619-1.07,3.401-1.07,3.82c0,0.002-0.004,0.2-0.382,0.646c-0.538,0.636-0.887,1.514-1.067,2.685
			c-0.003,0.022-0.006,0.045-0.008,0.068c-0.049,0.587-0.172,1.221-0.368,1.892c-0.142-1.185-0.399-2.079-0.78-2.722
			c-0.248-0.574-0.783-2.337-1.935-7.396c-0.293-1.542-0.588-2.593-0.915-3.249c-0.095-0.548-0.312-1.735-0.649-3.562
			C7.603,8.544,7.597,8.52,7.591,8.494C7.201,7.017,6.904,5.94,6.684,5.205c-0.288-0.955-0.69-1.63-1.23-2.064
			C4.891,2.694,4.267,2.471,3.591,2.471L3.591,2.471z"/>
	</g>
	<g>
		<path d="M59.749,6.391c1.722-0.747,3.032-0.635,3.931,0.338c0.598,0.6,0.786,1.311,0.562,2.134
			c-0.225,0.824-0.862,1.499-1.91,2.021c-0.6,0.376-1.086,0.786-1.46,1.235c-0.225,0.449-0.525,0.862-0.898,1.235
			c-0.151,0.151-0.244,0.337-0.281,0.562c-0.039,0.225-0.056,0.432-0.056,0.618c0,0.188,0.112,0.281,0.337,0.281
			c0.074,0,0.261-0.242,0.562-0.73c0.298-0.486,0.542-0.73,0.73-0.73c0.186,0,0.579-0.186,1.179-0.562
			c0.523-0.449,1.497-0.898,2.92-1.348c1.272-0.599,3.406-1.028,6.402-1.292c2.994-0.261,4.791-0.317,5.391-0.168
			c0.748,0.225,1.348,0.337,1.797,0.337c0.599,0,1.573,0.3,2.92,0.898c1.421,0.749,2.508,1.572,3.257,2.471
			c1.047,1.349,1.46,3.745,1.235,7.188c-0.151,2.173-0.525,3.932-1.123,5.279c-0.6,1.198-1.123,2.209-1.573,3.032
			c-0.449,0.601-1.404,1.611-2.864,3.033c-1.46,1.423-2.303,2.134-2.527,2.134c-0.151,0-0.674,0.449-1.572,1.348
			c-1.573,1.423-4.043,2.734-7.413,3.932c-1.948,0.6-4.119,0.898-6.515,0.898c-2.397,0-4.343-0.411-5.84-1.236
			c-2.322-1.123-4.007-2.695-5.054-4.717c-0.375-0.823-0.674-1.497-0.898-2.021c-0.376-0.599-0.562-2.545-0.562-5.841
			c0-3.294,0.186-5.54,0.562-6.739c1.572-5.989,3.182-9.508,4.83-10.558c0.225-0.225,0.748-0.711,1.572-1.46
			C58.362,7.29,59.148,6.767,59.749,6.391z M77.944,16.051c-0.6-0.225-1.404-0.374-2.415-0.449
			c-1.011-0.074-1.779,0.038-2.302,0.337c-0.225,0.075-1.46,0.188-3.707,0.337c-2.397,0.075-4.38,0.487-5.953,1.235
			c-1.573,0.824-2.471,1.235-2.696,1.235c-0.825,0-1.386-0.599-1.685-1.797c-0.3-1.048-0.75-0.674-1.348,1.123
			c-1.123,2.397-1.685,5.093-1.685,8.087c0,2.021,0.13,3.445,0.393,4.268c0.261,0.825,0.804,1.611,1.628,2.359
			c0.823,0.824,1.91,1.348,3.257,1.572c3.443,0.6,6.776-0.037,9.996-1.909c0.374-0.225,0.86-0.486,1.46-0.786
			c0.374-0.225,0.972-0.73,1.797-1.517c0.823-0.786,1.666-1.59,2.527-2.415c0.86-0.823,1.441-1.46,1.741-1.909
			c1.722-2.32,2.583-3.893,2.583-4.718c0-0.972-0.356-1.927-1.067-2.864C79.759,17.306,78.917,16.575,77.944,16.051z"/>
		<path fill="#FFFFFF" d="M61.761,5.903c0.771,0,1.411,0.275,1.919,0.825c0.598,0.6,0.786,1.311,0.562,2.134
			c-0.225,0.824-0.862,1.499-1.91,2.021c-0.6,0.376-1.086,0.786-1.46,1.235c-0.225,0.449-0.525,0.862-0.898,1.235
			c-0.151,0.151-0.244,0.337-0.281,0.562c-0.039,0.225-0.056,0.432-0.056,0.618c0,0.188,0.112,0.281,0.337,0.281
			c0.074,0,0.261-0.242,0.562-0.73c0.298-0.486,0.542-0.73,0.73-0.73c0.186,0,0.579-0.186,1.179-0.562
			c0.523-0.449,1.497-0.898,2.92-1.348c1.272-0.599,3.406-1.028,6.402-1.292c1.906-0.166,3.328-0.249,4.264-0.249
			c0.534,0,0.91,0.026,1.127,0.081c0.748,0.225,1.348,0.337,1.797,0.337c0.599,0,1.573,0.3,2.92,0.898
			c1.421,0.749,2.508,1.572,3.257,2.471c1.047,1.349,1.46,3.745,1.235,7.188c-0.151,2.173-0.525,3.932-1.123,5.279
			c-0.6,1.198-1.123,2.209-1.573,3.032c-0.449,0.601-1.404,1.611-2.864,3.033c-1.46,1.423-2.303,2.134-2.527,2.134
			c-0.151,0-0.674,0.449-1.572,1.348c-1.573,1.423-4.043,2.734-7.413,3.932c-1.948,0.6-4.119,0.898-6.515,0.898
			c-2.397,0-4.343-0.411-5.84-1.236c-2.322-1.123-4.007-2.695-5.054-4.717c-0.375-0.823-0.674-1.497-0.898-2.021
			c-0.376-0.599-0.562-2.545-0.562-5.841c0-3.294,0.186-5.54,0.562-6.739c1.572-5.989,3.182-9.508,4.83-10.558
			c0.225-0.225,0.748-0.711,1.572-1.46c0.972-0.674,1.758-1.197,2.359-1.573C60.497,6.066,61.168,5.903,61.761,5.903 M60.872,18.746
			c-0.825,0-1.386-0.599-1.685-1.797c-0.111-0.386-0.242-0.579-0.393-0.579c-0.259,0-0.578,0.567-0.956,1.702
			c-1.123,2.397-1.685,5.093-1.685,8.087c0,2.021,0.13,3.445,0.393,4.268c0.261,0.825,0.804,1.611,1.628,2.359
			c0.823,0.824,1.91,1.348,3.257,1.572c0.835,0.146,1.664,0.218,2.486,0.218c2.567,0,5.071-0.709,7.51-2.127
			c0.374-0.225,0.86-0.486,1.46-0.786c0.374-0.225,0.972-0.73,1.797-1.517c0.823-0.786,1.666-1.59,2.527-2.415
			c0.86-0.823,1.441-1.46,1.741-1.909c1.722-2.32,2.583-3.893,2.583-4.718c0-0.972-0.356-1.927-1.067-2.864
			c-0.713-0.935-1.555-1.665-2.527-2.189c-0.6-0.225-1.404-0.374-2.415-0.449c-0.201-0.015-0.393-0.022-0.575-0.022
			c-0.732,0-1.309,0.12-1.728,0.359c-0.225,0.075-1.46,0.188-3.707,0.337c-2.397,0.075-4.38,0.487-5.953,1.235
			C61.995,18.335,61.097,18.746,60.872,18.746 M61.761,4.903L61.761,4.903c-0.728,0-1.539,0.192-2.41,0.57
			c-0.046,0.02-0.09,0.043-0.133,0.069c-0.624,0.391-1.43,0.929-2.398,1.599c-0.036,0.025-0.07,0.053-0.103,0.082
			c-0.748,0.68-1.263,1.156-1.533,1.42c-1.872,1.273-3.515,4.803-5.164,11.084c-0.396,1.259-0.595,3.562-0.595,6.993
			c0,4.409,0.331,5.697,0.668,6.295c0.224,0.521,0.517,1.182,0.882,1.982c0.007,0.016,0.014,0.03,0.022,0.045
			c1.14,2.201,2.985,3.932,5.483,5.146c1.635,0.895,3.754,1.348,6.299,1.348c2.485,0,4.776-0.317,6.809-0.942
			c3.517-1.249,6.125-2.64,7.79-4.146c0.737-0.735,1.067-1.017,1.203-1.121c0.417-0.107,1.047-0.557,2.924-2.385
			c1.512-1.474,2.483-2.504,2.967-3.151c0.028-0.038,0.054-0.077,0.077-0.119c0.444-0.813,0.964-1.814,1.589-3.063
			c0.663-1.49,1.068-3.379,1.227-5.658c0.244-3.734-0.229-6.308-1.443-7.871c-0.851-1.021-2.049-1.935-3.581-2.742
			c-0.02-0.011-0.04-0.02-0.061-0.029c-1.512-0.672-2.569-0.984-3.326-0.984c-0.241,0-0.699-0.051-1.509-0.295
			c-0.35-0.088-0.785-0.123-1.415-0.123c-0.972,0-2.395,0.082-4.351,0.253c-3.099,0.272-5.285,0.716-6.678,1.354
			c-0.275,0.087-0.534,0.175-0.778,0.264c0.485-0.48,0.814-1.031,0.983-1.65c0.32-1.172,0.037-2.245-0.818-3.103
			C63.722,5.3,62.804,4.903,61.761,4.903L61.761,4.903z M60.872,19.746c0.342,0,0.77-0.097,3.16-1.35
			c1.406-0.668,3.274-1.051,5.52-1.121c3.533-0.234,3.799-0.324,3.993-0.389c0.062-0.021,0.122-0.048,0.179-0.08
			c0.182-0.104,0.542-0.228,1.231-0.228c0.159,0,0.326,0.007,0.501,0.02c0.874,0.065,1.571,0.188,2.075,0.366
			c0.815,0.451,1.537,1.084,2.146,1.882c0.579,0.765,0.862,1.504,0.862,2.258c0,0.151-0.115,1.061-2.387,4.122
			c-0.206,0.306-0.626,0.822-1.629,1.782l-2.09,1.998l-0.436,0.416c-0.957,0.912-1.402,1.245-1.593,1.365
			c-0.61,0.306-1.098,0.569-1.488,0.804c-2.261,1.314-4.619,1.984-6.996,1.984c-0.761,0-1.54-0.068-2.314-0.203
			c-1.156-0.192-2.043-0.615-2.721-1.294c-0.724-0.657-1.177-1.304-1.383-1.954c-0.158-0.495-0.346-1.583-0.346-3.966
			c0-2.828,0.534-5.403,1.586-7.653C59.386,19.555,60.3,19.746,60.872,19.746L60.872,19.746z"/>
	</g>
	<g>
		<path d="M110.403,6.166c0.748-0.148,2.396-0.186,4.942-0.112c2.544,0.076,4.004,0.151,4.38,0.225
			c1.572,0.975,2.432,2.322,2.583,4.044c0,0.825-0.263,1.535-0.786,2.134c-0.974,1.199-2.097,1.235-3.37,0.112
			c-0.749-0.449-1.648-0.674-2.695-0.674c-3.521,0-6.402,1.011-8.648,3.033c-1.797,1.723-2.696,3.107-2.696,4.155
			c0,0.449-1.011,2.622-3.033,6.515l-1.123,2.134l-0.337,5.167l-0.225,5.391l-0.674,0.898c-0.825,0.975-1.724,1.404-2.696,1.292
			c-0.974-0.112-1.797-0.654-2.471-1.629c-0.524-0.822-0.898-2.62-1.123-5.391c-0.225-4.566-0.449-7.188-0.674-7.862
			c-0.3-0.374-0.562-1.348-0.786-2.921c-0.375-1.646-0.674-2.732-0.899-3.257c-0.225-0.449-0.337-1.834-0.337-4.155
			c0-1.798,0.112-2.994,0.337-3.595c0.225-0.599,0.636-0.898,1.236-0.898c0.598,0,1.197,0.562,1.797,1.685
			c0.523,0.825,1.084,1.724,1.685,2.696c0.225,0.375,0.562,1.011,1.011,1.909c0.374,0.749,0.767,1.03,1.179,0.842
			c0.411-0.186,0.916-0.879,1.517-2.077c0.748-1.272,1.497-2.396,2.246-3.37c0.298-0.599,0.842-1.253,1.628-1.966
			c0.787-0.71,1.609-1.365,2.471-1.965c0.86-0.599,1.404-0.898,1.628-0.898c0.45-0.149,1.16-0.411,2.134-0.786
			C109.354,6.467,109.954,6.242,110.403,6.166z"/>
		<path fill="#FFFFFF" d="M113.109,6.018c0.646,0,1.392,0.012,2.236,0.036c2.544,0.076,4.004,0.151,4.38,0.225
			c1.572,0.975,2.432,2.322,2.583,4.044c0,0.825-0.263,1.535-0.786,2.134c-0.502,0.618-1.045,0.928-1.627,0.928
			c-0.546,0-1.127-0.271-1.743-0.815c-0.749-0.449-1.648-0.674-2.695-0.674c-3.521,0-6.402,1.011-8.648,3.033
			c-1.797,1.723-2.696,3.107-2.696,4.155c0,0.449-1.011,2.622-3.033,6.515l-1.123,2.134l-0.337,5.167l-0.225,5.391l-0.674,0.898
			c-0.74,0.874-1.539,1.31-2.396,1.31c-0.099,0-0.199-0.006-0.3-0.018c-0.974-0.112-1.797-0.654-2.471-1.629
			c-0.524-0.822-0.898-2.62-1.123-5.391c-0.225-4.566-0.449-7.188-0.674-7.862c-0.3-0.374-0.562-1.348-0.786-2.921
			c-0.375-1.646-0.674-2.732-0.899-3.257c-0.225-0.449-0.337-1.834-0.337-4.155c0-1.798,0.112-2.994,0.337-3.595
			c0.225-0.599,0.636-0.898,1.236-0.898c0.598,0,1.197,0.562,1.797,1.685c0.523,0.825,1.084,1.724,1.685,2.696
			c0.225,0.375,0.562,1.011,1.011,1.909c0.298,0.599,0.61,0.898,0.934,0.898c0.081,0,0.163-0.019,0.246-0.057
			c0.411-0.186,0.916-0.879,1.517-2.077c0.748-1.272,1.497-2.396,2.246-3.37c0.298-0.599,0.842-1.253,1.628-1.966
			c0.787-0.71,1.609-1.365,2.471-1.965c0.86-0.599,1.404-0.898,1.628-0.898c0.45-0.149,1.16-0.411,2.134-0.786
			c0.748-0.374,1.348-0.599,1.797-0.675C110.903,6.066,111.806,6.018,113.109,6.018 M113.11,5.018L113.11,5.018
			c-1.384,0-2.333,0.055-2.902,0.168c-0.518,0.087-1.183,0.331-2.006,0.739c-0.861,0.331-1.515,0.573-1.944,0.719
			c-0.383,0.062-0.904,0.309-1.986,1.062c-0.886,0.616-1.751,1.304-2.57,2.043c-0.854,0.774-1.446,1.485-1.807,2.171
			c-0.755,0.989-1.515,2.133-2.26,3.4c-0.011,0.02-0.022,0.039-0.032,0.059c-0.379,0.757-0.653,1.168-0.827,1.388
			c-0.024-0.043-0.051-0.093-0.08-0.15c-0.463-0.927-0.806-1.573-1.048-1.977c-0.602-0.976-1.159-1.867-1.679-2.687
			c-0.309-0.578-1.194-2.181-2.661-2.181c-1.011,0-1.802,0.563-2.172,1.547c-0.274,0.731-0.401,1.985-0.401,3.946
			c0,3.19,0.203,4.101,0.426,4.569c0.137,0.326,0.389,1.116,0.826,3.025c0.281,1.953,0.582,2.747,0.854,3.174
			c0.106,0.46,0.324,2.043,0.592,7.476c0.246,3.038,0.651,4.896,1.278,5.88c0.862,1.247,1.932,1.938,3.2,2.084
			c0.139,0.017,0.277,0.024,0.415,0.024c1.162,0,2.225-0.56,3.159-1.663c0.013-0.016,0.025-0.031,0.037-0.047l0.674-0.898
			c0.122-0.161,0.191-0.355,0.199-0.558l0.225-5.391l0.322-4.932l1.024-1.945c3.148-6.06,3.148-6.592,3.148-6.98
			c0-0.345,0.232-1.368,2.388-3.434c2.052-1.847,4.662-2.755,7.957-2.755c0.825,0,1.535,0.165,2.11,0.49
			c0.776,0.663,1.559,0.999,2.328,0.999c0.896,0,1.704-0.437,2.403-1.297c0.662-0.758,1.01-1.697,1.01-2.765
			c0-0.029-0.001-0.059-0.004-0.087c-0.179-2.046-1.206-3.663-3.052-4.807c-0.103-0.064-0.217-0.108-0.335-0.132
			c-0.301-0.059-1.09-0.14-4.542-0.242C114.52,5.029,113.765,5.018,113.11,5.018L113.11,5.018z"/>
	</g>
	<g>
		<path d="M127.811,1.337C128.109,1.112,128.559,1,129.159,1c0.599,0,1.124,0.487,1.573,1.46c0.748,1.423,1.047,3.706,0.898,6.852
			c0,2.471,0,4.604,0,6.402c0,2.771,0.149,4.25,0.449,4.437c0.298,0.188,0.823-0.018,1.572-0.618
			c0.599-0.449,1.609-1.16,3.033-2.134c0.374-0.225,0.936-0.618,1.685-1.18c0.748-0.562,1.197-0.842,1.348-0.842
			c1.048-0.674,3.556-2.657,7.525-5.953c2.32-1.797,3.631-2.808,3.931-3.033c0.149,0,0.317-0.017,0.505-0.056
			c0.186-0.037,0.393-0.13,0.618-0.281c0.225-0.148,0.449-0.261,0.674-0.337c1.722-0.747,2.92-0.859,3.594-0.337
			c1.197,0.898,1.797,2.022,1.797,3.37c0,1.572-1.049,2.583-3.145,3.032c-0.974,0.225-1.948,0.786-2.92,1.685
			c-0.974,0.898-1.685,1.499-2.134,1.798c-0.749,0.3-2.06,1.235-3.931,2.808c-1.948,1.724-3.164,2.658-3.65,2.808
			c-0.488,0.151-0.843,0.488-1.067,1.011c-0.375,0.674,0.298,1.611,2.022,2.809c0.823,0.524,2.171,1.909,4.043,4.155
			c1.946,2.397,3.707,4.269,5.279,5.616c1.421,1.274,2.32,2.209,2.696,2.808c0.374,0.601,0.486,1.274,0.337,2.021
			c-0.375,1.05-1.03,1.761-1.966,2.135c-0.937,0.375-1.853,0.263-2.751-0.337c-2.247-1.422-5.392-4.418-9.435-8.985
			c-1.348-1.422-2.397-2.396-3.145-2.921c-0.674-0.449-1.124-0.972-1.348-1.572c-0.6-1.197-1.348-1.871-2.246-2.021
			c-0.225,0-0.544,0.095-0.955,0.28c-0.412,0.188-0.769,0.432-1.067,0.73c-0.3,0.3-0.524,0.562-0.674,0.786
			c-0.225,0.3-0.337,1.797-0.337,4.493v4.155l-1.011,0.898c-1.124,0.975-2.322,0.938-3.594-0.112
			c-0.75-0.747-1.311-2.208-1.685-4.38c-0.225-1.871-0.151-7.15,0.225-15.837c0.074-5.616,0.242-9.34,0.506-11.176
			C126.668,3.603,127.137,2.235,127.811,1.337z"/>
		<path fill="#FFFFFF" d="M129.159,1c0.599,0,1.124,0.487,1.573,1.46c0.748,1.423,1.047,3.706,0.898,6.852c0,2.471,0,4.604,0,6.402
			c0,2.771,0.149,4.25,0.449,4.437c0.071,0.045,0.155,0.067,0.252,0.067c0.31,0,0.75-0.229,1.32-0.686
			c0.599-0.449,1.609-1.16,3.033-2.134c0.374-0.225,0.936-0.618,1.685-1.18c0.748-0.562,1.197-0.842,1.348-0.842
			c1.048-0.674,3.556-2.657,7.525-5.953c2.32-1.797,3.631-2.808,3.931-3.033c0.149,0,0.317-0.017,0.505-0.056
			c0.186-0.037,0.393-0.13,0.618-0.281c0.225-0.148,0.449-0.261,0.674-0.337c1.013-0.439,1.845-0.659,2.496-0.659
			c0.455,0,0.821,0.107,1.099,0.322c1.197,0.898,1.797,2.022,1.797,3.37c0,1.572-1.049,2.583-3.145,3.032
			c-0.974,0.225-1.948,0.786-2.92,1.685c-0.974,0.898-1.685,1.499-2.134,1.798c-0.749,0.3-2.06,1.235-3.931,2.808
			c-1.948,1.724-3.164,2.658-3.65,2.808c-0.488,0.151-0.843,0.488-1.067,1.011c-0.375,0.674,0.298,1.611,2.022,2.809
			c0.823,0.524,2.171,1.909,4.043,4.155c1.946,2.397,3.707,4.269,5.279,5.616c1.421,1.274,2.32,2.209,2.696,2.808
			c0.374,0.601,0.486,1.274,0.337,2.021c-0.375,1.05-1.03,1.761-1.966,2.135c-0.36,0.145-0.718,0.217-1.072,0.217
			c-0.567,0-1.126-0.185-1.679-0.554c-2.247-1.422-5.392-4.418-9.435-8.985c-1.348-1.422-2.397-2.396-3.145-2.921
			c-0.674-0.449-1.124-0.972-1.348-1.572c-0.6-1.197-1.348-1.871-2.246-2.021c-0.225,0-0.544,0.095-0.955,0.28
			c-0.412,0.188-0.769,0.432-1.067,0.73c-0.3,0.3-0.524,0.562-0.674,0.786c-0.225,0.3-0.337,1.797-0.337,4.493v4.155l-1.011,0.898
			c-0.541,0.469-1.1,0.704-1.675,0.704c-0.62,0-1.26-0.272-1.919-0.816c-0.75-0.747-1.311-2.208-1.685-4.38
			c-0.225-1.871-0.151-7.15,0.225-15.837c0.074-5.616,0.242-9.34,0.506-11.176c0.261-1.834,0.73-3.201,1.404-4.1
			C128.109,1.112,128.559,1,129.159,1 M129.159,0c-0.831,0-1.468,0.176-1.949,0.538c-0.075,0.057-0.142,0.124-0.198,0.199
			c-0.785,1.046-1.306,2.537-1.594,4.559c-0.272,1.894-0.44,5.592-0.516,11.304c-0.38,8.785-0.452,14.019-0.217,15.969
			c0.002,0.017,0.004,0.034,0.007,0.051c0.414,2.404,1.057,4.014,1.964,4.918c0.022,0.022,0.045,0.043,0.07,0.063
			c0.84,0.693,1.7,1.045,2.556,1.045c0.82,0,1.604-0.319,2.33-0.948l1.02-0.907c0.213-0.189,0.335-0.462,0.335-0.747v-4.155
			c0-3.01,0.147-3.798,0.198-3.981c0.085-0.119,0.24-0.312,0.52-0.591c0.212-0.212,0.473-0.39,0.776-0.528
			c0.258-0.116,0.41-0.161,0.486-0.179c0.508,0.136,0.973,0.611,1.384,1.417c0.304,0.773,0.878,1.445,1.708,1.998
			c0.673,0.474,1.68,1.412,2.974,2.776c4.124,4.659,7.28,7.658,9.626,9.143c0.697,0.466,1.449,0.709,2.214,0.709
			c0.48,0,0.966-0.098,1.444-0.288c1.208-0.483,2.062-1.4,2.536-2.727c0.017-0.046,0.03-0.094,0.039-0.142
			c0.2-1.001,0.042-1.925-0.468-2.745c-0.436-0.694-1.35-1.654-2.877-3.023c-1.541-1.321-3.274-3.168-5.17-5.502
			c-1.964-2.356-3.362-3.782-4.282-4.369c-1.315-0.914-1.593-1.416-1.648-1.553c0.003-0.006,0.005-0.012,0.008-0.018
			c0.136-0.317,0.301-0.406,0.444-0.45c0.462-0.142,1.302-0.611,4.017-3.014c2.314-1.944,3.275-2.482,3.64-2.628
			c0.064-0.025,0.125-0.058,0.182-0.096c0.491-0.327,1.229-0.947,2.259-1.896c0.838-0.775,1.668-1.262,2.467-1.445
			c3.237-0.694,3.92-2.563,3.92-4.007c0-1.673-0.739-3.076-2.196-4.17c-0.443-0.344-1.019-0.522-1.699-0.522
			c-0.788,0-1.724,0.237-2.858,0.727c-0.291,0.103-0.581,0.249-0.862,0.436c-0.169,0.114-0.253,0.133-0.262,0.135
			c-0.119,0.024-0.22,0.036-0.31,0.036c-0.217,0-0.427,0.07-0.601,0.2c-0.324,0.244-1.761,1.353-3.943,3.042
			c-3.775,3.135-6.227,5.082-7.317,5.813c-0.314,0.108-0.745,0.373-1.544,0.974c-0.72,0.54-1.258,0.917-1.599,1.122
			c-0.017,0.01-0.034,0.021-0.05,0.032c-1.452,0.993-2.456,1.699-3.068,2.159c-0.114,0.091-0.213,0.165-0.298,0.226
			c-0.062-0.533-0.123-1.503-0.123-3.244V9.312c0.157-3.294-0.17-5.695-1.001-7.294C131.004,0.679,130.173,0,129.159,0L129.159,0z"
			/>
	</g>
	<g>
		<path d="M170.828,2.909c5.616-0.298,9.583-0.149,11.905,0.449c0.599,0.075,1.31,0.544,2.134,1.404
			c0.823,0.861,1.179,1.704,1.067,2.527c-0.112,0.824-0.73,1.723-1.853,2.695c-1.199,1.198-2.022,1.724-2.471,1.572
			c-0.375-0.073-0.618-0.149-0.73-0.225c-0.112-0.073-0.281-0.225-0.505-0.449s-0.413-0.522-0.562-0.898
			c-0.151-0.374-0.375-0.936-0.674-1.685l-0.899-2.135h-1.348c-0.825,0.151-2.021,0.45-3.594,0.899
			c-1.499,0.6-2.509,1.273-3.033,2.021c-0.674,1.274-0.674,2.658,0,4.155c0.599,1.274,1.983,2.098,4.156,2.472
			c0.823,0.15,1.517,0.28,2.078,0.393s1.067,0.264,1.516,0.449c0.449,0.188,0.899,0.394,1.348,0.618s0.842,0.524,1.179,0.898
			c0.337,0.375,0.767,0.786,1.292,1.235c1.797,1.648,2.808,2.622,3.033,2.92c0.449,0.449,0.972,1.274,1.572,2.472
			c0.748,1.198,1.011,2.397,0.787,3.594c-0.376,3.445-2.134,6.627-5.279,9.547c-0.674,0.601-1.199,1.123-1.572,1.572
			c-0.375,0.376-0.769,0.563-1.179,0.563c-0.413,0-0.918,0.225-1.517,0.674c-0.749,0.375-1.76,0.562-3.032,0.562
			c-1.199,0-2.285-0.187-3.257-0.562c-0.825-0.299-1.611-0.523-2.359-0.674c-0.825-0.149-2.116-1.029-3.875-2.64
			c-1.76-1.609-2.864-2.938-3.313-3.987c-0.375-1.123,0.112-1.983,1.46-2.584c0.823-0.449,1.628-0.522,2.415-0.225
			c0.787,0.301,1.385,0.449,1.797,0.449c0.411,0,0.972,0.301,1.685,0.899c0.711,0.6,1.179,1.273,1.404,2.021
			c0.298,0.3,0.654,0.6,1.067,0.898c0.411,0.3,0.916,0.544,1.516,0.73c0.599,0.188,1.197,0.243,1.797,0.168
			c2.021-0.298,3.145-1.048,3.369-2.246c0.225-0.674,0.523-1.272,0.899-1.797c0.523-0.45,0.786-1.385,0.786-2.809
			c0-1.421-0.281-2.583-0.842-3.481c-0.562-0.898-0.843-1.646-0.843-2.246c0-0.899-0.786-1.349-2.358-1.349
			c-2.996,0-5.542-0.635-7.638-1.909c-0.3-0.225-0.75-0.486-1.348-0.786c-0.601-0.298-1.367-0.991-2.303-2.078
			c-0.937-1.084-1.516-1.927-1.741-2.527c-0.3-0.747-0.488-1.159-0.562-1.235c-0.376-0.373-0.376-1.253,0-2.639
			c0.374-1.385,0.86-2.452,1.46-3.201c1.048-1.272,2.171-2.472,3.37-3.595C167.832,3.358,169.03,3.061,170.828,2.909z"/>
		<path fill="#FFFFFF" d="M175.893,2.76c3.013,0,5.292,0.199,6.84,0.599c0.599,0.075,1.31,0.544,2.134,1.404
			c0.823,0.861,1.179,1.704,1.067,2.527c-0.112,0.824-0.73,1.723-1.853,2.695c-1.064,1.064-1.833,1.598-2.307,1.598
			c-0.06,0-0.114-0.009-0.165-0.025c-0.375-0.073-0.618-0.149-0.73-0.225c-0.112-0.073-0.281-0.225-0.505-0.449
			s-0.413-0.522-0.562-0.898c-0.151-0.374-0.375-0.936-0.674-1.685l-0.899-2.135h-1.348c-0.825,0.151-2.021,0.45-3.594,0.899
			c-1.499,0.6-2.509,1.273-3.033,2.021c-0.674,1.274-0.674,2.658,0,4.155c0.599,1.274,1.983,2.098,4.156,2.472
			c0.823,0.15,1.517,0.28,2.078,0.393s1.067,0.264,1.516,0.449c0.449,0.188,0.899,0.394,1.348,0.618s0.842,0.524,1.179,0.898
			c0.337,0.375,0.767,0.786,1.292,1.235c1.797,1.648,2.808,2.622,3.033,2.92c0.449,0.449,0.972,1.274,1.572,2.472
			c0.748,1.198,1.011,2.397,0.787,3.594c-0.376,3.445-2.134,6.627-5.279,9.547c-0.674,0.601-1.199,1.123-1.572,1.572
			c-0.375,0.376-0.769,0.563-1.179,0.563c-0.413,0-0.918,0.225-1.517,0.674c-0.749,0.375-1.76,0.562-3.032,0.562
			c-1.199,0-2.285-0.187-3.257-0.562c-0.825-0.299-1.611-0.523-2.359-0.674c-0.825-0.149-2.116-1.029-3.875-2.64
			c-1.76-1.609-2.864-2.938-3.313-3.987c-0.375-1.123,0.112-1.983,1.46-2.584c0.494-0.27,0.981-0.403,1.461-0.403
			c0.321,0,0.639,0.06,0.953,0.179c0.787,0.301,1.385,0.449,1.797,0.449c0.411,0,0.972,0.301,1.685,0.899
			c0.711,0.6,1.179,1.273,1.404,2.021c0.298,0.3,0.654,0.6,1.067,0.898c0.411,0.3,0.916,0.544,1.516,0.73
			c0.427,0.134,0.854,0.2,1.281,0.2c0.172,0,0.344-0.011,0.517-0.032c2.021-0.298,3.145-1.048,3.369-2.246
			c0.225-0.674,0.523-1.272,0.899-1.797c0.523-0.45,0.786-1.385,0.786-2.809c0-1.421-0.281-2.583-0.842-3.481
			c-0.562-0.898-0.843-1.646-0.843-2.246c0-0.899-0.786-1.349-2.358-1.349c-2.996,0-5.542-0.635-7.638-1.909
			c-0.3-0.225-0.75-0.486-1.348-0.786c-0.601-0.298-1.367-0.991-2.303-2.078c-0.937-1.084-1.516-1.927-1.741-2.527
			c-0.3-0.747-0.488-1.159-0.562-1.235c-0.376-0.373-0.376-1.253,0-2.639c0.374-1.385,0.86-2.452,1.46-3.201
			c1.048-1.272,2.171-2.472,3.37-3.595c0.598-0.449,1.797-0.747,3.594-0.898C172.699,2.81,174.387,2.76,175.893,2.76 M175.893,1.76
			L175.893,1.76c-1.515,0-3.237,0.051-5.118,0.15c-2.069,0.174-3.375,0.522-4.142,1.098c-0.029,0.021-0.057,0.045-0.083,0.07
			c-1.22,1.143-2.384,2.384-3.458,3.688c-0.701,0.876-1.239,2.042-1.653,3.576c-0.321,1.185-0.586,2.643,0.173,3.516
			c0.045,0.088,0.163,0.337,0.426,0.992c0.261,0.699,0.89,1.626,1.912,2.809c1.033,1.2,1.889,1.96,2.615,2.319
			c0.54,0.271,0.943,0.504,1.193,0.691c0.026,0.02,0.052,0.037,0.08,0.054c2.242,1.363,4.986,2.055,8.157,2.055
			c0.654,0,1.358,0.109,1.358,0.349c0,0.798,0.325,1.706,0.995,2.776c0.458,0.732,0.69,1.726,0.69,2.951
			c0,1.593-0.365,1.987-0.438,2.051c-0.06,0.052-0.114,0.11-0.16,0.175c-0.431,0.601-0.779,1.295-1.035,2.063
			c-0.014,0.043-0.026,0.087-0.034,0.132c-0.137,0.729-0.988,1.214-2.532,1.441c-0.11,0.014-0.24,0.021-0.371,0.021
			c-0.324,0-0.654-0.052-0.982-0.154c-0.493-0.153-0.904-0.35-1.225-0.584c-0.297-0.215-0.56-0.43-0.786-0.64
			c-0.305-0.83-0.853-1.581-1.63-2.237c-0.922-0.774-1.662-1.135-2.329-1.135c-0.132,0-0.536-0.037-1.44-0.383
			c-0.43-0.163-0.87-0.245-1.311-0.245c-0.637,0-1.277,0.17-1.905,0.506c-2.535,1.149-2.22,3.037-1.965,3.799
			c0.009,0.025,0.019,0.052,0.029,0.077c0.512,1.193,1.675,2.609,3.558,4.331c1.945,1.78,3.334,2.697,4.372,2.886
			c0.676,0.136,1.422,0.35,2.197,0.63c1.062,0.409,2.279,0.621,3.598,0.621c1.445,0,2.583-0.218,3.48-0.667
			c0.053-0.027,0.104-0.059,0.152-0.095c0.614-0.46,0.887-0.474,0.917-0.474c0.685,0,1.319-0.288,1.887-0.855
			c0.021-0.021,0.042-0.044,0.062-0.067c0.333-0.4,0.827-0.894,1.469-1.466c3.314-3.076,5.194-6.485,5.604-10.147
			c0.256-1.417-0.048-2.84-0.903-4.228c-0.63-1.253-1.186-2.119-1.695-2.646c-0.225-0.276-0.842-0.917-3.108-2.995
			c-0.515-0.442-0.918-0.827-1.223-1.166c-0.421-0.468-0.917-0.846-1.476-1.125c-0.453-0.227-0.927-0.443-1.409-0.646
			c-0.52-0.215-1.092-0.385-1.707-0.508c-0.566-0.113-1.265-0.244-2.095-0.396c-1.831-0.315-2.982-0.959-3.43-1.913
			c-0.528-1.173-0.547-2.227-0.051-3.205c0.297-0.396,0.971-0.98,2.503-1.6c1.448-0.413,2.578-0.697,3.362-0.847h0.591l0.642,1.522
			c0.292,0.733,0.517,1.296,0.668,1.671c0.195,0.492,0.458,0.908,0.782,1.231c0.292,0.293,0.492,0.466,0.666,0.58
			c0.222,0.148,0.536,0.258,1.037,0.358c0.13,0.036,0.265,0.054,0.404,0.054c0.782,0,1.677-0.559,2.988-1.865
			c1.308-1.14,2.016-2.217,2.162-3.293c0.155-1.136-0.294-2.265-1.335-3.353c-0.971-1.014-1.843-1.569-2.662-1.696
			C181.287,1.962,178.985,1.76,175.893,1.76L175.893,1.76z"/>
	</g>
</g>
</svg>
