<?xml version="1.0" encoding="utf-8"?>
<!-- Generator: Adobe Illustrator 16.0.0, SVG Export Plug-In . SVG Version: 6.00 Build 0)  -->
<!DOCTYPE svg PUBLIC "-//W3C//DTD SVG 1.1//EN" "http://www.w3.org/Graphics/SVG/1.1/DTD/svg11.dtd">
<svg version="1.1" id="Layer_1" xmlns="http://www.w3.org/2000/svg" xmlns:xlink="http://www.w3.org/1999/xlink" x="0px" y="0px"
	 width="327.688px" height="68.275px" viewBox="0 0 327.688 68.275" enable-background="new 0 0 327.688 68.275"
	 xml:space="preserve">
<g>
	<path fill="none" d="M176.088,18.558c0.021-0.01,0.039-0.021,0.063-0.023C176.127,18.536,176.109,18.55,176.088,18.558z"/>
	<path fill="none" d="M175.823,18.967c-0.009,0.041-0.021,0.076-0.025,0.123C175.803,19.043,175.814,19.008,175.823,18.967z"/>
	<path fill="none" d="M175.902,18.735c0.019-0.029,0.034-0.059,0.054-0.082C175.936,18.677,175.918,18.705,175.902,18.735z"/>
	<path fill="none" d="M260.665,13.621c0.057-0.031,0.109-0.063,0.166-0.097C260.776,13.555,260.72,13.589,260.665,13.621z"/>
	<path fill="none" d="M261.797,13.077c0.063-0.022,0.125-0.048,0.188-0.069C261.922,13.03,261.86,13.052,261.797,13.077z"/>
	<path fill="none" d="M264.07,12.62c-0.016,0-0.028,0.004-0.046,0.004c0.021,0,0.045-0.003,0.068-0.003
		C264.084,12.621,264.079,12.62,264.07,12.62z"/>
	<path fill="none" d="M262.946,12.735c0.042-0.008,0.084-0.013,0.127-0.021C263.03,12.722,262.988,12.727,262.946,12.735z"/>
	<path fill="#FFFFFF" d="M32.28,18.72c-1.238,0-1.858,0.54-1.858,1.618v1.08L30.36,33.9l0.42-0.062h0.24
		c0.439-0.198,0.779-0.318,1.021-0.358c0.08-0.039,0.37-0.199,0.87-0.479c0.5-0.279,1.209-0.698,2.13-1.262
		c1.561-0.919,2.438-3.02,2.641-6.3c0.08-2.238-0.562-3.979-1.92-5.22C34.72,19.22,33.56,18.72,32.28,18.72z"/>
	<path fill="#FFFFFF" d="M73.759,51.48c2.28,0,3.66-1.659,4.141-4.979c0.08-0.681,0.149-1.59,0.21-2.729
		c0.021-0.428,0.04-0.896,0.056-1.381c0.021-0.813,0.037-1.694,0.037-2.669c0-2.762-0.563-4.899-1.682-6.42
		c-0.641-0.882-1.561-1.32-2.76-1.32c-1.121,0-2.121,0.562-3,1.681c-0.961,1.521-1.44,4.182-1.44,7.979
		c0,0.36,0.012,0.702,0.021,1.045c0.092,3.479,0.642,5.959,1.661,7.415C71.679,51.021,72.599,51.48,73.759,51.48z"/>
	<path fill="#FFFFFF" d="M202.458,50.1c0.682,0.921,1.602,1.38,2.762,1.38c2.279,0,3.658-1.659,4.141-4.979
		c0.08-0.681,0.149-1.59,0.209-2.729c0.063-1.142,0.093-2.49,0.093-4.05c0-0.609-0.031-1.186-0.089-1.732
		c-0.19-1.938-0.721-3.503-1.594-4.688c-0.641-0.882-1.561-1.32-2.76-1.32c-1.12,0-2.12,0.562-3,1.681
		c-0.646,1.021-1.067,2.567-1.279,4.616c-0.104,1.002-0.161,2.115-0.161,3.363C200.778,45.681,201.336,48.5,202.458,50.1z"/>
	<path fill="#FFFFFF" d="M298.277,31.98c-1.12,0-2.12,0.562-3,1.681c-0.258,0.408-0.479,0.905-0.667,1.479
		c-0.514,1.56-0.771,3.722-0.771,6.501c0,4.041,0.563,6.858,1.682,8.46c0.68,0.921,1.603,1.38,2.761,1.38
		c2.28,0,3.659-1.659,4.143-4.979c0.08-0.682,0.147-1.592,0.21-2.729c0.061-1.141,0.092-2.49,0.092-4.05
		c0-1.907-0.274-3.513-0.81-4.825c-0.239-0.589-0.524-1.125-0.873-1.595C300.397,32.42,299.477,31.98,298.277,31.98z"/>
	<g>
		<g>
			<g>
				<path fill="#FFFFFF" d="M320.381,23.315C314.863,17.797,307.427,15,298.277,15c-0.836,0-1.935,0.047-6.938,0.617
					c-2.551,0.293-4.961,0.948-7.204,1.936c-0.347-5.107-2.854-9.644-7.149-12.868c-0.085-0.063-0.171-0.127-0.258-0.188
					c-3.354-2.379-7.251-3.692-11.319-3.824c-0.44-0.032-0.891-0.051-1.334-0.051c-3.736,0-7.346,1.169-10.738,3.446
					c-2.739-2.584-6.287-3.826-9.713-3.826c-0.91,0-2.237,0.054-3.771,0.469L227.95,3.731c-0.354,0.09-0.701,0.193-1.047,0.315
					c-5.902,2.085-9.668,6.938-10.01,12.785c-3.505-1.212-7.398-1.83-11.673-1.83c-0.835,0-1.936,0.047-6.939,0.617
					c-0.76,0.087-1.505,0.215-2.237,0.363c-0.297-4.149-2.213-7.983-5.51-10.887c-2.769-2.446-5.89-3.954-9.267-4.475
					c-1.104-0.177-1.997-0.309-2.723-0.399C177.336,0.067,176.454,0,175.637,0c-10.116,0-15.958,4.061-19.077,7.463
					c-0.75,0.817-1.435,1.693-2.054,2.625c-1.688-1.267-3.689-2.189-5.925-2.658c-1.518-0.351-3.006-0.351-6.244-0.351
					c-0.394,0-0.782,0.021-1.173,0.06c-5.865,0.574-10.594,4.063-12.932,9.441c-0.056,0.02-0.106,0.039-0.163,0.059
					c-2.482-1.168-5.359-1.817-8.531-1.817c-1.776,0-3.467,0.213-5.052,0.634c-1.324-0.382-2.697-0.572-4.068-0.572
					c-0.824,0-1.648,0.083-2.521,0.256c-0.067,0.014-0.138,0.025-0.207,0.042l-0.125,0.023l-0.167,0.032
					c-0.354,0.07-0.706,0.158-1.052,0.262l-10.32,3.062c-1.388,0.406-2.664,0.988-3.821,1.701C87.204,16.77,81.024,15,73.759,15
					c-0.836,0-1.938,0.047-6.939,0.617c-1.063,0.121-2.089,0.326-3.102,0.57c-1.72-4.07-4.317-6.931-6.655-8.826
					C52.322,3.513,46.365,1.56,39.36,1.56H14.52C6.242,1.56,0,7.777,0,16.02c0,3.406,1.148,6.58,3.181,9.093V44.01
					C1.15,46.521,0,49.696,0,53.1c0,0.776,0.061,1.567,0.183,2.423c0.299,2.124,1.091,4.134,2.348,5.946
					c1.21,1.752,2.806,3.194,4.725,4.274c2.146,1.205,4.587,1.813,7.269,1.813h16.859c5.779,0,10.622-2.955,12.955-7.903
					c0.039-0.083,0.077-0.166,0.114-0.249c0.745-1.685,1.511-3.751,1.511-6.308c0-1.169-0.146-2.313-0.417-3.42
					c0.883,2.905,2.248,5.651,4.12,8.209c4.072,5.616,9.8,8.976,16.567,9.715c1.657,0.194,2.911,0.346,3.767,0.442
					c1.707,0.195,2.009,0.229,2.743,0.229h1.021c0.404,0,0.81-0.021,1.212-0.063c3.194-0.321,4.87-0.447,5.712-0.496
					c0.208-0.014,0.416-0.028,0.622-0.053c3.466-0.381,6.676-1.482,9.548-3.25c2.505,2.012,5.663,3.144,9.004,3.144h15.42
					c4.768,0,8.843-2.078,11.432-5.407c1,1.058,2.147,2.013,3.438,2.841c0.478,0.307,0.974,0.577,1.486,0.813
					c2.604,1.194,4.883,1.754,7.163,1.754h12.061c2.083,0,3.955-0.313,5.632-0.854c1.563,0.545,3.252,0.854,5.05,0.854h15.479
					c3.979,0,7.477-1.444,10.03-3.851c3.113,2.138,6.697,3.461,10.64,3.895c1.658,0.195,2.913,0.346,3.77,0.443
					c1.705,0.193,2.009,0.229,2.74,0.229h1.021c0.403,0,0.81-0.021,1.212-0.063c3.193-0.322,4.87-0.449,5.713-0.498
					c0.208-0.013,0.416-0.027,0.622-0.053c3.466-0.381,6.676-1.482,9.547-3.25c2.503,2.01,5.662,3.144,9.005,3.144h15.421
					c1.781,0,3.5-0.316,5.096-0.908c1.591,0.585,3.291,0.908,5.047,0.908h15.42c3.354,0,6.479-1.123,8.974-3.099
					c2.833,1.696,6.02,2.764,9.477,3.144c1.658,0.194,2.914,0.346,3.77,0.442c1.705,0.194,2.007,0.229,2.742,0.229h1.021
					c0.405,0,0.813-0.021,1.213-0.063c3.194-0.322,4.869-0.449,5.713-0.498c0.209-0.013,0.416-0.026,0.623-0.052
					c6.634-0.729,12.339-4.087,16.5-9.714c3.56-4.838,5.354-10.316,5.354-16.313C327.677,34.423,325.154,28.086,320.381,23.315z"/>
			</g>
		</g>
	</g>
	<path fill="#F594FF" d="M15.18,48.42c-0.16,1.08-0.641,1.842-1.44,2.277l-0.36,0.182C12.459,51.321,12,52.06,12,53.1
		c0,0.198,0.021,0.438,0.061,0.72s0.149,0.552,0.33,0.812c0.18,0.264,0.429,0.479,0.75,0.66c0.319,0.183,0.779,0.271,1.38,0.271
		H31.38c1.08,0,1.779-0.34,2.101-1.021c0.319-0.722,0.479-1.198,0.479-1.438c0-0.92-0.46-1.659-1.38-2.223l-0.3-0.182
		c-0.84-0.396-1.341-1.158-1.5-2.279v-4.44l-15.6,0.52V48.42z"/>
	<path fill="#F594FF" d="M78.163,42.389c-0.016,0.483-0.031,0.95-0.056,1.381c-0.061,1.141-0.13,2.051-0.21,2.729
		c-0.479,3.319-1.858,4.979-4.141,4.979c-1.16,0-2.081-0.459-2.76-1.38c-1.021-1.456-1.569-3.938-1.661-7.415L56.43,43.118
		c0.251,2.813,1.222,5.383,2.928,7.7c2.08,2.88,4.82,4.5,8.222,4.86c1.681,0.196,2.947,0.35,3.811,0.448
		c0.859,0.101,1.311,0.147,1.35,0.147h1.021c2.76-0.278,4.839-0.46,6.239-0.54c2.041-0.224,3.863-0.943,5.474-2.158
		c0.977-0.738,1.872-1.658,2.688-2.762c1.938-2.635,2.928-5.592,2.986-8.864L78.163,42.389z"/>
	<path fill="#F594FF" d="M100.364,41.646l0.035,6.771l-0.061,0.603c-0.04,0.96-0.479,1.66-1.319,2.102l-0.3,0.118
		c-0.841,0.563-1.261,1.24-1.261,2.04c0,0.521,0.21,1.03,0.63,1.53c0.42,0.501,1.011,0.75,1.771,0.75h15.42
		c1.601,0,2.4-0.762,2.4-2.28c0-0.759-0.301-1.357-0.9-1.8l-0.358-0.24l-0.3-0.118c-0.923-0.479-1.382-1.382-1.382-2.699v-7.256
		L100.364,41.646z"/>
	<path fill="#F594FF" d="M148.038,40.048l-13.92,0.469V50.64c0,1.761,0.84,3.18,2.521,4.26c0.96,0.438,1.68,0.66,2.159,0.66h8.522
		h3.536c2.438,0,3.66-0.858,3.66-2.58c0-1.8-0.621-2.778-1.858-2.938l-0.78-0.119c-1.521,0.08-2.541-0.102-3.062-0.541
		c-0.234-0.168-0.456-0.619-0.664-1.325c-0.039-0.136-0.077-0.263-0.115-0.412L148.038,40.048L148.038,40.048z"/>
	<path fill="#F594FF" d="M162.138,39.577v8.843l-0.061,0.603c-0.04,0.96-0.479,1.66-1.32,2.102l-0.3,0.119
		c-0.88,0.521-1.319,1.199-1.319,2.039c0,1.521,0.8,2.28,2.399,2.28h15.479c1.013,0,1.703-0.299,2.074-0.895
		c0.217-0.344,0.326-0.785,0.326-1.328c0-0.721-0.32-1.34-0.961-1.857l-0.303-0.239l-0.3-0.119
		c-0.184-0.098-0.348-0.211-0.496-0.344c-0.477-0.412-0.792-0.998-0.94-1.758V47.39V39.1L162.138,39.577z"/>
	<path fill="#F594FF" d="M209.571,37.988c0.057,0.55,0.09,1.123,0.09,1.732c0,1.56-0.031,2.908-0.094,4.05
		c-0.06,1.141-0.129,2.051-0.209,2.729c-0.479,3.319-1.857,4.979-4.142,4.979c-1.159,0-2.079-0.459-2.76-1.38
		c-1.121-1.603-1.683-4.419-1.683-8.46c0-1.248,0.06-2.361,0.161-3.363l-12.844,0.431c-0.179,0.942-0.278,1.919-0.278,2.936
		c0,3.397,1,6.46,3,9.18c2.08,2.881,4.818,4.5,8.224,4.86c1.68,0.197,2.946,0.35,3.812,0.447c0.858,0.102,1.309,0.148,1.35,0.148
		h1.021c2.76-0.279,4.84-0.46,6.239-0.54c2.041-0.224,3.862-0.942,5.473-2.159c0.976-0.736,1.872-1.656,2.688-2.761
		c2-2.72,3-5.778,3-9.18c0-1.458-0.173-2.813-0.498-4.073L209.571,37.988z"/>
	<path fill="#F594FF" d="M231.833,37.242l0.022,11.178l-0.061,0.603c-0.041,0.96-0.479,1.66-1.319,2.102l-0.302,0.119
		c-0.84,0.563-1.26,1.239-1.26,2.039c0,0.521,0.211,1.03,0.631,1.53c0.42,0.501,1.011,0.75,1.771,0.75h11.354h4.065
		c1.04,0,1.779-0.459,2.224-1.38c0.119-0.279,0.181-0.562,0.181-0.843c0-0.799-0.302-1.42-0.9-1.857l-0.357-0.239l-0.358-0.119
		c-0.88-0.479-1.318-1.381-1.318-2.699V36.76L231.833,37.242z"/>
	<path fill="#F594FF" d="M257.31,36.388c0.017,0.091,0.043,0.177,0.047,0.271l0.062,11.761l-0.062,0.602
		c-0.04,0.96-0.479,1.66-1.317,2.101l-0.303,0.119c-0.84,0.563-1.26,1.24-1.26,2.04c0,0.521,0.21,1.03,0.63,1.53
		c0.421,0.501,1.013,0.75,1.771,0.75h15.42c0.123,0,0.227-0.025,0.34-0.04c0.855-0.098,1.492-0.524,1.881-1.34
		c0.12-0.279,0.183-0.563,0.183-0.842c0-0.801-0.303-1.42-0.898-1.858l-0.36-0.24l-0.357-0.119
		c-0.881-0.479-1.318-1.381-1.318-2.699V35.905L257.31,36.388z"/>
	<path fill="#F594FF" d="M301.906,34.895c0.535,1.313,0.813,2.918,0.813,4.825c0,1.56-0.031,2.908-0.093,4.05
		c-0.062,1.141-0.129,2.051-0.209,2.729c-0.479,3.319-1.858,4.979-4.143,4.979c-1.161,0-2.081-0.459-2.761-1.38
		c-1.119-1.603-1.682-4.419-1.682-8.46c0-2.779,0.262-4.941,0.771-6.501l-12.476,0.418c-0.838,1.859-1.26,3.888-1.26,6.083
		c0,3.398,1,6.46,3,9.18c2.08,2.88,4.817,4.5,8.221,4.86c1.682,0.196,2.949,0.35,3.812,0.448c0.859,0.101,1.313,0.147,1.352,0.147
		h1.021c2.762-0.278,4.839-0.46,6.239-0.54c3.277-0.357,6-1.999,8.158-4.92c2-2.72,3-5.777,3-9.18c0-2.733-0.59-5.11-1.743-7.148
		L301.906,34.895z"/>
	<path fill="#3C2DAA" d="M49.5,16.68c-2.562-2.079-5.939-3.12-10.142-3.12H14.52C12.84,13.56,12,14.379,12,16.02
		c0,1.041,0.459,1.778,1.38,2.22l0.181,0.12l0.18,0.062c0.761,0.399,1.239,1.16,1.44,2.279V44.5l15.6-0.521V39.9h0.96
		c4.682-0.64,7.961-1.238,9.842-1.8c1.141-0.313,2.187-0.659,3.155-1.031c2.132-0.814,3.864-1.771,5.185-2.868
		c2.479-2.04,3.721-4.72,3.721-8.04c0-1.563-0.206-2.986-0.61-4.278C52.378,19.798,51.204,18.063,49.5,16.68z M35.04,31.74
		c-0.92,0.56-1.63,0.98-2.13,1.26s-0.791,0.439-0.87,0.479c-0.24,0.04-0.58,0.16-1.021,0.358h-0.24l-0.42,0.062L30.42,21.42v-1.08
		c0-1.078,0.62-1.618,1.858-1.618c1.28,0,2.438,0.5,3.479,1.5c1.359,1.238,2,2.979,1.921,5.22C37.479,28.72,36.6,30.821,35.04,31.74
		z"/>
	<path fill="#3C2DAA" d="M68.179,27.541c-3.479,0.398-6.321,1.979-8.521,4.738c-2.2,2.682-3.302,5.802-3.302,9.36
		c0,0.501,0.028,0.989,0.072,1.479l12.907-0.434c-0.009-0.345-0.021-0.685-0.021-1.045c0-3.802,0.479-6.459,1.439-7.979
		c0.88-1.119,1.88-1.681,3-1.681c1.2,0,2.12,0.438,2.761,1.318c1.12,1.521,1.682,3.66,1.682,6.422c0,0.975-0.015,1.856-0.037,2.669
		l12.983-0.437c0.002-0.104,0.014-0.208,0.014-0.313c0-4.04-1.262-7.32-3.78-9.842c-0.563-0.562-1.178-1.055-1.82-1.518
		C82.531,28.107,78.609,27,73.759,27C73.199,27,71.338,27.18,68.179,27.541z"/>
	<path fill="#3C2DAA" d="M114.26,29.58l-0.961,1.143l-0.42,0.54V30.24c0-2.238-0.819-3.358-2.46-3.358
		c-0.04,0-0.109,0.012-0.21,0.029c-0.102,0.021-0.25,0.051-0.449,0.091l-10.32,3.062c-1.358,0.398-2.04,1.182-2.04,2.34
		c0,0.721,0.302,1.32,0.899,1.801l0.421,0.239l0.3,0.181c0.84,0.521,1.279,1.199,1.319,2.04l0.023,4.985l14.375-0.48V40.92
		c0-1.601,0.2-2.658,0.602-3.182c0.28-0.318,0.819-0.52,1.62-0.6l2.101,0.358c0.063,0,0.213,0.018,0.41,0.04
		c0.055,0.007,0.095,0.011,0.159,0.021c0.301,0.04,0.53,0.061,0.688,0.061c2.32,0,3.938-1.18,4.86-3.54
		c0.199-0.879,0.3-1.561,0.3-2.039c0-3.479-1.979-5.222-5.938-5.222c-0.374,0-0.723,0.026-1.056,0.065
		c-0.772,0.094-1.445,0.285-2.006,0.595C115.958,27.8,115.219,28.5,114.26,29.58z"/>
	<path fill="#3C2DAA" d="M145.938,19.139c-0.12-0.039-1.318-0.062-3.601-0.062c-1.643,0.16-2.739,1.104-3.3,2.819
		c-0.762,2.479-1.46,3.979-2.102,4.5l-0.3,0.24l-0.421,0.238c-0.88,0.521-2.1,0.859-3.659,1.021c-1.721,0.16-2.58,1.182-2.58,3.062
		c0,0.762,0.22,1.409,0.66,1.949c0.439,0.539,0.92,0.813,1.439,0.813h2.04v6.795l13.92-0.469v-2.071V33.72h3.658
		c1.16,0,1.932-0.227,2.312-0.675c0.381-0.447,0.57-1.267,0.57-2.448c0-1.918-1.041-2.877-3.12-2.877h-3.359v-4.108V21.33
		C148.098,20.107,147.378,19.376,145.938,19.139z"/>
	<path fill="#3C2DAA" d="M176.057,27.84v-6.3l-0.239-1.318c0-0.279-0.021-0.479-0.061-0.603c0-0.209,0.016-0.381,0.037-0.529
		c0.009-0.047,0.021-0.082,0.026-0.123c0.021-0.092,0.05-0.17,0.079-0.23c0.018-0.029,0.034-0.059,0.055-0.082
		c0.037-0.048,0.082-0.076,0.133-0.095c0.021-0.01,0.039-0.021,0.063-0.023c0.079-0.007,0.166,0.011,0.27,0.065
		c0.199,0.081,0.316,0.238,0.357,0.479l0.063,0.239l0.062,0.36l0.12,0.238c0.318,0.92,1.199,1.38,2.642,1.38
		c0.603,0,1.271-0.101,2.013-0.3c0.737-0.2,1.35-0.778,1.829-1.738c0.396-0.642,0.601-1.359,0.601-2.16c0-1.119-0.501-2.12-1.5-3
		c-1.041-0.92-2.101-1.46-3.18-1.62c-1.003-0.159-1.813-0.278-2.435-0.359c-0.617-0.079-1.068-0.119-1.351-0.119
		c-4.641,0-8.051,1.189-10.229,3.568c-2.183,2.382-3.271,6.111-3.271,11.19v1.078h-1.2c-1.399,0-2.26,0.82-2.58,2.46
		c-0.12,1,0.052,1.82,0.512,2.462c0.459,0.64,1.209,0.96,2.25,0.96h1.021v5.854l14.279-0.479V36V33.72l0.592-0.016l2.048-0.047
		c0.278,0,0.721-0.1,1.319-0.301c1.119-0.601,1.681-1.419,1.681-2.46c0-1.812-0.823-2.813-2.459-3.019
		c-0.208-0.023-0.425-0.043-0.66-0.043L176.057,27.84L176.057,27.84z"/>
	<path fill="#3C2DAA" d="M205.217,27c-0.563,0-2.42,0.182-5.579,0.54c-3.479,0.398-6.32,1.979-8.521,4.738
		c-1.574,1.916-2.574,4.063-3.021,6.428l12.843-0.431c0.212-2.049,0.635-3.596,1.278-4.616c0.881-1.119,1.881-1.681,3-1.681
		c1.199,0,2.119,0.438,2.761,1.318c0.873,1.187,1.399,2.75,1.594,4.688l12.551-0.421c-0.453-1.738-1.221-3.289-2.3-4.65
		c-0.305-0.387-0.629-0.761-0.981-1.115C215.637,28.6,211.098,27,205.217,27z"/>
	<path fill="#3C2DAA" d="M243.618,12.24c-0.32,0-0.541,0.021-0.66,0.063l-12.063,3.06c-1.357,0.479-2.04,1.261-2.04,2.341
		c0,0.721,0.3,1.319,0.898,1.801l0.42,0.239l0.302,0.181c0.84,0.521,1.278,1.199,1.319,2.04l0.033,15.281l14.364-0.479V16.8
		c0-1.313-0.171-2.323-0.489-3.069C245.284,12.748,244.594,12.24,243.618,12.24z"/>
	<path fill="#3C2DAA" d="M269.177,26.94c-0.321,0-0.54,0.021-0.66,0.062l-12.061,3.062c-1.36,0.479-2.041,1.26-2.041,2.34
		c0,0.721,0.301,1.32,0.897,1.801l0.42,0.239l0.304,0.181c0.742,0.462,1.153,1.058,1.271,1.771l14.447-0.482V31.5
		c0-1.08-0.021-1.682-0.063-1.802c-0.003-0.016-0.008-0.028-0.011-0.045C271.32,27.848,270.485,26.94,269.177,26.94z"/>
	<path fill="#3C2DAA" d="M256.877,19.14c0.039,1.561,0.789,2.858,2.25,3.898c1.459,1.04,3.33,1.562,5.606,1.562
		c1.92,0,3.58-0.479,4.979-1.439c1.642-1.159,2.461-2.619,2.461-4.381c0-1.8-0.801-3.3-2.398-4.5
		c-1.521-1.079-3.198-1.619-5.041-1.619c-0.214-0.025-0.429-0.038-0.646-0.039c-0.021,0-0.045,0.003-0.066,0.003
		c-0.313,0.003-0.632,0.035-0.95,0.092c-0.042,0.009-0.085,0.014-0.128,0.021c-0.315,0.063-0.639,0.156-0.962,0.271
		c-0.063,0.021-0.125,0.047-0.188,0.069c-0.318,0.124-0.644,0.271-0.965,0.447c-0.058,0.03-0.11,0.063-0.166,0.097
		c-0.341,0.193-0.686,0.407-1.027,0.658C257.718,15.64,256.795,17.26,256.877,19.14z"/>
	<path fill="#3C2DAA" d="M294.61,35.139c0.188-0.573,0.409-1.07,0.667-1.479c0.88-1.119,1.88-1.681,3-1.681
		c1.2,0,2.12,0.438,2.763,1.318c0.347,0.472,0.631,1.008,0.871,1.597l12.021-0.402c-0.552-0.975-1.222-1.878-2.035-2.689
		c-3.201-3.2-7.74-4.802-13.62-4.802c-0.563,0-2.421,0.182-5.58,0.54c-3.479,0.398-6.319,1.979-8.521,4.738
		c-0.845,1.027-1.521,2.121-2.041,3.277L294.61,35.139z"/>
</g>
</svg>
